<svg width="1164" height="819" viewBox="0 0 1164 819" fill="none" xmlns="http://www.w3.org/2000/svg">
<mask id="mask0_34_966" style="mask-type:luminance" maskUnits="userSpaceOnUse" x="182" y="587" width="189" height="189">
<path d="M370.855 587.223H182.663V775.453H370.855V587.223Z" fill="white"/>
</mask>
<g mask="url(#mask0_34_966)">
<path d="M414.393 684.192L410.7 687.885L401.637 696.95L392.574 706.015L383.511 715.08L374.448 724.145L365.385 733.209L356.322 742.274L347.259 751.339L338.196 760.404L320.485 778.119L320.05 778.554L310.987 787.618L301.924 796.683L292.861 805.748L283.798 814.813L279.691 818.921C280.264 818.921 280.836 818.901 281.409 818.882L285.95 814.339L295.013 805.274L304.076 796.209L313.139 787.145L322.202 778.08L331.265 769.015L340.328 759.95L349.392 750.885L358.455 741.82L367.518 732.755L376.581 723.69L385.644 714.625L394.707 705.56L403.77 696.496L412.833 687.431L414.314 685.949C414.314 685.377 414.353 684.804 414.353 684.231L414.393 684.192Z" fill="#9A8CF3"/>
<path d="M413.86 693.79L410.7 696.95L401.637 706.015L392.574 715.08L383.511 724.145L365.8 741.86L365.365 742.294L356.302 751.359L347.239 760.424L338.176 769.489L329.113 778.554L320.05 787.618L310.987 796.683L301.924 805.748L292.861 814.813L289.287 818.388C289.899 818.329 290.511 818.289 291.123 818.21L303.642 805.689L304.076 805.254L313.139 796.19L322.202 787.125L331.265 778.06L340.328 768.995L349.392 759.93L358.455 750.865L367.518 741.8L376.581 732.735L385.644 723.67L394.707 714.606L403.77 705.541L412.833 696.476L413.662 695.646C413.721 695.034 413.781 694.422 413.84 693.81L413.86 693.79Z" fill="#9A8CF3"/>
<path d="M340.566 803.378C341.79 802.727 343.014 802.075 344.238 801.384L349.352 796.269L358.415 787.204L367.478 778.139L376.541 769.074L385.604 760.009L394.668 750.944L396.721 748.89C397.412 747.686 398.064 746.461 398.715 745.217L392.515 751.418L383.452 760.483L365.741 778.198L365.306 778.633L356.243 787.697L347.18 796.762L340.546 803.398L340.566 803.378Z" fill="#9A8CF3"/>
<path d="M324.256 810.626C325.164 810.291 326.053 809.955 326.961 809.599L331.226 805.333L340.289 796.269L349.352 787.204L358.415 778.139L367.478 769.074L376.541 760.009L385.604 750.944L394.667 741.879L403.73 732.814L404.935 731.61C405.29 730.721 405.626 729.812 405.962 728.904L401.578 733.288L392.515 742.353L383.452 751.418L374.389 760.483L365.326 769.548L356.263 778.613L347.2 787.678L338.137 796.743L324.256 810.626Z" fill="#9A8CF3"/>
<path d="M322.143 805.334L331.207 796.269L340.27 787.204L349.333 778.139L358.396 769.074L367.459 760.009L376.522 750.944L385.585 741.879L394.648 732.814L403.711 723.75L409.417 718.042C409.635 717.272 409.832 716.521 410.029 715.751L401.539 724.243L392.476 733.308L383.413 742.373L374.35 751.438L365.287 760.503L356.224 769.568L347.161 778.633L338.098 787.697L329.035 796.762L319.972 805.827L311.066 814.734C311.836 814.537 312.587 814.319 313.357 814.122L322.124 805.353L322.143 805.334Z" fill="#9A8CF3"/>
<path d="M313.08 805.333L322.143 796.269L331.206 787.204L348.918 769.489L349.352 769.054L358.415 759.989L367.478 750.924L385.624 732.775L394.687 723.71L403.75 714.645L412.142 706.252C412.26 705.58 412.379 704.909 412.497 704.237L406.139 710.596L401.598 715.139L392.535 724.204L383.472 733.269L374.409 742.333L365.346 751.398L356.283 760.463L347.22 769.528L338.156 778.593L329.093 787.658L320.03 796.723L310.967 805.788L301.904 814.853L299.653 817.104C300.325 816.985 300.996 816.887 301.667 816.749L304.057 814.359L313.12 805.294L313.08 805.333Z" fill="#9A8CF3"/>
<path d="M190.462 574.11C182.762 580.311 175.752 587.322 169.552 595.024L176.996 587.579L186.059 578.514L190.462 574.11Z" fill="#9A8CF3"/>
<path d="M412.577 658.775L410.701 660.651L401.638 669.716L392.575 678.781L383.512 687.845L374.449 696.91L365.385 705.975L356.322 715.04L347.259 724.105L338.196 733.17L329.133 742.235L320.07 751.3L311.007 760.365L301.944 769.429L292.881 778.494L283.818 787.559L274.755 796.624L265.692 805.689L256.629 814.754L254.338 817.045C254.812 817.124 255.286 817.203 255.78 817.282L267.864 805.195L276.927 796.13L285.99 787.065L303.701 769.35L304.136 768.916L313.199 759.851L322.262 750.786L331.325 741.721L340.388 732.656L349.451 723.592L358.514 714.527L367.577 705.462L376.64 696.397L385.703 687.332L394.766 678.267L403.829 669.202L412.853 660.177C412.774 659.703 412.695 659.229 412.616 658.735L412.577 658.775Z" fill="#9A8CF3"/>
<path d="M413.662 666.773L410.7 669.735L401.637 678.8L392.574 687.865L383.511 696.93L369.907 710.537L365.365 715.08L356.302 724.145L347.239 733.209L338.176 742.274L329.113 751.339L320.05 760.404L310.987 769.469L301.924 778.534L292.861 787.599L283.798 796.664L274.735 805.729L265.672 814.793L262.295 818.171C262.809 818.23 263.322 818.269 263.816 818.328L267.824 814.319L276.887 805.255L285.95 796.19L295.013 787.125L304.076 778.06L313.139 768.995L322.202 759.93L331.265 750.865L349.411 732.716L358.474 723.651L367.537 714.586L382.208 699.912L385.683 696.456L394.746 687.391L403.809 678.326L412.872 669.261L413.82 668.313C413.781 667.8 413.721 667.287 413.662 666.793V666.773Z" fill="#9A8CF3"/>
<path d="M414.294 675.226L410.72 678.8L401.657 687.865L392.594 696.93L383.531 705.995L374.468 715.06L365.405 724.125L356.342 733.19L347.279 742.254L338.216 751.319L329.153 760.384L320.09 769.449L311.027 778.514L301.964 787.579L292.9 796.644L274.755 814.793L270.766 818.783C271.299 818.802 271.832 818.822 272.385 818.842L276.927 814.3L285.99 805.235L295.053 796.17L304.116 787.105L313.179 778.04L322.242 768.975L331.305 759.91L340.368 750.845L349.431 741.781L358.494 732.716L367.557 723.651L376.62 714.586L385.683 705.521L394.746 696.456L403.809 687.391L412.872 678.326L414.353 676.845C414.353 676.312 414.314 675.759 414.294 675.226Z" fill="#9A8CF3"/>
<path d="M401.973 624.036L401.638 624.371L392.575 633.436L383.512 642.501L374.448 651.566L365.385 660.631L356.322 669.696L347.259 678.761L338.196 687.826L329.133 696.891L320.07 705.955L311.007 715.02L301.944 724.085L292.881 733.15L283.818 742.215L274.755 751.28L265.692 760.345L256.629 769.41L247.566 778.475L238.503 787.539L229.44 796.604L220.377 805.669L219.646 806.4C220.021 806.578 220.416 806.755 220.791 806.933L222.094 805.63L222.529 805.195L231.592 796.13L240.655 787.065L249.718 778.001L258.781 768.936L267.844 759.871L276.907 750.806L285.97 741.741L295.033 732.676L304.096 723.611L313.159 714.546L322.222 705.481L331.285 696.417L340.348 687.352L349.412 678.287L358.475 669.222L367.538 660.157L376.601 651.092L385.664 642.027L394.727 632.962L402.487 625.201C402.309 624.826 402.131 624.431 401.973 624.055V624.036Z" fill="#9A8CF3"/>
<path d="M405.152 631.58C404.994 631.185 404.836 630.77 404.678 630.375L401.638 633.417L392.574 642.481L383.511 651.546L374.448 660.611L365.385 669.676L356.322 678.741L347.259 687.806L338.196 696.871L324.592 710.478L320.05 715.02L310.987 724.085L301.924 733.15L292.861 742.215L283.798 751.28L274.735 760.345L265.672 769.41L256.609 778.475L247.546 787.539L238.483 796.604L229.42 805.669L225.964 809.125C226.359 809.283 226.774 809.441 227.169 809.599L231.592 805.176L240.655 796.111L249.718 787.046L267.864 768.896L276.927 759.831L285.99 750.766L304.136 732.617L313.199 723.552L322.262 714.487L331.325 705.422L340.388 696.357L349.451 687.292L358.514 678.228L367.577 669.163L376.64 660.098L385.703 651.033L394.766 641.968L403.829 632.903L405.192 631.54L405.152 631.58Z" fill="#9A8CF3"/>
<path d="M392.298 606.479L383.492 615.287L374.428 624.352L365.365 633.417L356.302 642.481L347.239 651.546L338.176 660.611L329.113 669.676L320.05 678.741L310.987 687.806L301.924 696.871L292.861 705.936L283.798 715.001L274.735 724.065L265.672 733.13L256.609 742.195L247.546 751.26L238.483 760.325L229.42 769.39L220.357 778.455L211.294 787.52L202.231 796.585L202.092 796.723C202.428 796.94 202.764 797.157 203.099 797.375L204.383 796.091L213.446 787.026L222.509 777.961L231.572 768.896L240.635 759.831L249.698 750.766L267.844 732.617L276.907 723.552L285.97 714.487L300.641 699.813L304.096 696.357L313.159 687.292L322.222 678.228L331.285 669.163L340.348 660.098L349.411 651.033L358.474 641.968L367.537 632.903L376.6 623.838L385.664 614.773L392.969 607.466C392.752 607.13 392.535 606.795 392.318 606.459L392.298 606.479Z" fill="#9A8CF3"/>
<path d="M396.385 613.154C396.188 612.798 395.971 612.443 395.773 612.087L392.575 615.287L383.512 624.352L374.449 633.417L365.385 642.481L356.322 651.546L347.259 660.611L338.196 669.676L329.133 678.741L320.07 687.806L311.007 696.871L301.944 705.936L292.881 715.001L283.818 724.065L274.755 733.13L265.692 742.195L256.629 751.26L247.566 760.325L238.503 769.39L229.44 778.455L220.377 787.52L211.314 796.585L207.7 800.199C208.056 800.396 208.411 800.613 208.766 800.811L213.466 796.111L222.529 787.046L231.592 777.981L240.655 768.916L249.718 759.851L258.781 750.786L267.844 741.721L276.907 732.656L285.97 723.592L295.033 714.527L304.096 705.462L313.159 696.397L322.222 687.332L331.285 678.267L340.349 669.202L349.412 660.137L358.475 651.072L367.538 642.007L376.601 632.943L385.664 623.878L394.727 614.813L396.385 613.154Z" fill="#9A8CF3"/>
<path d="M381.379 591.864C381.122 591.568 380.865 591.272 380.609 590.956L374.428 597.137L365.365 606.202L356.302 615.267L347.239 624.332L338.176 633.397L329.113 642.462L320.05 651.527L310.987 660.592L301.924 669.656L292.861 678.721L283.798 687.786L274.735 696.851L265.672 705.916L256.609 714.981L247.546 724.046L238.483 733.111L229.42 742.176L220.357 751.24L211.293 760.305L193.148 778.455L186.553 785.051C186.849 785.308 187.145 785.565 187.461 785.821L195.3 777.981L204.363 768.916L213.426 759.851L222.489 750.786L231.552 741.721L240.615 732.656L249.678 723.592L258.741 714.527L267.804 705.462L276.867 696.397L285.93 687.332L294.993 678.267L304.056 669.202L313.12 660.137L322.183 651.072L331.246 642.007L340.309 632.943L349.372 623.878L358.435 614.813L367.498 605.748L376.561 596.683L381.359 591.884L381.379 591.864Z" fill="#9A8CF3"/>
<path d="M377.094 587.085C376.818 586.789 376.561 586.512 376.285 586.216L374.429 588.072L365.366 597.137L356.302 606.202L347.239 615.267L338.176 624.332L329.113 633.397L320.05 642.462L310.987 651.527L301.924 660.591L292.861 669.656L283.798 678.721L274.735 687.786L265.672 696.851L256.609 705.916L247.546 714.981L238.483 724.046L229.42 733.111L220.357 742.176L211.294 751.24L202.231 760.305L193.168 769.37L184.104 778.435L181.854 780.686C182.13 780.963 182.426 781.22 182.722 781.496L186.276 777.941L195.339 768.876L204.403 759.812L213.466 750.747L222.529 741.682L231.592 732.617L240.655 723.552L249.718 714.487L267.192 697.009L267.864 696.338L276.927 687.273L285.99 678.208L295.053 669.143L304.116 660.078L313.179 651.013L322.242 641.948L331.305 632.883L340.368 623.818L349.431 614.754L358.494 605.689L367.557 596.624L376.62 587.559L377.134 587.045L377.094 587.085Z" fill="#9A8CF3"/>
<path d="M385.466 596.861C385.229 596.545 384.973 596.229 384.736 595.933L383.512 597.157L374.448 606.222L365.385 615.287L356.322 624.352L347.259 633.417L338.196 642.481L329.133 651.546L320.07 660.611L311.007 669.676L301.944 678.741L292.881 687.806L283.818 696.871L274.755 705.936L265.692 715.001L256.629 724.065L238.917 741.781L238.483 742.215L229.42 751.28L220.357 760.345L211.294 769.41L202.231 778.475L193.168 787.539L191.529 789.179C191.845 789.435 192.161 789.672 192.477 789.909L195.34 787.046L204.403 777.981L213.466 768.916L222.529 759.851L231.592 750.786L240.655 741.721L249.718 732.656L258.781 723.592L267.844 714.527L276.907 705.462L285.97 696.397L295.033 687.332L304.096 678.267L313.159 669.202L322.222 660.137L331.285 651.072L340.348 642.007L349.412 632.943L358.475 623.878L367.538 614.813L376.601 605.748L385.486 596.861H385.466Z" fill="#9A8CF3"/>
<path d="M372.593 582.503C372.316 582.227 372.04 581.95 371.744 581.674L365.346 588.072L356.283 597.137L347.22 606.202L338.157 615.267L329.094 624.332L320.031 633.397L310.968 642.462L301.905 651.527L292.842 660.591L283.779 669.656L274.716 678.721L265.653 687.786L256.589 696.851L242.985 710.458L238.444 715.001L229.381 724.066L220.318 733.13L211.254 742.195L202.191 751.26L193.128 760.325L184.065 769.39L177.273 776.184C177.549 776.46 177.826 776.756 178.102 777.033L186.218 768.916L195.281 759.851L204.344 750.786L222.489 732.637L231.553 723.572L240.616 714.507L249.679 705.442L258.742 696.377L267.805 687.312L276.868 678.247L285.931 669.182L294.994 660.118L304.057 651.053L313.12 641.988L322.183 632.923L331.246 623.858L340.309 614.793L349.372 605.728L358.435 596.663L367.498 587.598L372.573 582.523L372.593 582.503Z" fill="#9A8CF3"/>
<path d="M292.763 551.773L283.699 560.838L274.636 569.903L265.573 578.968L256.51 588.033L247.447 597.098L238.384 606.163L229.321 615.228L220.258 624.292L211.195 633.357L202.132 642.422L193.069 651.487L184.006 660.552L174.943 669.617L165.88 678.682L156.817 687.747L147.754 696.812L141.06 703.507C141.139 703.981 141.218 704.474 141.297 704.948L149.906 696.338L158.969 687.273L168.032 678.208L177.095 669.143L186.158 660.078L195.221 651.013L204.284 641.948L213.347 632.883L222.41 623.818L231.473 614.754L240.536 605.689L249.599 596.624L258.663 587.559L267.726 578.494L276.789 569.429L285.852 560.364L294.915 551.299L300.483 545.73C300.009 545.651 299.535 545.572 299.041 545.493L292.743 551.793L292.763 551.773Z" fill="#9A8CF3"/>
<path d="M283.699 551.773L274.636 560.838L265.573 569.903L256.51 578.968L247.447 588.033L238.384 597.098L229.321 606.163L220.258 615.228L211.195 624.292L202.132 633.357L193.069 642.422L184.006 651.487L174.943 660.552L165.88 669.617L156.817 678.682L147.754 687.747L139.994 695.508C140.053 696.002 140.112 696.515 140.171 697.009L140.843 696.338L149.906 687.273L158.969 678.208L168.032 669.143L177.095 660.078L186.158 651.013L195.221 641.948L204.284 632.883L213.347 623.818L222.41 614.754L231.473 605.689L240.536 596.624L249.599 587.559L258.662 578.494L267.725 569.429L276.788 560.364L285.852 551.299L292.565 544.585C292.071 544.525 291.558 544.466 291.064 544.407L283.699 551.773Z" fill="#9A8CF3"/>
<path d="M274.617 551.773L265.554 560.838L256.491 569.903L247.428 578.968L238.365 588.033L229.302 597.098L220.238 606.163L211.175 615.228L202.112 624.292L193.049 633.357L183.986 642.422L174.923 651.487L165.86 660.552L156.797 669.617L147.734 678.682L139.382 687.036C139.402 687.569 139.421 688.102 139.461 688.635L140.843 687.253L149.906 678.188L158.969 669.123L168.032 660.058L177.095 650.993L186.158 641.929L195.221 632.864L204.284 623.799L213.347 614.734L222.41 605.669L231.474 596.604L240.537 587.539L249.6 578.474L258.663 569.409L267.726 560.345L276.789 551.28L284.213 543.854C283.68 543.834 283.147 543.814 282.614 543.775L274.637 551.754L274.617 551.773Z" fill="#9A8CF3"/>
<path d="M265.554 551.773L256.49 560.838L247.427 569.903L238.364 578.968L229.301 588.033L220.238 597.098L211.175 606.163L202.112 615.228L193.049 624.292L183.986 633.357L174.923 642.422L165.86 651.487L156.797 660.552L147.734 669.617L139.283 678.07C139.283 678.642 139.283 679.195 139.263 679.768L140.823 678.208L149.886 669.143L158.949 660.078L168.012 651.013L177.075 641.948L186.138 632.883L195.201 623.818L204.264 614.754L213.327 605.689L222.391 596.624L231.454 587.559L240.517 578.494L249.58 569.429L258.643 560.364L267.706 551.299L275.308 543.696C274.735 543.696 274.182 543.696 273.61 543.716L265.554 551.773Z" fill="#9A8CF3"/>
<path d="M247.408 551.773L238.345 560.838L229.282 569.903L220.219 578.968L211.155 588.033L202.092 597.098L193.029 606.163L183.966 615.228L174.903 624.292L165.84 633.357L156.777 642.422L147.714 651.487L141.178 658.004C141.06 658.676 140.941 659.347 140.843 660.019L149.866 650.993L158.929 641.928L167.992 632.864L177.055 623.799L186.119 614.734L195.182 605.669L204.245 596.604L213.308 587.539L222.371 578.474L231.434 569.409L240.497 560.344L249.56 551.28L255.543 545.296C254.871 545.394 254.2 545.513 253.529 545.631L247.388 551.773H247.408Z" fill="#9A8CF3"/>
<path d="M249.56 814.418L258.623 805.353L267.686 796.288L276.749 787.223L285.812 778.159L294.875 769.094L303.938 760.029L313.002 750.964L322.065 741.899L331.128 732.834L340.191 723.769L349.254 714.704L358.317 705.639L367.38 696.575L376.443 687.51L385.506 678.445L394.569 669.38L403.632 660.315L411.234 652.712C411.135 652.257 411.036 651.803 410.938 651.329L410.543 651.724L401.48 660.789L392.417 669.854L383.354 678.919L374.291 687.984L365.228 697.049L356.165 706.113L347.101 715.178L338.038 724.243L320.327 741.958L319.893 742.393L310.83 751.458L301.766 760.523L292.703 769.587L283.64 778.652L274.577 787.717L265.514 796.782L256.451 805.847L247.388 814.912L246.579 815.722C247.033 815.82 247.487 815.919 247.961 816.018L249.56 814.418Z" fill="#9A8CF3"/>
<path d="M249.56 805.334L258.623 796.269L267.686 787.204L276.749 778.139L285.812 769.074L294.875 760.009L303.938 750.944L313.001 741.879L322.064 732.814L331.127 723.749L340.19 714.685L349.253 705.62L358.316 696.555L367.379 687.49L376.443 678.425L385.506 669.36L394.569 660.295L403.632 651.23L409.476 645.385C409.358 644.95 409.239 644.496 409.121 644.061L401.479 651.704L392.416 660.769L383.353 669.834L374.29 678.899L365.227 687.964L356.164 697.029L347.101 706.094L338.038 715.159L328.975 724.223L319.912 733.288L310.849 742.353L301.786 751.418L292.723 760.483L274.577 778.633L265.514 787.697L256.451 796.762L239.312 813.905C239.746 814.023 240.181 814.142 240.635 814.26L249.54 805.353L249.56 805.334Z" fill="#9A8CF3"/>
<path d="M240.497 805.333L249.56 796.269L258.623 787.204L267.686 778.139L276.749 769.074L285.812 760.009L294.875 750.944L303.938 741.879L313.001 732.814L322.064 723.749L331.127 714.685L345.798 700.011L349.254 696.555L358.317 687.49L367.38 678.425L376.443 669.36L385.506 660.295L394.569 651.23L403.632 642.165L407.383 638.413C407.245 637.998 407.107 637.564 406.969 637.149L401.48 642.639L392.417 651.704L383.354 660.769L374.29 669.834L365.227 678.899L356.164 687.964L347.101 697.029L338.038 706.094L328.975 715.159L319.912 724.223L310.849 733.288L301.786 742.353L292.723 751.418L283.66 760.483L274.597 769.548L265.534 778.613L256.471 787.678L247.408 796.743L238.345 805.807L232.441 811.713C232.856 811.851 233.29 811.989 233.705 812.127L240.517 805.314L240.497 805.333Z" fill="#9A8CF3"/>
<path d="M231.355 551.359C230.486 551.655 229.617 551.971 228.749 552.307L220.199 560.858L211.136 569.923L202.073 578.988L193.01 588.053L183.947 597.118L174.884 606.182L165.821 615.247L156.758 624.312L147.813 633.259C147.497 634.128 147.181 634.997 146.865 635.865L149.827 632.903L158.89 623.838L167.953 614.773L177.016 605.708L186.079 596.644L195.142 587.579L204.205 578.514L213.268 569.449L222.331 560.384L231.335 551.378L231.355 551.359Z" fill="#9A8CF3"/>
<path d="M222.351 796.269L231.414 787.204L240.477 778.139L249.54 769.074L258.603 760.009L267.666 750.944L276.729 741.879L285.793 732.814L294.856 723.749L303.919 714.685L312.982 705.62L322.045 696.555L331.108 687.49L340.171 678.425L349.234 669.36L358.297 660.295L367.36 651.23L376.423 642.165L385.486 633.101L394.549 624.036L399.387 619.197C399.189 618.822 399.012 618.466 398.814 618.091L392.397 624.51L383.334 633.575L374.271 642.639L365.208 651.704L356.145 660.769L347.082 669.834L338.019 678.899L328.956 687.964L319.893 697.029L310.829 706.094L301.766 715.159L292.703 724.223L274.558 742.373L265.494 751.438L256.431 760.503L238.72 778.218L238.286 778.652L229.223 787.717L220.159 796.782L213.328 803.615C213.703 803.813 214.058 803.991 214.433 804.188L222.312 796.308L222.351 796.269Z" fill="#9A8CF3"/>
<path d="M212.261 559.712L211.116 560.858L202.053 569.923L192.99 578.988L183.927 588.053L174.864 597.118L165.801 606.182L156.738 615.247L155.217 616.768C154.605 617.913 154.033 619.059 153.46 620.204L158.91 614.754L167.973 605.689L177.036 596.624L186.099 587.559L195.162 578.494L204.225 569.429L213.288 560.364L215.697 557.955C214.532 558.528 213.387 559.12 212.261 559.712Z" fill="#9A8CF3"/>
<path d="M204.205 787.184L221.917 769.469L222.351 769.034L231.414 759.97L240.477 750.905L249.54 741.84L258.603 732.775L267.666 723.71L276.729 714.645L285.793 705.58L294.856 696.515L303.919 687.45L312.982 678.386L322.045 669.321L331.108 660.256L340.171 651.191L349.234 642.126L358.297 633.061L367.36 623.996L376.423 614.931L385.486 605.866L389.159 602.193C388.922 601.857 388.705 601.541 388.468 601.225L383.334 606.36L374.271 615.425L365.208 624.49L356.145 633.555L347.082 642.62L338.019 651.685L328.956 660.75L319.892 669.814L310.829 678.879L301.766 687.944L292.703 697.009L274.557 715.159L265.494 724.223L256.431 733.288L247.368 742.353L238.305 751.418L229.242 760.483L220.179 769.548L211.116 778.613L202.053 787.678L196.524 793.208C196.84 793.445 197.176 793.681 197.492 793.899L204.205 787.184Z" fill="#9A8CF3"/>
<path d="M172.791 771.562C173.047 771.859 173.324 772.155 173.58 772.451L176.996 769.034L186.059 759.97L195.122 750.905L204.185 741.84L213.248 732.775L222.312 723.71L231.375 714.645L240.438 705.58L249.501 696.515L258.564 687.45L267.627 678.386L276.69 669.321L285.753 660.256L294.816 651.191L303.879 642.126L312.942 633.061L322.005 623.996L331.068 614.931L340.131 605.866L349.194 596.802L358.257 587.737L367.32 578.672L367.696 578.297C367.399 578.04 367.103 577.763 366.807 577.507L365.168 579.146L356.105 588.211L347.042 597.276L337.979 606.34L328.916 615.405L319.853 624.47L310.79 633.535L301.727 642.6L292.664 651.665L283.601 660.73L274.538 669.795L265.475 678.86L256.411 687.924L247.348 696.989L238.285 706.054L229.222 715.119L220.159 724.184L211.096 733.249L202.033 742.314L192.97 751.379L183.907 760.444L174.844 769.508L172.81 771.543L172.791 771.562Z" fill="#9A8CF3"/>
<path d="M164.794 761.431C165.031 761.747 165.268 762.083 165.505 762.399L167.933 759.97L176.996 750.905L186.06 741.84L195.123 732.775L204.186 723.71L213.249 714.645L222.312 705.58L231.375 696.515L240.438 687.45L249.501 678.386L258.564 669.321L267.627 660.256L276.69 651.191L285.753 642.126L294.816 633.061L303.879 623.996L312.942 614.931L322.005 605.866L331.068 596.802L340.131 587.737L349.195 578.672L357.645 570.219C357.33 569.982 356.994 569.745 356.678 569.508L356.105 570.081L347.042 579.146L337.979 588.211L328.916 597.276L319.853 606.34L310.79 615.405L301.727 624.47L292.664 633.535L283.601 642.6L274.538 651.665L265.475 660.73L256.412 669.795L247.349 678.86L238.286 687.924L229.223 696.989L220.16 706.054L211.096 715.119L202.033 724.184L192.97 733.249L183.907 742.314L174.844 751.379L165.781 760.444L164.814 761.411L164.794 761.431Z" fill="#9A8CF3"/>
<path d="M167.914 750.905L186.06 732.755L195.123 723.69L204.186 714.625L218.856 699.952L222.312 696.496L231.375 687.431L240.438 678.366L249.501 669.301L258.564 660.236L267.627 651.171L276.69 642.106L285.753 633.041L294.816 623.976L303.879 614.912L312.942 605.847L322.005 596.782L331.068 587.717L340.131 578.652L349.195 569.587L352.295 566.486C351.959 566.269 351.623 566.032 351.288 565.815L347.042 570.061L337.979 579.126L328.916 588.191L319.853 597.256L310.79 606.321L301.727 615.386L292.664 624.45L283.601 633.515L274.538 642.58L265.475 651.645L256.412 660.71L247.349 669.775L238.286 678.84L229.223 687.905L220.16 696.97L211.097 706.034L202.033 715.099L192.97 724.164L183.907 733.229L174.844 742.294L165.781 751.359L161.141 756C161.358 756.336 161.576 756.671 161.812 757.007L167.953 750.865L167.914 750.905Z" fill="#9A8CF3"/>
<path d="M169.434 767.534L176.996 759.97L186.059 750.905L195.122 741.84L204.185 732.775L213.249 723.71L222.312 714.645L231.375 705.58L240.438 696.515L249.501 687.45L258.564 678.386L267.627 669.321L276.69 660.256L285.753 651.191L294.816 642.126L303.879 633.061L312.942 623.996L322.005 614.931L331.068 605.866L340.131 596.802L349.194 587.737L358.257 578.672L362.779 574.149C362.463 573.892 362.167 573.655 361.851 573.399L356.105 579.146L347.042 588.211L337.979 597.275L328.916 606.34L319.853 615.405L310.79 624.47L301.727 633.535L292.664 642.6L283.601 651.665L274.538 660.73L265.475 669.795L256.412 678.859L247.349 687.924L238.285 696.989L229.222 706.054L220.159 715.119L211.096 724.184L192.95 742.333L183.887 751.398L174.824 760.463L168.684 766.605C168.921 766.921 169.177 767.218 169.434 767.534Z" fill="#9A8CF3"/>
<path d="M156.678 742.314L154.447 744.545C154.645 744.921 154.822 745.276 155.02 745.651L158.831 741.84L167.894 732.775L176.957 723.71L186.02 714.645L195.083 705.58L204.146 696.515L213.209 687.45L222.272 678.386L231.335 669.321L240.398 660.256L249.461 651.191L258.524 642.126L267.587 633.061L276.65 623.996L285.713 614.931L294.776 605.866L303.84 596.802L312.903 587.737L321.966 578.672L331.029 569.607L340.092 560.542L340.862 559.772C340.506 559.574 340.131 559.377 339.776 559.199L337.939 561.036L328.876 570.101L319.813 579.166L310.75 588.23L301.687 597.295L292.624 606.36L283.561 615.425L274.498 624.49L265.435 633.555L256.372 642.62L247.309 651.685L238.246 660.75L229.183 669.814L220.12 678.879L211.057 687.944L201.994 697.009L192.931 706.074L183.868 715.139L174.805 724.204L157.093 741.919L156.659 742.353L156.678 742.314Z" fill="#9A8CF3"/>
<path d="M158.85 732.755L167.913 723.69L176.976 714.625L186.039 705.56L195.103 696.496L204.166 687.431L213.229 678.366L222.292 669.301L231.355 660.236L240.418 651.171L249.481 642.106L258.544 633.041L267.607 623.976L276.67 614.912L285.733 605.847L294.796 596.782L303.859 587.717L312.922 578.652L321.985 569.587L331.048 560.522L334.839 556.73C334.464 556.553 334.089 556.375 333.694 556.197L328.876 561.016L319.813 570.081L310.75 579.146L301.687 588.211L292.624 597.275L283.561 606.34L274.498 615.405L265.435 624.47L256.372 633.535L247.309 642.6L238.246 651.665L229.183 660.73L220.12 669.795L211.057 678.859L201.994 687.924L192.931 696.989L183.868 706.054L174.804 715.119L165.741 724.184L156.678 733.249L151.485 738.443C151.663 738.818 151.841 739.213 152.018 739.588L158.85 732.755Z" fill="#9A8CF3"/>
<path d="M158.298 751.458L158.85 750.905L167.914 741.84L176.977 732.775L186.04 723.71L195.103 714.645L204.166 705.58L213.229 696.515L222.292 687.45L231.355 678.386L240.418 669.321L249.481 660.256L258.544 651.191L267.607 642.126L276.67 633.061L285.733 623.996L294.796 614.931L303.859 605.866L312.922 596.802L321.985 587.737L331.048 578.672L340.112 569.607L346.706 563.011C346.351 562.793 346.015 562.596 345.66 562.398L337.959 570.101L328.896 579.166L319.833 588.23L310.77 597.295L301.707 606.36L292.644 615.425L283.581 624.49L274.518 633.555L265.455 642.62L256.392 651.685L247.329 660.75L238.266 669.814L229.203 678.879L220.14 687.944L211.077 697.009L192.931 715.159L183.868 724.223L174.805 733.288L165.742 742.353L157.646 750.45C157.843 750.806 158.061 751.161 158.258 751.497L158.298 751.458Z" fill="#9A8CF3"/>
<path d="M149.768 642.027L158.831 632.962L167.894 623.897L176.957 614.833L186.02 605.768L195.083 596.703L204.146 587.638L213.209 578.573L222.272 569.508L231.335 560.443L240.398 551.378L244.13 547.646C243.38 547.823 242.649 548.001 241.899 548.199L238.226 551.872L229.163 560.937L220.1 570.002L211.037 579.067L201.974 588.132L192.911 597.197L183.848 606.261L174.785 615.326L165.722 624.391L156.659 633.456L147.596 642.521L143.548 646.57C143.351 647.3 143.173 648.051 142.995 648.801L149.768 642.027Z" fill="#9A8CF3"/>
<path d="M149.768 705.541L158.831 696.476L167.894 687.411L176.957 678.346L186.02 669.281L195.083 660.216L204.146 651.151L213.209 642.086L222.272 633.022L231.335 623.957L240.398 614.892L249.461 605.827L258.524 596.762L267.587 587.697L276.65 578.632L285.713 569.567L294.776 560.502L303.839 551.438L307.887 547.389C307.433 547.29 306.979 547.191 306.525 547.093L301.687 551.931L292.624 560.996L283.561 570.061L274.498 579.126L265.435 588.191L256.372 597.256L247.309 606.321L238.246 615.386L229.183 624.45L220.12 633.515L211.057 642.58L201.994 651.645L192.931 660.71L183.868 669.775L174.804 678.84L165.741 687.905L156.678 696.97L147.615 706.034L142.383 711.268C142.482 711.722 142.58 712.176 142.679 712.631L149.768 705.541Z" fill="#9A8CF3"/>
<path d="M146.766 726.692L149.767 723.69L158.83 714.625L167.894 705.561L176.957 696.496L186.02 687.431L195.083 678.366L204.146 669.301L213.209 660.236L222.272 651.171L231.335 642.106L240.398 633.041L249.461 623.977L258.524 614.912L267.587 605.847L276.65 596.782L285.713 587.717L294.776 578.652L303.839 569.587L312.902 560.522L321.946 551.477C321.531 551.339 321.116 551.181 320.702 551.043L319.813 551.931L310.75 560.996L301.687 570.061L292.624 579.126L283.561 588.191L274.498 597.256L265.435 606.321L256.372 615.386L247.309 624.45L238.246 633.515L229.183 642.58L220.12 651.645L211.057 660.71L201.994 669.775L192.93 678.84L183.867 687.905L174.804 696.97L161.2 710.577L156.658 715.119L147.595 724.184L146.312 725.468C146.45 725.882 146.608 726.297 146.746 726.712L146.766 726.692Z" fill="#9A8CF3"/>
<path d="M149.768 714.606L158.831 705.541L167.894 696.476L176.957 687.411L186.02 678.346L195.083 669.281L204.146 660.216L213.209 651.151L222.272 642.086L231.335 633.022L240.398 623.957L249.461 614.892L258.524 605.827L267.588 596.762L276.651 587.697L285.714 578.632L294.777 569.567L303.84 560.502L312.903 551.438L315.075 549.265C314.64 549.147 314.206 549.008 313.772 548.89L310.751 551.912L301.688 560.976L292.624 570.041L283.561 579.106L274.498 588.171L265.435 597.236L256.372 606.301L247.309 615.366L238.246 624.431L229.183 633.496L220.12 642.56L211.057 651.625L201.994 660.69L192.931 669.755L183.868 678.82L174.805 687.885L165.742 696.95L156.679 706.015L147.616 715.08L144.2 718.496C144.318 718.931 144.437 719.365 144.575 719.8L149.768 714.606Z" fill="#9A8CF3"/>
<path d="M149.254 733.269L149.768 732.755L158.831 723.69L167.894 714.625L185.368 697.147L186.039 696.476L195.103 687.411L204.166 678.346L213.229 669.281L222.292 660.216L231.355 651.151L240.418 642.086L249.481 633.022L258.544 623.957L267.607 614.892L276.67 605.827L285.733 596.762L294.796 587.697L303.859 578.632L312.922 569.567L321.985 560.502L328.541 553.946C328.146 553.788 327.751 553.61 327.356 553.452L319.833 560.976L310.77 570.041L301.707 579.106L292.644 588.171L283.581 597.236L274.518 606.301L265.455 615.366L256.392 624.431L247.329 633.496L238.266 642.56L229.203 651.625L220.139 660.69L211.076 669.755L202.013 678.82L192.95 687.885L183.887 696.95L174.824 706.015L165.761 715.08L156.698 724.144L148.78 732.064C148.938 732.459 149.096 732.854 149.274 733.249L149.254 733.269Z" fill="#9A8CF3"/>
<path d="M140.705 669.242L149.768 660.177L158.831 651.112L167.894 642.047L176.957 632.982L186.02 623.917L195.083 614.852L204.146 605.787L213.209 596.723L222.272 587.658L231.335 578.593L240.398 569.528L249.461 560.463L258.524 551.398L265.712 544.209C265.1 544.249 264.488 544.308 263.875 544.367L256.372 551.872L247.309 560.937L238.246 570.002L229.183 579.067L220.12 588.132L211.057 597.197L201.994 606.261L192.931 615.326L183.868 624.391L174.805 633.456L165.742 642.521L156.679 651.586L147.616 660.651L139.718 668.55C139.658 669.163 139.599 669.775 139.56 670.387L140.705 669.242Z" fill="#9A8CF3"/>
</g>
<path d="M621.283 416.274H405.172V774.209H621.283V416.274Z" fill="white" stroke="black" stroke-linecap="round" stroke-linejoin="round"/>
<path d="M809.001 478.642H646.438V775.453H809.001V478.642Z" fill="#9A8CF3"/>
<path d="M996.758 590.028H834.195V774.564H996.758V590.028Z" fill="white" stroke="black" stroke-linecap="round" stroke-linejoin="round"/>
<path d="M147.971 626.899H32.9351V774.781H147.971V626.899Z" fill="white" stroke="black" stroke-linecap="round" stroke-linejoin="round"/>
<path d="M0 774.13H1164" stroke="black" stroke-width="4.04" stroke-miterlimit="10"/>
<path d="M238.206 256.72L235.817 259.11L229.913 265.015L224.009 270.92L218.106 276.825L212.202 282.73L206.298 288.635L200.394 294.54L194.49 300.445L188.587 306.35L177.075 317.864L176.779 318.16L170.875 324.065L164.971 329.97L159.067 335.875L153.164 341.78L150.498 344.446C150.873 344.446 151.248 344.446 151.624 344.407L154.585 341.444L160.489 335.539L166.393 329.634L172.297 323.729L178.201 317.824L184.104 311.919L190.008 306.014L195.912 300.109L201.816 294.204L207.72 288.299L213.623 282.394L219.527 276.489L225.431 270.584L231.335 264.679L237.239 258.774L238.206 257.806C238.206 257.431 238.226 257.056 238.246 256.681L238.206 256.72Z" fill="#9A8CF3"/>
<path d="M237.851 262.961L235.797 265.015L229.894 270.92L223.99 276.825L218.086 282.73L206.574 294.244L206.278 294.54L200.374 300.445L194.471 306.35L188.567 312.255L182.663 318.16L176.759 324.065L170.855 329.97L164.952 335.875L159.048 341.78L156.718 344.11C157.113 344.071 157.527 344.051 157.922 343.992L166.057 335.855L166.353 335.559L172.257 329.654L178.161 323.749L184.065 317.844L189.969 311.939L195.873 306.034L201.776 300.129L207.68 294.224L213.584 288.319L219.488 282.414L225.392 276.509L231.295 270.604L237.199 264.699L237.732 264.165C237.772 263.771 237.811 263.376 237.851 262.961Z" fill="#9A8CF3"/>
<path d="M190.226 334.176C191.035 333.762 191.825 333.327 192.615 332.873L195.952 329.535L201.856 323.63L207.759 317.725L213.663 311.82L219.567 305.915L225.471 300.01L226.813 298.667C227.248 297.877 227.682 297.087 228.117 296.278L224.089 300.307L218.185 306.212L206.673 317.725L206.377 318.022L200.473 323.927L194.57 329.832L190.265 334.137L190.226 334.176Z" fill="#9A8CF3"/>
<path d="M179.623 338.897C180.215 338.679 180.788 338.462 181.38 338.225L184.144 335.46L190.048 329.555L195.952 323.65L201.856 317.745L207.759 311.84L213.663 305.935L219.567 300.03L225.471 294.125L231.375 288.22L232.145 287.45C232.382 286.857 232.599 286.285 232.816 285.692L229.973 288.536L224.069 294.441L218.165 300.346L212.261 306.251L206.358 312.156L200.454 318.061L194.55 323.966L188.646 329.871L179.623 338.897Z" fill="#9A8CF3"/>
<path d="M178.26 335.46L184.164 329.555L190.068 323.65L195.971 317.745L201.875 311.84L207.779 305.935L213.683 300.03L219.587 294.125L225.491 288.22L231.394 282.315L235.106 278.602C235.245 278.108 235.383 277.615 235.501 277.121L229.992 282.631L224.089 288.536L218.185 294.441L212.281 300.346L206.377 306.251L200.473 312.156L194.57 318.061L188.666 323.966L182.762 329.871L176.858 335.776L171.073 341.563C171.566 341.444 172.06 341.306 172.554 341.168L178.26 335.46Z" fill="#9A8CF3"/>
<path d="M172.356 335.46L178.26 329.555L184.164 323.65L195.675 312.136L195.971 311.84L201.875 305.935L207.779 300.03L219.567 288.24L225.471 282.335L231.375 276.43L236.824 270.979C236.903 270.545 236.982 270.11 237.041 269.656L232.895 273.783L229.953 276.726L224.049 282.631L218.145 288.536L212.241 294.441L206.338 300.346L200.434 306.251L194.53 312.156L188.626 318.061L182.722 323.966L176.819 329.871L170.915 335.776L165.011 341.681L163.55 343.143C163.984 343.064 164.419 343.004 164.873 342.925L166.433 341.365L172.336 335.46H172.356Z" fill="#9A8CF3"/>
<path d="M92.6843 185.188C87.6888 189.217 83.1276 193.779 79.0996 198.776L83.9372 193.937L89.841 188.032L92.7041 185.169L92.6843 185.188Z" fill="#9A8CF3"/>
<path d="M237.022 240.21L235.797 241.434L229.894 247.339L223.99 253.244L218.086 259.149L212.182 265.054L206.278 270.959L200.375 276.864L194.471 282.769L188.567 288.674L182.663 294.579L176.759 300.484L170.855 306.389L164.952 312.294L159.048 318.199L153.144 324.104L147.24 330.009L141.336 335.914L135.433 341.819L133.952 343.301C134.268 343.36 134.564 343.399 134.88 343.459L142.738 335.598L148.642 329.693L154.546 323.788L166.057 312.275L166.354 311.978L172.257 306.073L178.161 300.168L184.065 294.263L189.969 288.358L195.873 282.453L201.776 276.548L207.68 270.643L213.584 264.738L219.488 258.833L225.392 252.928L231.296 247.023L237.16 241.158C237.12 240.842 237.061 240.545 237.002 240.229L237.022 240.21Z" fill="#9A8CF3"/>
<path d="M237.732 245.404L235.817 247.319L229.913 253.224L224.01 259.129L218.106 265.034L209.26 273.882L206.318 276.825L200.414 282.73L194.51 288.635L188.606 294.54L182.703 300.445L176.799 306.35L170.895 312.255L164.991 318.16L159.087 324.065L153.183 329.97L147.28 335.875L141.376 341.78L139.184 343.972C139.52 344.012 139.836 344.031 140.171 344.071L142.778 341.464L148.682 335.559L154.585 329.654L160.489 323.749L166.393 317.844L172.297 311.939L178.201 306.034L184.104 300.129L195.892 288.339L201.796 282.434L207.7 276.529L217.237 266.99L219.488 264.738L225.392 258.833L231.295 252.928L237.199 247.023L237.811 246.411C237.772 246.075 237.752 245.739 237.713 245.423L237.732 245.404Z" fill="#9A8CF3"/>
<path d="M238.128 250.894L235.798 253.224L229.894 259.129L223.99 265.034L218.086 270.939L212.182 276.844L206.279 282.75L200.375 288.655L194.471 294.56L188.567 300.465L182.663 306.37L176.76 312.275L170.856 318.18L164.952 324.085L159.048 329.99L147.26 341.78L144.654 344.387C145.009 344.387 145.345 344.407 145.7 344.426L148.662 341.464L154.566 335.559L160.47 329.654L166.374 323.749L172.277 317.844L178.181 311.939L184.085 306.034L189.989 300.129L195.893 294.224L201.796 288.319L207.7 282.414L213.604 276.509L219.508 270.604L225.412 264.699L231.316 258.794L237.219 252.889L238.187 251.921C238.187 251.565 238.167 251.23 238.147 250.874L238.128 250.894Z" fill="#9A8CF3"/>
<path d="M230.131 217.636L229.914 217.854L224.01 223.759L218.106 229.664L212.202 235.569L206.298 241.474L200.394 247.379L194.491 253.284L188.587 259.189L182.683 265.094L176.779 270.999L170.875 276.904L164.972 282.809L159.068 288.714L153.164 294.619L147.26 300.524L141.356 306.429L135.452 312.334L129.549 318.239L123.645 324.144L117.741 330.049L111.837 335.954L111.363 336.428C111.62 336.546 111.857 336.665 112.114 336.764L112.963 335.914L113.259 335.618L119.163 329.713L125.066 323.808L130.97 317.903L136.874 311.998L142.778 306.093L148.682 300.188L154.586 294.283L160.489 288.378L166.393 282.473L172.297 276.568L178.201 270.663L184.105 264.758L190.008 258.853L195.912 252.948L201.816 247.043L207.72 241.138L213.624 235.233L219.528 229.328L225.431 223.423L230.486 218.387C230.368 218.13 230.269 217.893 230.15 217.636H230.131Z" fill="#9A8CF3"/>
<path d="M232.204 222.534C232.105 222.277 232.007 222.021 231.888 221.744L229.914 223.719L224.01 229.624L218.106 235.529L212.202 241.434L206.298 247.339L200.394 253.244L194.491 259.149L188.587 265.054L179.741 273.902L176.799 276.845L170.895 282.75L164.991 288.655L159.087 294.56L153.184 300.465L147.28 306.37L141.376 312.275L135.472 318.18L129.568 324.085L123.665 329.99L117.761 335.895L115.51 338.146C115.766 338.245 116.023 338.344 116.3 338.462L119.163 335.598L125.066 329.693L130.97 323.788L142.758 311.998L148.662 306.093L154.566 300.188L166.354 288.398L172.257 282.493L178.161 276.588L184.065 270.683L189.969 264.778L195.873 258.873L201.777 252.968L207.68 247.063L213.584 241.158L219.488 235.253L225.392 229.348L231.296 223.443L232.184 222.554L232.204 222.534Z" fill="#9A8CF3"/>
<path d="M223.852 206.221L218.126 211.949L212.222 217.854L206.318 223.759L200.414 229.664L194.511 235.569L188.607 241.474L182.703 247.379L176.799 253.284L170.895 259.189L164.991 265.094L159.088 270.999L153.184 276.904L147.28 282.809L141.376 288.714L135.472 294.619L129.569 300.524L123.665 306.429L117.761 312.334L111.857 318.239L105.953 324.144L100.049 330.049L99.9507 330.148C100.168 330.286 100.385 330.444 100.602 330.582L101.432 329.753L107.335 323.848L113.239 317.943L119.143 312.038L125.047 306.133L130.951 300.228L142.739 288.437L148.642 282.532L154.546 276.627L164.083 267.088L166.334 264.837L172.238 258.932L178.142 253.027L184.046 247.122L189.949 241.217L195.853 235.312L201.757 229.407L207.661 223.502L213.565 217.597L219.468 211.692L224.227 206.932C224.089 206.715 223.951 206.498 223.793 206.281L223.852 206.221Z" fill="#9A8CF3"/>
<path d="M226.498 210.566C226.359 210.329 226.241 210.112 226.103 209.875L224.03 211.949L218.126 217.854L212.222 223.759L206.318 229.664L200.414 235.569L194.51 241.474L188.607 247.379L182.703 253.284L176.799 259.189L170.895 265.094L164.991 270.999L159.088 276.904L153.184 282.809L147.28 288.714L141.376 294.619L135.472 300.524L129.568 306.429L123.665 312.334L117.761 318.239L111.857 324.144L105.953 330.049L103.604 332.399C103.84 332.537 104.058 332.676 104.295 332.794L107.355 329.733L113.259 323.828L119.163 317.923L125.067 312.018L130.97 306.113L136.874 300.208L142.778 294.303L148.682 288.398L154.586 282.493L160.489 276.588L166.393 270.683L172.297 264.778L178.201 258.873L184.105 252.968L190.009 247.063L195.912 241.158L201.816 235.253L207.72 229.348L213.624 223.443L219.528 217.538L225.431 211.633L226.498 210.566Z" fill="#9A8CF3"/>
<path d="M216.743 196.722C216.585 196.524 216.408 196.327 216.25 196.129L212.222 200.158L206.318 206.063L200.414 211.968L194.51 217.873L188.606 223.778L182.703 229.683L176.799 235.588L170.895 241.493L164.991 247.398L159.087 253.303L153.184 259.208L147.28 265.113L141.376 271.018L135.472 276.924L129.568 282.829L123.664 288.734L117.761 294.639L111.857 300.544L105.953 306.449L94.1651 318.239L89.8804 322.524C90.0778 322.702 90.2753 322.86 90.4727 323.018L95.567 317.923L101.471 312.018L107.375 306.113L113.278 300.208L119.182 294.303L125.086 288.398L130.99 282.493L136.894 276.588L142.798 270.683L148.701 264.778L154.605 258.873L160.509 252.968L166.413 247.063L172.317 241.158L178.22 235.253L184.124 229.348L190.028 223.443L195.932 217.538L201.836 211.633L207.74 205.728L213.643 199.823L216.763 196.702L216.743 196.722Z" fill="#9A8CF3"/>
<path d="M213.959 193.621C213.781 193.444 213.604 193.246 213.426 193.068L212.222 194.273L206.318 200.178L200.414 206.083L194.51 211.988L188.606 217.893L182.703 223.798L176.799 229.703L170.895 235.608L164.991 241.513L159.087 247.418L153.183 253.323L147.28 259.228L141.376 265.133L135.472 271.038L129.568 276.943L123.664 282.848L117.761 288.753L111.857 294.658L105.953 300.563L100.049 306.468L94.1452 312.373L88.2414 318.278L86.7803 319.74C86.958 319.918 87.1554 320.095 87.3331 320.273L89.6433 317.962L95.5471 312.057L101.451 306.152L107.355 300.247L113.259 294.342L119.162 288.437L125.066 282.532L130.97 276.627L142.324 265.271L142.758 264.837L148.662 258.932L154.566 253.027L160.469 247.122L166.373 241.217L172.277 235.312L178.181 229.407L184.085 223.502L189.988 217.597L195.892 211.692L201.796 205.787L207.7 199.882L213.604 193.977L213.939 193.641L213.959 193.621Z" fill="#9A8CF3"/>
<path d="M219.389 199.961C219.231 199.763 219.073 199.546 218.915 199.349L218.126 200.139L212.222 206.044L206.318 211.949L200.414 217.854L194.51 223.759L188.606 229.664L182.703 235.569L176.799 241.474L170.895 247.379L164.991 253.284L159.087 259.189L153.184 265.094L147.28 270.999L141.376 276.904L135.472 282.809L123.961 294.323L123.664 294.619L117.761 300.524L111.857 306.429L105.953 312.334L100.049 318.239L94.1453 324.144L93.0791 325.21C93.2766 325.368 93.4938 325.526 93.6912 325.684L95.5473 323.828L101.451 317.923L107.355 312.018L113.259 306.113L119.163 300.208L125.066 294.303L130.97 288.398L136.874 282.493L142.778 276.588L148.682 270.683L154.585 264.778L160.489 258.873L166.393 252.968L172.297 247.063L178.201 241.158L184.105 235.253L190.008 229.348L195.912 223.443L201.816 217.538L207.72 211.633L213.624 205.728L219.389 199.961Z" fill="#9A8CF3"/>
<path d="M211.037 190.639C210.859 190.461 210.682 190.284 210.484 190.106L206.338 194.253L200.434 200.158L194.53 206.063L188.626 211.968L182.722 217.873L176.819 223.778L170.915 229.683L165.011 235.588L159.107 241.493L153.203 247.398L147.3 253.303L141.396 259.208L135.492 265.113L126.646 273.961L123.704 276.904L117.8 282.809L111.896 288.714L105.993 294.619L100.089 300.524L94.1849 306.429L88.2811 312.334L83.8779 316.738C84.0556 316.916 84.2333 317.113 84.4111 317.291L89.683 312.018L95.5868 306.113L101.491 300.208L113.279 288.418L119.182 282.513L125.086 276.608L130.99 270.703L136.894 264.797L142.798 258.892L148.701 252.987L154.605 247.082L160.509 241.177L166.413 235.272L172.317 229.367L178.221 223.462L184.124 217.557L190.028 211.652L195.932 205.747L201.836 199.842L207.74 193.937L211.037 190.639Z" fill="#9A8CF3"/>
<path d="M159.166 170.673L153.263 176.578L147.359 182.483L141.455 188.388L135.551 194.293L129.647 200.198L123.743 206.103L117.84 212.008L111.936 217.913L106.032 223.818L100.128 229.723L94.2244 235.628L88.3205 241.533L82.4167 247.438L76.5129 253.343L70.6091 259.248L64.7053 265.153L60.3613 269.498C60.4206 269.814 60.4601 270.13 60.5193 270.426L66.1072 264.837L72.011 258.932L77.9148 253.027L83.8186 247.122L89.7225 241.217L95.6263 235.312L101.53 229.407L107.434 223.502L113.338 217.597L119.242 211.692L125.145 205.787L131.049 199.882L136.953 193.977L142.857 188.072L148.761 182.167L154.664 176.262L160.568 170.357L164.182 166.743C163.866 166.683 163.57 166.644 163.254 166.585L159.166 170.673Z" fill="#9A8CF3"/>
<path d="M153.263 170.673L147.359 176.578L141.455 182.483L135.551 188.388L129.647 194.293L123.744 200.198L117.84 206.103L111.936 212.008L106.032 217.913L100.128 223.818L94.2245 229.723L88.3207 235.628L82.4169 241.533L76.5131 247.438L70.6093 253.343L64.7054 259.248L59.6704 264.284C59.7099 264.62 59.7494 264.936 59.7889 265.252L60.2233 264.817L66.1271 258.912L72.0309 253.007L77.9347 247.102L83.8385 241.197L89.7424 235.292L95.6462 229.387L101.55 223.482L107.454 217.577L113.358 211.672L119.261 205.767L125.165 199.862L131.069 193.957L136.973 188.052L142.877 182.147L148.781 176.242L154.684 170.337L159.048 165.972C158.732 165.933 158.396 165.893 158.081 165.854L153.282 170.653L153.263 170.673Z" fill="#9A8CF3"/>
<path d="M147.378 170.673L141.475 176.578L135.571 182.483L129.667 188.388L123.763 194.293L117.859 200.198L111.955 206.103L106.052 212.008L100.148 217.913L94.2439 223.818L88.3401 229.723L82.4363 235.628L76.5325 241.533L70.6287 247.438L64.7249 253.343L59.2949 258.774C59.2949 259.129 59.3147 259.465 59.3344 259.821L60.2229 258.932L66.1268 253.027L72.0306 247.122L77.9344 241.217L83.8382 235.312L89.742 229.407L95.6459 223.502L101.55 217.597L107.453 211.692L113.357 205.787L119.261 199.882L125.165 193.977L131.069 188.072L136.973 182.167L142.876 176.262L148.78 170.357L153.598 165.538C153.243 165.538 152.907 165.498 152.552 165.498L147.378 170.673Z" fill="#9A8CF3"/>
<path d="M141.475 170.673L135.571 176.578L129.667 182.483L123.763 188.388L117.859 194.293L111.956 200.198L106.052 206.103L100.148 212.008L94.2441 217.913L88.3403 223.818L82.4365 229.723L76.5326 235.628L70.6288 241.533L64.725 247.438L59.2358 252.928C59.2358 253.303 59.2358 253.659 59.2358 254.034L60.2428 253.027L66.1467 247.122L72.0505 241.217L77.9543 235.312L83.8581 229.407L89.7619 223.502L95.6658 217.597L101.57 211.692L107.473 205.787L113.377 199.882L119.281 193.977L125.185 188.072L131.089 182.167L136.992 176.262L142.896 170.357L147.833 165.419C147.457 165.419 147.102 165.419 146.727 165.419L141.494 170.653L141.475 170.673Z" fill="#9A8CF3"/>
<path d="M129.687 170.673L123.783 176.578L117.879 182.483L111.975 188.388L106.071 194.293L100.168 200.198L94.2637 206.103L88.3599 212.008L82.4561 217.913L76.5523 223.818L70.6485 229.723L64.7446 235.628L60.4994 239.874C60.4204 240.308 60.3415 240.743 60.2822 241.177L66.1466 235.312L72.0504 229.407L77.9542 223.502L83.858 217.597L89.7618 211.692L95.6656 205.787L101.569 199.882L107.473 193.977L113.377 188.072L119.281 182.167L125.185 176.262L131.089 170.357L134.978 166.466C134.544 166.525 134.11 166.604 133.675 166.683L129.687 170.673Z" fill="#9A8CF3"/>
<path d="M131.089 341.345L136.992 335.44L142.896 329.535L148.8 323.63L154.704 317.725L160.608 311.82L166.511 305.915L172.415 300.01L178.319 294.105L184.223 288.2L190.127 282.295L196.031 276.39L201.934 270.485L207.838 264.58L213.742 258.675L219.646 252.77L225.55 246.865L231.453 240.96L236.39 236.023C236.331 235.727 236.271 235.43 236.192 235.134L235.936 235.391L230.032 241.296L224.128 247.201L218.224 253.106L212.32 259.011L206.417 264.916L200.513 270.821L194.609 276.726L188.705 282.631L177.194 294.145L176.897 294.441L170.994 300.346L165.09 306.251L159.186 312.156L153.282 318.061L147.378 323.966L141.475 329.871L135.571 335.776L129.667 341.681L129.134 342.214C129.43 342.274 129.726 342.353 130.022 342.412L131.069 341.365L131.089 341.345Z" fill="#9A8CF3"/>
<path d="M131.088 335.46L136.992 329.555L142.896 323.65L148.8 317.745L154.704 311.84L160.608 305.935L166.511 300.03L172.415 294.125L178.319 288.22L184.223 282.315L190.127 276.41L196.03 270.505L201.934 264.6L207.838 258.695L213.742 252.79L219.646 246.885L225.55 240.98L231.453 235.075L235.244 231.283C235.166 231.007 235.087 230.71 235.008 230.434L230.032 235.411L224.128 241.316L218.224 247.221L212.32 253.126L206.416 259.031L200.513 264.936L194.609 270.841L188.705 276.746L182.801 282.651L176.897 288.556L170.994 294.461L165.09 300.366L159.186 306.271L147.398 318.061L141.494 323.966L135.59 329.871L124.454 341.01C124.731 341.089 125.027 341.168 125.303 341.247L131.088 335.46Z" fill="#9A8CF3"/>
<path d="M125.185 335.46L131.089 329.555L136.993 323.65L142.897 317.745L148.8 311.84L154.704 305.935L160.608 300.03L166.512 294.125L172.416 288.22L178.319 282.315L184.223 276.41L193.76 266.871L196.011 264.62L201.915 258.715L207.819 252.81L213.723 246.905L219.626 241L225.53 235.095L231.434 229.19L233.863 226.76C233.764 226.484 233.685 226.208 233.586 225.951L230.012 229.525L224.109 235.43L218.205 241.335L212.301 247.24L206.397 253.145L200.493 259.05L194.589 264.955L188.686 270.86L182.782 276.765L176.878 282.671L170.974 288.576L165.07 294.481L159.167 300.386L153.263 306.291L147.359 312.196L141.455 318.101L135.551 324.006L129.647 329.911L123.744 335.816L119.913 339.647C120.19 339.746 120.466 339.825 120.723 339.923L125.146 335.5L125.185 335.46Z" fill="#9A8CF3"/>
<path d="M119.261 170.396C118.689 170.594 118.136 170.791 117.563 171.008L111.995 176.578L106.091 182.483L100.187 188.388L94.2834 194.293L88.3796 200.198L82.4758 206.103L76.572 212.008L70.6682 217.913L64.8631 223.719C64.6459 224.292 64.4484 224.845 64.251 225.418L66.186 223.482L72.0898 217.577L77.9936 211.672L83.8975 205.767L89.8013 199.862L95.7051 193.957L101.609 188.052L107.513 182.147L113.417 176.242L119.281 170.376L119.261 170.396Z" fill="#9A8CF3"/>
<path d="M113.397 329.555L119.301 323.65L125.205 317.745L131.109 311.84L137.012 305.935L142.916 300.03L148.82 294.125L154.724 288.22L160.628 282.315L166.531 276.41L172.435 270.505L178.339 264.6L184.243 258.695L190.147 252.79L196.051 246.885L201.954 240.98L207.858 235.075L213.762 229.17L219.666 223.265L225.57 217.36L228.709 214.22C228.591 213.983 228.472 213.746 228.334 213.509L224.168 217.676L218.264 223.581L212.36 229.486L206.456 235.391L200.552 241.296L194.649 247.201L188.745 253.106L182.841 259.011L176.937 264.916L171.033 270.821L165.13 276.726L159.226 282.631L147.438 294.421L141.534 300.326L135.63 306.231L124.119 317.745L123.823 318.041L117.919 323.946L112.015 329.851L107.572 334.295C107.809 334.413 108.046 334.552 108.283 334.67L113.417 329.535L113.397 329.555Z" fill="#9A8CF3"/>
<path d="M106.841 175.827L106.091 176.578L100.187 182.483L94.2834 188.388L88.3796 194.293L82.4758 200.198L76.5719 206.103L70.6681 212.008L69.6809 212.995C69.286 213.726 68.9108 214.476 68.5356 215.227L72.07 211.692L77.9739 205.787L83.8777 199.882L89.7815 193.977L95.6853 188.072L101.589 182.167L107.493 176.262L109.073 174.682C108.322 175.057 107.572 175.432 106.841 175.827Z" fill="#9A8CF3"/>
<path d="M101.609 323.67L113.121 312.156L113.417 311.86L119.321 305.955L125.224 300.05L131.128 294.145L137.032 288.24L142.936 282.335L148.84 276.43L154.743 270.525L160.647 264.62L166.551 258.715L172.455 252.81L178.359 246.905L184.263 241L190.166 235.095L196.07 229.19L201.974 223.285L207.878 217.38L213.782 211.475L219.685 205.57L222.075 203.18C221.917 202.963 221.778 202.765 221.62 202.548L218.284 205.886L212.38 211.791L206.476 217.696L200.572 223.601L194.668 229.506L188.764 235.411L182.861 241.316L176.957 247.221L171.053 253.126L165.149 259.031L159.245 264.936L147.457 276.726L141.554 282.631L135.65 288.536L129.746 294.441L123.842 300.346L117.938 306.251L112.035 312.156L106.131 318.061L100.227 323.966L96.6333 327.56C96.8505 327.718 97.0479 327.857 97.2651 328.015L101.629 323.65L101.609 323.67Z" fill="#9A8CF3"/>
<path d="M81.1924 313.519C81.3701 313.716 81.5281 313.894 81.7058 314.092L83.9172 311.88L89.821 305.975L95.7249 300.07L101.629 294.165L107.532 288.26L113.436 282.355L119.34 276.45L125.244 270.545L131.148 264.639L137.052 258.734L142.955 252.829L148.859 246.924L154.763 241.019L160.667 235.114L166.571 229.209L172.474 223.304L178.378 217.399L184.282 211.494L190.186 205.589L196.09 199.684L201.994 193.779L207.897 187.874L208.134 187.637C207.937 187.46 207.759 187.302 207.562 187.124L206.495 188.19L200.592 194.095L194.688 200L188.784 205.905L182.88 211.81L176.976 217.715L171.073 223.62L165.169 229.525L159.265 235.43L153.361 241.335L147.457 247.24L141.554 253.145L135.65 259.05L129.746 264.955L123.842 270.86L117.938 276.766L112.034 282.671L106.131 288.576L100.227 294.481L94.323 300.386L88.4191 306.291L82.5153 312.196L81.1924 313.519Z" fill="#9A8CF3"/>
<path d="M75.9997 306.923C76.1577 307.14 76.2959 307.337 76.4539 307.555L78.0335 305.975L83.9373 300.07L89.8411 294.165L95.7449 288.26L101.649 282.355L107.553 276.45L113.456 270.545L119.36 264.639L125.264 258.734L131.168 252.829L137.072 246.924L142.975 241.019L148.879 235.114L154.783 229.209L160.687 223.304L166.591 217.399L172.495 211.494L178.398 205.589L184.302 199.684L190.206 193.779L196.11 187.874L201.599 182.384C201.382 182.226 201.184 182.068 200.967 181.93L200.592 182.305L194.688 188.21L188.784 194.115L182.881 200.02L176.977 205.925L171.073 211.83L165.169 217.735L159.265 223.64L153.361 229.545L147.458 235.45L141.554 241.355L135.65 247.26L129.746 253.165L123.842 259.07L117.939 264.975L112.035 270.88L106.131 276.785L100.227 282.69L94.3233 288.595L88.4195 294.5L82.5156 300.405L76.6118 306.31L75.98 306.942L75.9997 306.923Z" fill="#9A8CF3"/>
<path d="M78.0332 300.07L89.8211 288.279L95.7249 282.374L101.629 276.469L111.166 266.93L113.417 264.679L119.32 258.774L125.224 252.869L131.128 246.964L137.032 241.059L142.936 235.154L148.84 229.249L154.743 223.344L160.647 217.439L166.551 211.534L172.455 205.629L178.359 199.724L184.262 193.819L190.166 187.914L196.07 182.009L198.084 179.994C197.867 179.856 197.65 179.698 197.433 179.56L194.668 182.325L188.764 188.23L182.861 194.135L176.957 200.04L171.053 205.945L165.149 211.85L159.245 217.755L153.341 223.66L147.438 229.565L141.534 235.47L135.63 241.375L129.726 247.28L123.822 253.185L117.919 259.09L112.015 264.995L106.111 270.9L100.207 276.805L94.3033 282.71L88.3995 288.615L82.4956 294.52L76.5918 300.425L73.5708 303.447C73.709 303.664 73.867 303.881 74.0052 304.098L77.9937 300.109L78.0332 300.07Z" fill="#9A8CF3"/>
<path d="M79.0203 310.892L83.9369 305.975L89.8407 300.07L95.7445 294.165L101.648 288.26L107.552 282.355L113.456 276.45L119.36 270.545L125.264 264.639L131.167 258.734L137.071 252.829L142.975 246.924L148.879 241.019L154.783 235.114L160.687 229.209L166.59 223.304L172.494 217.399L178.398 211.494L184.302 205.589L190.206 199.684L196.109 193.779L202.013 187.874L204.955 184.932C204.758 184.774 204.56 184.616 204.363 184.438L200.631 188.171L194.727 194.076L188.823 199.981L182.92 205.886L177.016 211.791L171.112 217.696L165.208 223.601L159.304 229.506L153.401 235.411L147.497 241.316L141.593 247.221L135.689 253.126L129.785 259.031L123.881 264.936L117.978 270.841L112.074 276.746L106.17 282.651L94.3821 294.441L88.4783 300.346L82.5745 306.251L78.5859 310.24C78.7439 310.438 78.9019 310.635 79.0796 310.853L79.0203 310.892Z" fill="#9A8CF3"/>
<path d="M70.7275 294.5L69.2861 295.942C69.4046 296.179 69.5428 296.416 69.6613 296.653L72.1492 294.165L78.053 288.26L83.9568 282.355L89.8606 276.45L95.7645 270.545L101.668 264.639L107.572 258.734L113.476 252.829L119.38 246.924L125.284 241.019L131.187 235.114L137.091 229.209L142.995 223.304L148.899 217.399L154.803 211.494L160.706 205.589L166.61 199.684L172.514 193.779L178.418 187.874L184.322 181.969L190.226 176.064L190.739 175.551C190.502 175.432 190.265 175.294 190.028 175.176L188.824 176.38L182.92 182.285L177.016 188.19L171.112 194.095L165.208 200L159.305 205.905L153.401 211.81L147.497 217.715L141.593 223.62L135.689 229.525L129.785 235.43L123.882 241.335L117.978 247.24L112.074 253.145L106.17 259.05L100.266 264.955L94.3626 270.86L88.4587 276.766L82.5549 282.671L71.0435 294.184L70.7473 294.481L70.7275 294.5Z" fill="#9A8CF3"/>
<path d="M72.1294 288.279L78.0332 282.374L83.937 276.469L89.8409 270.564L95.7447 264.659L101.649 258.754L107.552 252.849L113.456 246.944L119.36 241.039L125.264 235.134L131.168 229.229L137.071 223.324L142.975 217.419L148.879 211.514L154.783 205.609L160.687 199.704L166.591 193.799L172.494 187.894L178.398 181.989L184.302 176.084L186.77 173.615C186.533 173.497 186.276 173.378 186.02 173.26L182.9 176.38L176.996 182.285L171.092 188.19L165.189 194.095L159.285 200L153.381 205.905L147.477 211.81L141.573 217.715L135.67 223.62L129.766 229.525L123.862 235.43L117.958 241.335L112.054 247.24L106.15 253.145L100.247 259.05L94.3428 264.955L88.439 270.86L82.5351 276.766L76.6313 282.671L70.7275 288.576L67.3511 291.953C67.4695 292.209 67.588 292.446 67.7065 292.703L72.1492 288.26L72.1294 288.279Z" fill="#9A8CF3"/>
<path d="M71.7741 300.445L72.1295 300.089L78.0333 294.184L83.9371 288.279L89.841 282.374L95.7448 276.469L101.649 270.564L107.552 264.659L113.456 258.754L119.36 252.849L125.264 246.944L131.168 241.039L137.071 235.134L142.975 229.229L148.879 223.324L154.783 217.419L160.687 211.514L166.591 205.609L172.494 199.704L178.398 193.799L184.302 187.894L190.206 181.989L194.491 177.703C194.254 177.565 194.036 177.427 193.799 177.308L188.804 182.305L182.9 188.21L176.996 194.115L171.092 200.02L165.189 205.925L159.285 211.83L153.381 217.735L147.477 223.64L141.573 229.545L135.67 235.45L129.766 241.355L123.862 247.26L117.958 253.165L112.054 259.07L106.15 264.975L94.3626 276.766L88.4588 282.671L82.555 288.576L76.6512 294.481L71.3989 299.734C71.5371 299.971 71.6754 300.188 71.7938 300.425L71.7741 300.445Z" fill="#9A8CF3"/>
<path d="M66.2453 229.328L72.1491 223.423L78.0529 217.518L83.9567 211.613L89.8605 205.708L95.7643 199.803L101.668 193.898L107.572 187.993L113.476 182.088L119.38 176.183L125.283 170.278L127.712 167.849C127.238 167.967 126.745 168.086 126.271 168.204L123.882 170.594L117.978 176.499L112.074 182.404L106.17 188.309L100.266 194.214L94.3624 200.119L88.4586 206.024L82.5548 211.929L76.651 217.834L70.7472 223.739L64.8433 229.644L62.2172 232.271C62.0988 232.744 61.9803 233.238 61.8618 233.712L66.265 229.308L66.2453 229.328Z" fill="#9A8CF3"/>
<path d="M66.2453 270.604L72.1492 264.699L78.053 258.794L83.9568 252.889L89.8606 246.984L95.7644 241.079L101.668 235.174L107.572 229.269L113.476 223.364L119.38 217.459L125.284 211.554L131.187 205.649L137.091 199.744L142.995 193.839L148.899 187.934L154.803 182.029L160.706 176.123L166.61 170.218L169.236 167.592C168.94 167.533 168.644 167.454 168.348 167.394L165.208 170.534L159.305 176.439L153.401 182.345L147.497 188.25L141.593 194.155L135.689 200.06L129.785 205.965L123.882 211.87L117.978 217.775L112.074 223.68L106.17 229.585L100.266 235.49L94.3625 241.395L88.4587 247.3L82.5549 253.205L76.6511 259.11L70.7473 265.015L64.8434 270.92L61.4473 274.317C61.5065 274.613 61.5657 274.909 61.6447 275.205L66.2453 270.604Z" fill="#9A8CF3"/>
<path d="M64.2906 284.349L66.2454 282.394L72.1492 276.489L78.053 270.584L83.9568 264.679L89.8606 258.774L95.7645 252.869L101.668 246.964L107.572 241.059L113.476 235.154L119.38 229.249L125.284 223.344L131.187 217.439L137.091 211.534L142.995 205.629L148.899 199.724L154.803 193.819L160.706 187.914L166.61 182.009L172.514 176.104L178.378 170.238C178.102 170.139 177.845 170.041 177.569 169.962L176.996 170.534L171.092 176.439L165.189 182.344L159.285 188.25L153.381 194.155L147.477 200.06L141.573 205.965L135.67 211.87L129.766 217.775L123.862 223.68L117.958 229.585L112.054 235.49L106.15 241.395L100.247 247.3L94.3428 253.205L88.439 259.11L82.5352 265.015L73.6893 273.862L70.7473 276.805L64.8435 282.71L64.0142 283.539C64.1129 283.816 64.2116 284.073 64.2906 284.349Z" fill="#9A8CF3"/>
<path d="M66.2454 276.489L72.1492 270.584L78.0531 264.679L83.9569 258.774L89.8607 252.869L95.7645 246.964L101.668 241.059L107.572 235.154L113.476 229.249L119.38 223.344L125.284 217.439L131.187 211.534L137.091 205.629L142.995 199.724L148.899 193.819L154.803 187.914L160.707 182.009L166.61 176.104L172.514 170.199L173.916 168.797C173.64 168.718 173.343 168.639 173.067 168.56L171.092 170.534L165.189 176.439L159.285 182.344L153.381 188.25L147.477 194.155L141.573 200.06L135.67 205.965L129.766 211.87L123.862 217.775L117.958 223.68L112.054 229.585L106.15 235.49L100.247 241.395L94.3429 247.3L88.439 253.205L82.5352 259.11L76.6314 265.015L70.7276 270.92L64.8238 276.825L62.6123 279.037C62.6913 279.313 62.7703 279.609 62.8492 279.886L66.2257 276.509L66.2454 276.489Z" fill="#9A8CF3"/>
<path d="M65.9097 288.615L66.2453 288.279L72.1492 282.374L78.053 276.469L89.4065 265.113L89.8409 264.679L95.7447 258.774L101.649 252.869L107.552 246.964L113.456 241.059L119.36 235.154L125.264 229.249L131.168 223.344L137.071 217.439L142.975 211.534L148.879 205.629L154.783 199.724L160.687 193.819L166.591 187.914L172.494 182.009L178.398 176.104L182.663 171.838C182.406 171.739 182.15 171.621 181.893 171.522L176.996 176.42L171.092 182.325L165.189 188.23L159.285 194.135L153.381 200.04L147.477 205.945L141.573 211.85L135.67 217.755L129.766 223.66L123.862 229.565L117.958 235.47L112.054 241.375L106.15 247.28L100.247 253.185L94.3428 259.09L88.439 264.995L82.5351 270.9L76.6313 276.805L70.7275 282.71L65.5938 287.845C65.6925 288.102 65.8109 288.358 65.9097 288.615Z" fill="#9A8CF3"/>
<path d="M60.3414 247.003L66.2452 241.098L72.149 235.193L78.0529 229.288L83.9567 223.383L89.8605 217.478L95.7643 211.573L101.668 205.668L107.572 199.763L113.476 193.858L119.38 187.953L125.283 182.048L131.187 176.143L137.091 170.238L141.751 165.577C141.356 165.617 140.961 165.656 140.566 165.676L135.689 170.554L129.785 176.459L123.882 182.364L117.978 188.269L112.074 194.174L106.17 200.079L100.266 205.984L94.3624 211.889L88.4586 217.794L82.5548 223.699L76.651 229.604L70.7471 235.509L64.8433 241.414L59.7096 246.549C59.6701 246.944 59.6306 247.339 59.6108 247.734L60.3612 246.984L60.3414 247.003Z" fill="#9A8CF3"/>
<path d="M256.293 352.03C256.293 355.387 253.588 358.093 250.231 358.093C246.875 358.093 244.169 355.387 244.169 352.03C244.169 348.672 246.875 345.967 250.231 345.967C253.588 345.967 256.293 348.672 256.293 352.03Z" stroke="black" stroke-linecap="round" stroke-linejoin="round"/>
<path d="M915.467 13.1135C918.815 13.1135 921.529 10.399 921.529 7.05047C921.529 3.70196 918.815 0.987457 915.467 0.987457C912.119 0.987457 909.405 3.70196 909.405 7.05047C909.405 10.399 912.119 13.1135 915.467 13.1135Z" stroke="black" stroke-linecap="round" stroke-linejoin="round"/>
<path d="M1033.11 345.967C1033.11 352.662 1027.68 358.093 1020.99 358.093C1014.29 358.093 1008.86 352.662 1008.86 345.967C1008.86 339.272 1014.29 333.841 1020.99 333.841C1027.68 333.841 1033.11 339.272 1033.11 345.967Z" stroke="black" stroke-linecap="round" stroke-linejoin="round"/>
<path d="M398.359 148.988L367.221 111.919H398.359V148.988Z" stroke="#9A8CF3" stroke-linecap="round" stroke-linejoin="round"/>
<path d="M259.551 111.899V14.5354H398.36V89.7009V111.899V111.919H367.221L367.202 111.899H259.551Z" stroke="black" stroke-linecap="round" stroke-linejoin="round"/>
<path d="M364.655 48.9781H285.042" stroke="black" stroke-linecap="round" stroke-linejoin="round"/>
<path d="M364.655 78.1674H304.688" stroke="black" stroke-linecap="round" stroke-linejoin="round"/>
<path d="M740.426 391.429L788.051 334.729H740.426V391.429Z" stroke="#9A8CF3" stroke-linecap="round" stroke-linejoin="round"/>
<path d="M952.707 334.71V185.82H740.426V300.761V334.71V334.729H788.051L788.071 334.71H952.707Z" stroke="black" stroke-linecap="round" stroke-linejoin="round"/>
<path d="M791.961 238.472H913.749" stroke="black" stroke-linecap="round" stroke-linejoin="round"/>
<path d="M791.961 283.125H883.677" stroke="black" stroke-linecap="round" stroke-linejoin="round"/>
<path d="M486.759 289.425L355.137 318.081C352.195 318.713 349.194 317.311 347.773 314.645L287.806 181.021C284.509 174.82 276.808 172.47 270.608 175.748L266.659 177.842L328.916 334.571L329.015 334.749C330.831 338.166 334.76 339.884 338.492 338.897L498.843 297.087C497.56 291.676 492.189 288.279 486.739 289.425H486.759Z" fill="#9A8CF3"/>
<path d="M272.385 521.695C272.385 521.695 261.644 543.913 253.667 548.969L231.769 554.163C221.482 555.387 218.046 562.813 218.046 562.813L275.92 589.593L303.76 535.243L272.405 521.695H272.385Z" fill="black"/>
<path d="M572.275 328.666C572.275 328.666 434.474 333.841 369.828 343.656C351.129 346.5 334.958 358.231 326.27 375.038L250.231 521.992L317.582 557.422L395.575 416.215L537.386 411.988L572.275 328.647V328.666Z" fill="white" stroke="black" stroke-linecap="round" stroke-linejoin="round"/>
<path d="M577.686 295.271C575.889 301.255 573.164 306.962 569.294 311.88C537.03 352.859 470.134 302.775 415.459 303.19C407.917 303.249 401.223 303.387 399.604 305.817C396.879 309.885 393.66 315.75 391.686 315.592C389.415 315.395 392.969 307.416 394.983 301.413C394.983 301.413 388.25 318.022 385.782 317.113C382.801 316.007 390.403 297.087 390.403 297.087C390.403 297.087 380.727 316.461 378.239 313.46C375.752 310.458 386.276 293.217 386.276 293.217C386.276 293.217 376.324 308.581 373.125 307.041C370.539 305.777 378.97 294.086 387.638 284.823C392.772 279.353 399.446 275.581 406.831 274.178C413.88 272.835 424.246 272.006 439.055 273.092C439.055 273.092 494.302 279.254 540.308 286.739L558.138 204.227C560.33 194.076 568.011 185.761 578.14 183.431C586.058 181.614 594.963 182.424 600.807 191.646C604.954 198.203 605.645 206.36 603.315 213.766L577.686 295.31V295.271Z" fill="white" stroke="black" stroke-linecap="round" stroke-linejoin="round"/>
<path d="M403.79 554.499C403.79 554.499 418.934 582.325 418.164 591.746L409.141 612.384C403.928 621.35 407.798 628.539 407.798 628.539L463.993 598.401L437.238 543.281L403.77 554.479L403.79 554.499Z" fill="black"/>
<path d="M586.137 311.188C586.137 311.188 393.621 299.793 338.157 352.03C293.454 394.135 392.041 575.058 392.041 575.058L462.196 545.513L405.172 417.992L568.998 415.859C568.998 415.859 635.599 396.821 618.46 311.188H586.117H586.137Z" fill="white" stroke="black" stroke-linecap="round" stroke-linejoin="round"/>
<path d="M683.026 178.454C683.026 178.454 687.133 157.382 663.38 148.751C642.114 141.029 640.14 119.147 640.14 119.147C640.14 119.147 633.347 102.024 614.175 103.111C595.002 104.177 604.638 71.6897 571.979 65.2317C567.083 64.264 562.561 66.2191 558.612 69.5172C546.488 79.6288 544.514 97.5414 553.162 110.734L597.609 178.434H683.026V178.454Z" fill="black" stroke="black" stroke-linecap="round" stroke-linejoin="round"/>
<path d="M559.678 196.643L538.729 144.406L556.973 118.535L601.953 184.853L559.678 196.643Z" fill="white" stroke="black" stroke-linecap="round" stroke-linejoin="round"/>
<path d="M546.844 161.173L555.966 146.5L542.381 150.331L546.844 161.173Z" fill="black" stroke="black" stroke-linecap="round" stroke-linejoin="round"/>
<path d="M592.435 82.4332C603.67 104.236 584.202 136.645 561.04 148.593C537.879 160.541 519.457 152.76 510.71 129.851C502.555 108.463 506.998 76.548 530.139 64.5997C553.3 52.6514 581.181 60.6301 592.435 82.4332Z" fill="white" stroke="black" stroke-linecap="round" stroke-linejoin="round"/>
<path d="M594.726 88.5555C587.381 65.4884 564.081 54.2314 538.965 61.1831C519.2 66.6536 506.465 85.9684 505.122 105.461C505.399 105.54 521.076 105.046 527.77 87.6668C527.77 87.6668 529.626 115.632 559.125 110.201L572.236 141.029C589.73 132.932 602.881 114.091 594.746 88.5555H594.726Z" fill="black" stroke="black" stroke-linecap="round" stroke-linejoin="round"/>
<path d="M533.575 137.573C533.575 137.573 539.913 137.099 540.92 129.97L533.575 137.573Z" fill="white"/>
<path d="M533.575 137.573C533.575 137.573 539.913 137.099 540.92 129.97" stroke="black" stroke-linecap="round" stroke-linejoin="round"/>
<path d="M562.363 131.234C565.167 130.424 567.813 128.508 569.63 125.684C573.283 120.036 572.256 112.906 567.359 109.727C564.022 107.574 560.547 108.344 557.526 110.833" fill="white"/>
<path d="M562.363 131.234C565.167 130.424 567.813 128.508 569.63 125.684C573.283 120.036 572.256 112.906 567.359 109.727C564.022 107.574 560.547 108.344 557.526 110.833" stroke="black" stroke-linecap="round" stroke-linejoin="round"/>
<path d="M558.612 123.907C558.612 123.907 559.974 118.436 564.792 119.463L558.612 123.907Z" fill="white"/>
<path d="M558.612 123.907C558.612 123.907 559.974 118.436 564.792 119.463" stroke="black" stroke-linecap="round" stroke-linejoin="round"/>
<path d="M575.395 59.9784C575.869 68.3323 583.017 74.7113 591.349 74.2373C599.702 73.7633 606.079 66.6141 605.606 58.2799C605.132 49.926 597.984 43.547 589.651 44.021C581.299 44.495 574.922 51.6442 575.395 59.9784Z" fill="black" stroke="black" stroke-linecap="round" stroke-linejoin="round"/>
<path d="M549.174 180.567L593.739 164.649C593.739 164.649 647.169 253.363 649.084 312.354C649.084 312.354 586.137 311.188 531.936 310.576L549.174 180.547V180.567Z" fill="black"/>
<mask id="mask1_34_966" style="mask-type:luminance" maskUnits="userSpaceOnUse" x="531" y="164" width="119" height="149">
<path d="M549.174 180.567L593.739 164.649C593.739 164.649 647.169 253.363 649.084 312.354C649.084 312.354 586.137 311.188 531.936 310.576L549.174 180.547V180.567Z" fill="white"/>
</mask>
<g mask="url(#mask1_34_966)">
<path d="M560.073 206.577H578.022" stroke="white" stroke-linecap="round" stroke-linejoin="round"/>
<path d="M569.057 188.625L585.781 181.673" stroke="white" stroke-linecap="round" stroke-linejoin="round"/>
<path d="M597.214 186.986V206.577" stroke="white" stroke-linecap="round" stroke-linejoin="round"/>
<path d="M588.645 230.236L600.472 217.992" stroke="white" stroke-linecap="round" stroke-linejoin="round"/>
<path d="M564.97 227.787L562.937 242.481" stroke="white" stroke-linecap="round" stroke-linejoin="round"/>
<path d="M580.075 248.208L597.214 251.467" stroke="white" stroke-linecap="round" stroke-linejoin="round"/>
<path d="M611.49 249.828L622.902 238.413" stroke="white" stroke-linecap="round" stroke-linejoin="round"/>
<path d="M588.645 264.936L600.472 274.317" stroke="white" stroke-linecap="round" stroke-linejoin="round"/>
<path d="M600.472 294.184H618.42" stroke="white" stroke-linecap="round" stroke-linejoin="round"/>
<path d="M609.456 276.213L626.18 269.281" stroke="white" stroke-linecap="round" stroke-linejoin="round"/>
<path d="M637.593 274.593V294.184" stroke="white" stroke-linecap="round" stroke-linejoin="round"/>
<path d="M629.023 317.844L640.871 305.599" stroke="white" stroke-linecap="round" stroke-linejoin="round"/>
<path d="M519.753 256.977H537.702" stroke="white" stroke-linecap="round" stroke-linejoin="round"/>
<path d="M528.718 239.025L545.442 232.073" stroke="white" stroke-linecap="round" stroke-linejoin="round"/>
<path d="M548.305 280.656L560.133 268.412" stroke="white" stroke-linecap="round" stroke-linejoin="round"/>
<path d="M539.735 298.608L556.874 301.867" stroke="white" stroke-linecap="round" stroke-linejoin="round"/>
<path d="M571.15 300.247L582.583 288.813" stroke="white" stroke-linecap="round" stroke-linejoin="round"/>
</g>
<path d="M527.099 320.076C523.505 325.191 519.141 329.772 513.929 333.209C470.43 361.964 422.627 293.434 370.598 276.647C363.411 274.336 357.013 272.361 354.723 274.159C350.853 277.18 345.956 281.742 344.14 280.952C342.047 280.064 347.931 273.586 351.722 268.53C351.722 268.53 340.112 282.177 338.058 280.557C335.57 278.563 348.72 263 348.72 263C348.72 263 333.457 278.345 332.036 274.712C330.614 271.078 346.015 258.004 346.015 258.004C346.015 258.004 331.74 269.458 329.192 266.99C327.119 264.975 338.808 256.523 349.945 250.46C356.54 246.865 364.062 245.384 371.506 246.371C378.615 247.319 388.724 249.768 402.447 255.456C402.447 255.456 452.975 278.661 494.282 300.208L537.129 227.471C542.401 218.505 552.313 213.055 562.66 214.022C570.755 214.773 578.95 218.347 581.595 228.953C583.471 236.477 581.556 244.436 577.034 250.736L527.118 320.095L527.099 320.076Z" fill="white" stroke="black" stroke-linecap="round" stroke-linejoin="round"/>
<path d="M496.02 280.617L545.501 315.592C545.501 315.592 624.462 216.135 587.993 192.12C553.577 169.448 496.02 280.617 496.02 280.617Z" fill="black" stroke="black" stroke-linecap="round" stroke-linejoin="round"/>
<mask id="mask2_34_966" style="mask-type:luminance" maskUnits="userSpaceOnUse" x="496" y="189" width="102" height="127">
<path d="M496.02 280.617L545.501 315.592C545.501 315.592 624.462 216.135 587.993 192.12C553.577 169.448 496.02 280.617 496.02 280.617Z" fill="white"/>
</mask>
<g mask="url(#mask2_34_966)">
<path d="M560.073 206.577H578.022" stroke="white" stroke-linecap="round" stroke-linejoin="round"/>
<path d="M569.057 188.625L585.781 181.673" stroke="white" stroke-linecap="round" stroke-linejoin="round"/>
<path d="M597.214 186.986V206.577" stroke="white" stroke-linecap="round" stroke-linejoin="round"/>
<path d="M588.645 230.236L600.472 217.992" stroke="white" stroke-linecap="round" stroke-linejoin="round"/>
<path d="M564.97 227.787L562.937 242.481" stroke="white" stroke-linecap="round" stroke-linejoin="round"/>
<path d="M580.075 248.208L597.214 251.467" stroke="white" stroke-linecap="round" stroke-linejoin="round"/>
<path d="M588.645 264.936L600.472 274.317" stroke="white" stroke-linecap="round" stroke-linejoin="round"/>
<path d="M519.753 256.977H537.702" stroke="white" stroke-linecap="round" stroke-linejoin="round"/>
<path d="M528.718 239.025L545.442 232.073" stroke="white" stroke-linecap="round" stroke-linejoin="round"/>
<path d="M548.305 280.656L560.133 268.412" stroke="white" stroke-linecap="round" stroke-linejoin="round"/>
<path d="M524.65 278.207L522.597 292.901" stroke="white" stroke-linecap="round" stroke-linejoin="round"/>
<path d="M539.735 298.608L556.874 301.867" stroke="white" stroke-linecap="round" stroke-linejoin="round"/>
<path d="M571.15 300.247L582.583 288.813" stroke="white" stroke-linecap="round" stroke-linejoin="round"/>
<path d="M548.305 315.336L560.133 324.717" stroke="white" stroke-linecap="round" stroke-linejoin="round"/>
</g>
<path d="M176.424 107.258C176.819 114.407 169.394 120.885 162.365 119.522C154.191 117.923 150.222 108.779 143.884 103.387C141.06 100.978 137.269 99.22 133.675 100.168C131.997 100.602 130.516 101.59 129.213 102.696C124.296 106.883 121.493 112.985 118.077 118.476C114.661 123.966 109.882 129.318 103.505 130.365C97.3047 131.372 91.0652 127.876 87.0569 123.018C83.0684 118.16 80.8964 112.097 78.7837 106.172" stroke="black" stroke-linecap="round" stroke-linejoin="round"/>
<path d="M107.473 579.62C94.0465 576.894 82.3771 566.684 77.8949 553.709C73.4128 540.753 76.2956 525.507 85.1809 515.079C88.1427 511.603 92.0325 508.503 96.5739 508.068C101.135 507.634 106.21 510.833 106.427 515.395C106.506 517.173 105.894 518.93 105.005 520.471C98.351 532.202 79.0796 530.168 70.8064 519.523C62.5529 508.878 62.7701 493.948 65.3172 480.716C73.1363 440.388 100.049 404.187 136.439 385.11" stroke="black" stroke-linecap="round" stroke-linejoin="round"/>
<path d="M105.203 379.244C111.067 380.212 136.459 385.11 136.459 385.11V419.315" stroke="black" stroke-linecap="round" stroke-linejoin="round"/>
<path d="M866.538 410.408C889.443 457.491 949.705 482.513 999.206 465.509C1006.69 462.941 1014.07 459.406 1019.39 453.56C1024.7 447.715 1027.56 439.144 1024.97 431.659C1021.2 420.737 1006.55 416.313 996.047 421.093C985.523 425.892 979.343 437.445 978.059 448.939C975.157 475.146 994.882 499.932 1019.15 510.181C1043.42 520.431 1071.04 518.93 1097 514.408" stroke="black" stroke-linecap="round" stroke-linejoin="round"/>
<path d="M1062.37 494.52L1097.02 514.428L1072.13 544.98" stroke="black" stroke-linecap="round" stroke-linejoin="round"/>
<path d="M881.564 741.089C919.396 716.047 940.958 668.491 934.857 623.522" stroke="black" stroke-linecap="round" stroke-linejoin="round"/>
<path d="M921.213 641.514L934.857 623.522L949.705 640.368" stroke="black" stroke-linecap="round" stroke-linejoin="round"/>
<path d="M680.341 98.5486C687.647 110.734 705.812 112.353 718.252 105.481C730.691 98.6078 738.49 85.7313 744.908 73.0523C754.958 53.1846 726.011 60.7881 737.661 88.8715C742.459 100.445 751.088 112.334 763.567 113.42C781.338 114.96 792.079 95.2307 802.504 80.7545C809.632 70.8602 818.261 50.9135 829.773 48.978C847.168 46.0552 847.78 71.3144 849.656 78.2464C851.532 85.1784 856.053 92.5053 863.181 93.3545C871.771 94.3617 877.951 85.8893 884.151 79.8658C897.973 66.4561 920.62 63.2172 937.641 72.2031" stroke="black" stroke-linecap="round" stroke-linejoin="round"/>
</svg>
