<svg width="622" height="621" viewBox="0 0 622 621" fill="none" xmlns="http://www.w3.org/2000/svg">
<g clip-path="url(#clip0_46_741)">
<path d="M252.955 45.1973H231.864C231.864 45.1973 224.462 98.4947 204.371 120.925C185.335 142.175 149.701 136.345 149.701 136.345C149.701 136.345 149.688 136.389 149.671 136.457C135.889 132.701 120.17 133.525 109.455 136.352C92.6539 140.787 80.5172 148.507 80.5172 148.507C80.5172 148.507 54.5917 164.898 55.2091 196.175C55.6874 220.445 73.8925 249.337 73.75 251.407C72.149 274.57 70.358 273.78 72.7765 282.032C78.6414 302.067 161.709 293.804 163.188 284.622C164.528 276.291 160.668 262.361 162.605 243.629C165.661 214.096 171.729 203.583 178.636 185.37C216.779 182.272 241.429 160.713 249.099 126.087C257.012 90.364 252.959 45.1939 252.959 45.1939L252.955 45.1973Z" fill="white"/>
<path d="M113.488 295.141C93.6309 295.141 74.8491 291.799 72.0507 282.243C70.4598 276.803 70.6599 275.052 71.4062 268.523C71.837 264.777 72.4238 259.646 72.9971 251.352C72.9428 250.911 71.7488 248.529 70.4836 246.008C65.3989 235.871 54.8191 214.778 54.4561 196.188C53.8388 164.847 79.8524 148.032 80.117 147.866C80.2357 147.788 92.5421 140.034 109.265 135.619C119.058 133.033 134.722 131.693 149.484 135.619C149.593 135.585 149.708 135.575 149.827 135.595C150.18 135.653 185.281 141.106 203.815 120.416C223.526 98.4132 231.05 45.6181 231.121 45.0887C231.172 44.7154 231.491 44.4371 231.867 44.4371H252.959C253.349 44.4371 253.675 44.7358 253.708 45.1226C253.749 45.5739 257.684 90.8187 249.835 126.246C241.996 161.623 216.912 182.856 179.172 186.079C178.022 189.096 176.896 191.903 175.807 194.624C170.474 207.937 165.865 219.43 163.354 243.703C162.262 254.264 163.032 263.362 163.65 270.671C164.138 276.467 164.525 281.042 163.931 284.737C163.025 290.37 140.495 293.811 125.57 294.751C121.585 295.002 117.514 295.138 113.491 295.138L113.488 295.141ZM129.671 134.696C121.856 134.696 114.733 135.734 109.645 137.078C93.1594 141.429 81.0396 149.064 80.9209 149.142C80.6631 149.305 55.3618 165.688 55.9622 196.158C56.3218 214.404 66.7964 235.295 71.8302 245.332C73.896 249.449 74.5472 250.782 74.4998 251.457C73.9231 259.785 73.3329 264.936 72.9055 268.696C72.166 275.144 71.993 276.674 73.4991 281.819C76.6164 292.467 103.447 294.632 125.475 293.248C146.964 291.897 161.937 287.635 162.442 284.499C163.005 280.987 162.608 276.267 162.147 270.8C161.523 263.426 160.749 254.254 161.855 243.547C164.389 219.067 169.029 207.478 174.406 194.064C175.545 191.217 176.726 188.275 177.93 185.102C178.032 184.831 178.283 184.641 178.575 184.617C215.863 181.59 240.649 160.744 248.363 125.92C255.632 93.1093 252.721 51.7568 252.263 45.9438H232.515C231.579 52.1199 223.743 100.422 204.934 121.421C186.922 141.527 153.948 137.686 149.973 137.139C149.82 137.207 149.647 137.224 149.471 137.177C142.904 135.385 136.059 134.693 129.671 134.693V134.696Z" fill="black"/>
<path d="M515.904 584.134H147.711C136.276 584.134 127.565 573.665 129.394 562.127L208.581 62.6362C210.036 53.4501 217.797 46.7006 226.898 46.7006H595.091C606.526 46.7006 615.237 57.1693 613.409 68.707L534.221 568.195C532.766 577.381 525.005 584.13 515.904 584.13V584.134Z" fill="white"/>
<path d="M515.904 584.887H147.711C142.131 584.887 136.825 582.423 133.159 578.127C129.373 573.692 127.728 567.815 128.651 562.008L207.835 62.5174C209.358 52.9139 217.373 45.9438 226.895 45.9438H595.088C600.668 45.9438 605.973 48.4075 609.64 52.7036C613.425 57.1388 615.07 63.0162 614.148 68.8224L534.96 568.31C533.437 577.913 525.422 584.884 515.9 584.884L515.904 584.887ZM226.898 47.4539C218.123 47.4539 210.731 53.8879 209.327 62.7549L130.14 562.243C129.288 567.614 130.808 573.047 134.305 577.147C137.687 581.107 142.572 583.377 147.711 583.377H515.904C524.679 583.377 532.07 576.943 533.475 568.076L612.662 68.5883C613.513 63.2164 611.994 57.7835 608.497 53.6843C605.115 49.7241 600.23 47.4539 595.091 47.4539H226.898Z" fill="black"/>
<path d="M504.204 582.834H136.011C124.576 582.834 115.865 572.382 117.693 560.865L196.877 62.2425C198.333 53.0734 206.094 46.3341 215.194 46.3341H583.388C594.822 46.3341 603.533 56.7859 601.705 68.3032L522.518 566.925C521.062 576.095 513.301 582.834 504.2 582.834H504.204Z" fill="white"/>
<path d="M504.204 583.591H136.011C130.421 583.591 125.116 581.127 121.445 576.828C117.667 572.402 116.028 566.542 116.948 560.749L196.135 62.1238C197.658 52.5373 205.673 45.5807 215.195 45.5807H583.388C588.978 45.5807 594.287 48.0444 597.954 52.3438C601.732 56.7689 603.371 62.6294 602.451 68.422L523.264 567.044C521.741 576.631 513.726 583.587 504.204 583.587V583.591ZM215.195 47.0874C206.42 47.0874 199.028 53.5112 197.624 62.3613L118.437 560.984C117.585 566.338 119.101 571.754 122.592 575.847C125.974 579.81 130.865 582.081 136.011 582.081H504.204C512.979 582.081 520.371 575.657 521.775 566.807L600.962 68.1844C601.814 62.8296 600.298 57.4137 596.807 53.3212C593.425 49.3576 588.534 47.0874 583.388 47.0874H215.195Z" fill="black"/>
<path d="M444.002 92.641H337.272C320.213 92.641 307.252 77.0074 310.095 59.8603L312.588 44.8308C312.842 43.3071 314.138 42.1907 315.654 42.1907H480.05C481.973 42.1907 483.438 43.9553 483.116 45.8895L480.589 61.1193C477.57 79.3217 462.106 92.6444 443.999 92.6444L444.002 92.641Z" fill="white"/>
<path d="M444.003 93.3943H337.272C329.036 93.3943 321.224 89.7532 315.841 83.4007C310.305 76.8683 307.941 68.2421 309.352 59.7382L311.845 44.7086C312.16 42.8117 313.761 41.4373 315.654 41.4373H480.05C481.176 41.4373 482.244 41.9328 482.977 42.8015C483.73 43.6872 484.049 44.8579 483.859 46.0151L481.332 61.2449C478.242 79.8749 462.54 93.3977 443.999 93.3977L444.003 93.3943ZM315.654 42.944C314.501 42.944 313.524 43.789 313.331 44.9563L310.837 59.9859C309.498 68.0555 311.74 76.2337 316.991 82.4267C322.086 88.4399 329.477 91.8876 337.272 91.8876H444.003C461.804 91.8876 476.882 78.8942 479.85 60.9937L482.377 45.764C482.495 45.048 482.295 44.3218 481.831 43.7754C481.383 43.246 480.735 42.944 480.053 42.944H315.658H315.654Z" fill="black"/>
<path d="M372.156 75.0867H417.732C419.462 75.0867 420.934 73.9431 421.212 72.1955L427.457 31.5726C429.96 15.4028 417.752 0.753345 401.755 0.753345C388.961 0.753345 378.065 10.2346 376.057 23.167L368.673 71.0519C368.323 73.2475 369.979 75.0867 372.153 75.0867H372.156ZM390.802 25.7868L390.853 25.4814C391.715 20.2419 396.145 16.4039 401.338 16.4039C407.915 16.4039 412.912 22.451 411.823 29.0886L411.772 29.394C410.91 34.6335 406.48 38.4715 401.287 38.4715C394.713 38.4715 389.714 32.4243 390.802 25.7868Z" fill="white"/>
<path d="M417.735 75.84H372.159C370.881 75.84 369.683 75.2971 368.876 74.3503C368.082 73.4205 367.739 72.1751 367.936 70.9331L375.317 23.0517C377.393 9.69507 388.512 0 401.762 0C409.472 0 416.809 3.40362 421.89 9.33536C427.151 15.4775 429.454 23.6251 428.206 31.6846L421.961 72.3075C421.632 74.3877 419.896 75.8367 417.735 75.8367V75.84ZM401.758 1.50669C389.259 1.50669 378.764 10.6656 376.803 23.2824L369.419 71.1639C369.29 71.9851 369.5 72.7656 370.016 73.3696C370.538 73.9804 371.315 74.33 372.153 74.33H417.728C419.129 74.33 420.255 73.4036 420.462 72.0767L426.707 31.4572C427.887 23.8321 425.713 16.1256 420.737 10.3195C415.94 4.72028 409.021 1.51008 401.752 1.51008L401.758 1.50669ZM401.287 39.2248C397.983 39.2248 394.849 37.7622 392.688 35.2138C390.453 32.5804 389.496 29.1022 390.059 25.6646L390.11 25.3592C391.033 19.7329 395.754 15.6506 401.338 15.6506C404.638 15.6506 407.776 17.1131 409.937 19.6616C412.172 22.2949 413.129 25.7732 412.565 29.2108L412.518 29.5128C411.595 35.1391 406.87 39.2248 401.29 39.2248H401.287ZM391.545 25.9089C391.053 28.9087 391.888 31.9425 393.835 34.2364C395.71 36.4456 398.427 37.7147 401.283 37.7147C406.124 37.7147 410.222 34.1618 411.025 29.2684L411.073 28.9664C411.565 25.9666 410.73 22.9295 408.783 20.6355C406.907 18.4264 404.19 17.1572 401.334 17.1572C396.494 17.1572 392.396 20.7102 391.592 25.6035L391.542 25.9089H391.545Z" fill="black"/>
<rect x="212.297" y="332.224" width="29" height="63" transform="rotate(3.21672 212.297 332.224)" fill="#9A8CF3"/>
<rect x="253.794" y="312" width="29" height="85.4377" transform="rotate(3.21672 253.794 312)" fill="#9A8CF3"/>
<rect x="295.188" y="271" width="29" height="128.099" transform="rotate(3.21672 295.188 271)" fill="#9A8CF3"/>
<rect x="340.022" y="232.407" width="29" height="160.783" transform="rotate(3.21672 340.022 232.407)" fill="#9A8CF3"/>
<rect x="384.351" y="194.544" width="29" height="184.456" transform="rotate(3.21672 384.351 194.544)" fill="#9A8CF3"/>
<path d="M204.961 446.743C199.3 446.743 194.693 442.054 194.693 436.291C194.693 430.529 199.3 425.84 204.961 425.84C210.622 425.84 215.229 430.529 215.229 436.291C215.229 442.054 210.622 446.743 204.961 446.743ZM204.961 427.346C200.131 427.346 196.199 431.357 196.199 436.291C196.199 441.226 200.131 445.237 204.961 445.237C209.791 445.237 213.723 441.226 213.723 436.291C213.723 431.357 209.791 427.346 204.961 427.346Z" fill="black"/>
<path d="M196.83 486.715C191.169 486.715 186.562 482.025 186.562 476.263C186.562 470.501 191.169 465.811 196.83 465.811C202.492 465.811 207.098 470.501 207.098 476.263C207.098 482.025 202.492 486.715 196.83 486.715ZM196.83 467.318C192 467.318 188.069 471.329 188.069 476.263C188.069 481.197 192 485.208 196.83 485.208C201.661 485.208 205.592 481.197 205.592 476.263C205.592 471.329 201.661 467.318 196.83 467.318Z" fill="black"/>
<path d="M189.659 528.634C183.998 528.634 179.392 523.944 179.392 518.182C179.392 512.42 183.998 507.73 189.659 507.73C195.321 507.73 199.927 512.42 199.927 518.182C199.927 523.944 195.321 528.634 189.659 528.634ZM189.659 509.237C184.829 509.237 180.898 513.248 180.898 518.182C180.898 523.116 184.829 527.127 189.659 527.127C194.49 527.127 198.421 523.116 198.421 518.182C198.421 513.248 194.49 509.237 189.659 509.237Z" fill="black"/>
<path d="M334.544 437.045H232.694C232.277 437.045 231.941 436.709 231.941 436.291C231.941 435.874 232.277 435.538 232.694 435.538H334.544C334.961 435.538 335.297 435.877 335.297 436.291C335.297 436.705 334.958 437.045 334.544 437.045Z" fill="black"/>
<path d="M328.167 476.69H317.567C317.149 476.69 316.813 476.355 316.813 475.937C316.813 475.52 317.149 475.184 317.567 475.184H328.167C328.584 475.184 328.92 475.523 328.92 475.937C328.92 476.351 328.584 476.69 328.167 476.69Z" fill="white"/>
<path d="M298.202 476.69H226.317C225.9 476.69 225.564 476.355 225.564 475.937C225.564 475.52 225.9 475.184 226.317 475.184H298.202C298.619 475.184 298.955 475.523 298.955 475.937C298.955 476.351 298.616 476.69 298.202 476.69Z" fill="black"/>
<path d="M319.88 517.636H218.03C217.613 517.636 217.277 517.296 217.277 516.882C217.277 516.468 217.613 516.129 218.03 516.129H319.88C320.297 516.129 320.633 516.465 320.633 516.882C320.633 517.3 320.294 517.636 319.88 517.636Z" fill="black"/>
<path d="M211.965 253.229C211.965 253.229 227.195 253.005 235.153 249.547C243.111 246.092 242.989 252.085 240.736 254.193C238.911 255.903 227.914 262.035 218.054 262.751L211.965 253.225V253.229Z" fill="white"/>
<path d="M218.057 263.504C217.803 263.504 217.562 263.375 217.423 263.158L211.334 253.633C211.185 253.402 211.175 253.11 211.303 252.869C211.432 252.628 211.683 252.476 211.955 252.472C212.104 252.472 227.127 252.207 234.854 248.855C239.749 246.73 241.611 248.135 242.286 249.164C243.392 250.847 242.629 253.456 241.255 254.746C239.149 256.717 227.918 262.795 218.115 263.504C218.098 263.504 218.077 263.504 218.06 263.504H218.057ZM213.318 253.945L218.447 261.964C228.108 261.105 238.701 255.068 240.224 253.643C241.14 252.784 241.689 251.003 241.025 249.992C240.319 248.916 238.291 249.007 235.455 250.239C228.752 253.151 217.25 253.806 213.318 253.945Z" fill="black"/>
<path d="M189.75 247.518L197.304 232.59L204.312 236.665C204.699 236.889 205.028 237.205 205.272 237.578L205.713 238.26C206.266 239.116 207.239 239.611 208.247 239.55C208.793 239.516 209.339 239.645 209.817 239.923L261.926 270.166C262.357 270.413 262.75 270.719 263.103 271.072L273.866 281.897L259.504 279.392C258.721 279.257 257.957 279.019 257.235 278.683L202.725 253.507C202.26 253.293 201.86 252.954 201.571 252.53L201.5 252.425C200.944 251.61 200.001 251.142 199.031 251.193L198.539 251.22C198.088 251.244 197.637 251.155 197.223 250.965L189.753 247.518H189.75Z" fill="white"/>
<path d="M273.863 282.653C273.819 282.653 273.775 282.65 273.734 282.643L259.372 280.139C258.528 279.99 257.7 279.732 256.916 279.372L202.406 254.196C201.816 253.925 201.314 253.497 200.944 252.961L200.873 252.852C200.466 252.258 199.781 251.912 199.065 251.95L198.573 251.977C198.003 252.007 197.427 251.895 196.901 251.654L189.431 248.207C189.245 248.122 189.102 247.962 189.035 247.769C188.967 247.575 188.98 247.362 189.075 247.182L196.629 232.254C196.724 232.067 196.891 231.932 197.087 231.871C197.284 231.813 197.501 231.837 197.681 231.942L204.689 236.017C205.177 236.299 205.595 236.699 205.9 237.174L206.341 237.857C206.748 238.488 207.464 238.847 208.193 238.803C208.892 238.759 209.58 238.925 210.191 239.278L262.299 269.521C262.785 269.802 263.236 270.149 263.633 270.549L274.396 281.374C274.626 281.608 274.68 281.965 274.528 282.253C274.396 282.504 274.138 282.66 273.86 282.66L273.863 282.653ZM199.17 250.439C200.334 250.439 201.449 251.027 202.118 252.004L202.189 252.109C202.403 252.421 202.694 252.669 203.037 252.825L257.547 278.001C258.212 278.306 258.914 278.527 259.63 278.653L271.655 280.75L262.564 271.608C262.259 271.302 261.916 271.038 261.543 270.82L209.434 240.578C209.082 240.374 208.685 240.279 208.288 240.303C207.002 240.385 205.778 239.757 205.076 238.671L204.635 237.989C204.458 237.714 204.214 237.483 203.929 237.317L197.613 233.645L190.771 247.161L197.528 250.283C197.83 250.422 198.159 250.487 198.488 250.47L198.98 250.443C199.041 250.443 199.106 250.439 199.167 250.439H199.17Z" fill="black"/>
<path d="M260.444 275.928C260.342 275.928 260.241 275.907 260.142 275.863C259.762 275.697 259.589 275.249 259.756 274.869L261.743 270.356C261.91 269.975 262.357 269.802 262.737 269.969C263.117 270.135 263.29 270.583 263.124 270.963L261.136 275.476C261.011 275.758 260.736 275.928 260.448 275.928H260.444Z" fill="black"/>
<path d="M185.188 225.996L196.531 232.115C197.111 232.427 197.335 233.153 197.03 233.74L190.374 246.513C190.062 247.11 189.326 247.338 188.736 247.019L177.417 240.914C175.148 239.689 174.249 236.886 175.416 234.65L178.97 227.829C180.134 225.593 182.919 224.775 185.191 226L185.188 225.996Z" fill="black"/>
<path d="M189.3 247.918C188.981 247.918 188.662 247.84 188.374 247.684L177.054 241.579C174.426 240.161 173.391 236.896 174.741 234.304L178.296 227.483C178.944 226.241 180.043 225.328 181.386 224.914C182.77 224.49 184.246 224.639 185.541 225.338L196.884 231.457C197.824 231.962 198.187 233.146 197.692 234.093L191.036 246.866C190.792 247.334 190.378 247.681 189.873 247.833C189.683 247.891 189.49 247.922 189.296 247.922L189.3 247.918ZM182.96 226.18C182.58 226.18 182.203 226.237 181.834 226.349C180.877 226.645 180.097 227.289 179.636 228.175L176.081 234.996C175.107 236.866 175.867 239.221 177.773 240.249L189.093 246.354C189.201 246.411 189.32 246.425 189.439 246.388C189.554 246.35 189.649 246.272 189.707 246.164L196.362 233.391C196.477 233.17 196.392 232.895 196.175 232.78L184.832 226.662C184.242 226.343 183.601 226.183 182.96 226.183V226.18Z" fill="black"/>
<path d="M201.755 249.74C201.636 249.74 201.514 249.713 201.399 249.652C201.033 249.455 200.894 248.997 201.09 248.631L204.849 241.61C205.045 241.243 205.5 241.104 205.87 241.301C206.236 241.498 206.375 241.956 206.178 242.322L202.42 249.343C202.284 249.598 202.023 249.74 201.755 249.74Z" fill="black"/>
<path d="M226.201 255.102C226.076 255.102 225.95 255.071 225.832 255.007L210.296 246.282C209.933 246.079 209.804 245.617 210.008 245.254C210.211 244.891 210.669 244.762 211.035 244.966L226.571 253.69C226.934 253.894 227.063 254.355 226.859 254.719C226.72 254.966 226.466 255.102 226.201 255.102Z" fill="black"/>
<path d="M256.954 273.053C256.828 273.053 256.703 273.023 256.588 272.958L250.519 269.582C250.156 269.378 250.024 268.92 250.228 268.557C250.431 268.194 250.889 268.062 251.252 268.265L257.32 271.642C257.683 271.845 257.816 272.303 257.612 272.667C257.473 272.914 257.219 273.053 256.954 273.053Z" fill="black"/>
<path d="M188.177 242.597C188.055 242.597 187.93 242.567 187.814 242.506L179.148 237.751C178.781 237.551 178.649 237.093 178.849 236.727C179.049 236.36 179.507 236.228 179.874 236.428L188.54 241.182C188.907 241.382 189.039 241.84 188.839 242.207C188.703 242.458 188.442 242.597 188.177 242.597Z" fill="white"/>
<path d="M184.5 259.195C184.5 259.195 197.977 261.108 207.067 254.084C214.798 248.108 230.455 265.211 231.802 267.383C233.708 270.457 229.512 275.286 224.669 272.551C224.669 272.551 223.386 280.173 212.932 281.452C202.478 282.731 198.017 275.88 195.212 274.859C192.407 273.837 184.371 273.78 184.371 273.78L184.5 259.195Z" fill="white"/>
<path d="M210.367 282.365C203.939 282.365 200.039 279.301 197.352 277.19C196.395 276.44 195.571 275.788 194.95 275.564C192.298 274.597 184.442 274.533 184.364 274.533C184.164 274.533 183.974 274.451 183.831 274.309C183.692 274.166 183.614 273.973 183.614 273.773L183.743 259.188C183.743 258.971 183.842 258.764 184.004 258.624C184.167 258.482 184.384 258.417 184.601 258.448C184.734 258.465 197.878 260.23 206.602 253.487C208.237 252.221 210.283 251.8 212.684 252.235C221.035 253.745 231.368 265.262 232.436 266.986C233.457 268.632 233.118 270.804 231.591 272.392C230.302 273.735 227.904 274.767 225.14 273.623C224.38 275.816 221.659 281.143 213.017 282.202C212.087 282.314 211.205 282.368 210.364 282.368L210.367 282.365ZM185.131 273.033C187.227 273.074 193.065 273.267 195.469 274.146C196.314 274.455 197.182 275.137 198.285 276.002C201.127 278.235 205.418 281.608 212.837 280.699C222.569 279.508 223.871 272.707 223.922 272.419C223.963 272.178 224.122 271.971 224.343 271.866C224.566 271.76 224.824 271.771 225.035 271.889C227.399 273.226 229.41 272.483 230.506 271.343C231.371 270.44 231.907 268.991 231.157 267.777C230.258 266.328 220.235 255.129 212.42 253.714C210.432 253.354 208.827 253.67 207.525 254.674C199.509 260.867 188.407 260.335 185.246 260.033L185.131 273.03V273.033Z" fill="black"/>
<path d="M92.9317 150.777C92.9317 150.777 74.4722 158.548 64.7269 190.179C59.3471 207.635 60.3341 232.529 86.8634 265.622C92.1685 272.239 99.6209 278.822 108.037 279.776L188.662 280.56L188.303 254.739C188.303 254.739 125.777 246.612 116.378 243.076C108.053 239.944 95.9981 199.171 94.7431 179.167L92.9317 150.781V150.777Z" fill="white"/>
<path d="M188.659 281.31H188.652L108.026 280.526C107.999 280.526 107.975 280.526 107.948 280.522C98.7625 279.484 91.0897 272.103 86.273 266.093C83.4135 262.527 80.6592 258.916 78.0812 255.357C77.837 255.021 77.9116 254.549 78.2474 254.305C78.5832 254.06 79.0547 254.135 79.299 254.474C81.8634 258.014 84.6041 261.607 87.4467 265.153C92.0802 270.932 99.4172 278.028 108.077 279.026L187.892 279.803L187.553 255.407C180.524 254.488 125.075 247.161 116.109 243.788C108.623 240.972 99.7734 212.674 96.1473 194.437C96.0659 194.03 96.3304 193.633 96.7409 193.552C97.1479 193.47 97.5448 193.735 97.6262 194.146C101.798 215.148 110.635 240.12 116.639 242.38C125.848 245.845 187.77 253.921 188.394 253.999C188.767 254.047 189.045 254.362 189.052 254.736L189.412 280.556C189.412 280.76 189.334 280.957 189.191 281.099C189.049 281.242 188.859 281.32 188.659 281.32V281.31Z" fill="black"/>
<path d="M257.198 48.1394C258.138 50.586 259.977 57.1693 256.944 61.5808C254.227 65.5376 248.549 65.697 245.326 62.1441C243.637 60.2811 242.816 57.2372 241.551 52.9411C240.93 50.8304 240.004 49.3746 238.983 48.0647C238.315 47.2096 237.294 46.7107 236.208 46.7073L226.619 46.6598C226.619 46.6598 226.694 42.9237 229.485 41.4271C231.928 40.1173 238.247 41.1964 238.742 40.4532C244.268 32.1427 253.423 38.2984 257.198 48.1428V48.1394Z" fill="white"/>
<path d="M251.001 65.4357C248.641 65.4357 246.395 64.4381 244.77 62.6497C243.064 60.7698 242.223 57.8989 241.056 53.9184L240.829 53.1515C240.205 51.0306 239.245 49.6257 238.39 48.5262C237.864 47.8509 237.067 47.4607 236.205 47.4573L226.616 47.4098C226.416 47.4098 226.222 47.3283 226.08 47.1824C225.938 47.0365 225.863 46.8431 225.866 46.6395C225.87 46.4698 225.985 42.4418 229.129 40.7552C230.697 39.9137 233.461 39.9476 235.68 39.9748C236.633 39.9849 237.806 40.0019 238.2 39.9001C240.757 36.1402 243.763 35.6176 245.845 35.8483C250.499 36.3641 255.343 41.193 257.901 47.8645C258.461 49.3271 261.083 56.8843 257.565 62.0016C256.188 64.0037 254.003 65.2491 251.568 65.412C251.378 65.4256 251.188 65.4324 250.998 65.4324L251.001 65.4357ZM227.461 45.9065L236.212 45.9506C237.538 45.9574 238.766 46.558 239.577 47.5998C240.52 48.8079 241.578 50.3655 242.274 52.7273L242.501 53.4976C243.61 57.2813 244.414 60.0164 245.886 61.6385C247.328 63.23 249.363 64.058 251.469 63.9155C253.444 63.7831 255.211 62.7753 256.327 61.1532C259.414 56.6569 257.012 49.7479 256.497 48.4109C254.173 42.3468 249.726 37.7996 245.683 37.3516C243.23 37.0801 241.103 38.2611 239.373 40.8672C238.953 41.5018 237.993 41.5154 235.666 41.4848C233.726 41.4611 231.073 41.4271 229.845 42.0855C228.193 42.9712 227.644 44.8477 227.464 45.9031L227.461 45.9065Z" fill="black"/>
<path d="M100.262 526.123L94.3838 554.346L109.77 558.703L118.277 531.226L100.262 526.123Z" fill="white"/>
<path d="M109.77 559.457C109.703 559.457 109.635 559.446 109.563 559.429L94.1805 555.072C93.8006 554.964 93.5666 554.58 93.648 554.193L99.523 525.973C99.5671 525.77 99.6926 525.59 99.869 525.481C100.049 525.373 100.262 525.342 100.466 525.4L118.481 530.504C118.678 530.558 118.841 530.69 118.939 530.87C119.037 531.05 119.058 531.26 118.997 531.454L110.49 558.931C110.391 559.253 110.093 559.463 109.77 559.463V559.457ZM95.266 553.81L109.268 557.777L117.331 531.742L100.836 527.069L95.266 553.81Z" fill="black"/>
<path d="M89.2955 578.131C89.4685 580.845 92.7893 583.024 95.4725 583.431C104.804 584.843 126.734 584.246 132.69 584.66C140.421 585.196 154.938 584.619 155.502 579.685C156.187 573.665 149.705 564.886 134.193 560.078C126.17 557.59 117.687 545.269 113.932 545.048C110.177 544.827 103.532 554.56 103.532 554.56L92.8402 550.922C92.8402 550.922 88.4136 564.36 89.2921 578.134L89.2955 578.131Z" fill="white"/>
<path d="M137.558 585.545C134.725 585.545 132.707 585.413 132.639 585.41C130.604 585.27 126.605 585.247 121.971 585.223C112.86 585.172 101.521 585.111 95.3607 584.178C92.223 583.703 88.736 581.181 88.546 578.182C87.6641 564.425 92.0839 550.824 92.128 550.688C92.1925 550.498 92.3282 550.338 92.5079 550.25C92.6877 550.158 92.8946 550.145 93.088 550.209L103.24 553.664C104.75 551.526 110.286 544.081 113.98 544.295C115.933 544.41 118.542 546.911 121.849 550.08C125.547 553.623 130.15 558.035 134.42 559.358C150.454 564.33 156.977 573.424 156.255 579.77C155.681 584.795 144.311 585.549 137.561 585.549L137.558 585.545ZM93.3356 551.882C92.4537 554.848 89.3025 566.416 90.0487 578.08C90.1912 580.319 93.0812 582.305 95.5845 582.681C101.639 583.597 112.918 583.659 121.978 583.709C126.635 583.737 130.662 583.757 132.741 583.903C141.353 584.497 154.304 583.54 154.752 579.593C155.427 573.661 148.507 565.3 133.969 560.794C129.356 559.365 124.614 554.818 120.801 551.163C117.965 548.445 115.286 545.876 113.885 545.795C111.453 545.652 106.629 551.353 104.149 554.981C103.96 555.259 103.607 555.378 103.284 555.269L93.3288 551.879L93.3356 551.882Z" fill="black"/>
<path d="M141.587 578.205C139.545 578.205 137.303 578.09 134.929 577.964C131.411 577.781 127.772 577.591 124.19 577.754C116.062 578.124 109.109 577.805 104.709 577.469C96.5512 576.848 96.2289 576.332 96.1068 576.139C95.9609 575.908 95.9508 575.613 96.0831 575.372C96.2832 575.005 96.7411 574.87 97.1041 575.066C97.1041 575.066 97.1108 575.066 97.1142 575.07C98.4168 575.413 109.746 576.899 124.122 576.244C127.775 576.078 131.452 576.268 135.007 576.454C140.393 576.736 145.478 577.001 148.419 575.748C148.802 575.586 149.243 575.762 149.409 576.145C149.572 576.529 149.396 576.97 149.013 577.136C147.086 577.958 144.545 578.202 141.587 578.202V578.205Z" fill="black"/>
<path d="M121.676 568.527C121.487 568.527 121.297 568.456 121.151 568.313C120.852 568.022 120.849 567.543 121.137 567.248L126.768 561.482C127.06 561.184 127.538 561.18 127.833 561.469C128.132 561.761 128.135 562.239 127.847 562.534L122.216 568.3C122.067 568.453 121.873 568.527 121.676 568.527Z" fill="black"/>
<path d="M16.8177 524.782L16.0342 544.464L29.7686 547.783L32.2143 524.921L16.8177 524.782Z" fill="white"/>
<path d="M29.7683 548.54C29.7106 548.54 29.6495 548.533 29.5919 548.519L15.8575 545.201C15.5081 545.116 15.2673 544.797 15.2808 544.437L16.0644 524.752C16.0813 524.348 16.4138 524.029 16.8174 524.029H16.8242L32.2207 524.168C32.4344 524.168 32.6345 524.263 32.777 524.419C32.9195 524.579 32.9873 524.789 32.9636 525L30.5179 547.865C30.4942 548.082 30.3788 548.275 30.2024 548.401C30.0735 548.492 29.9209 548.54 29.7683 548.54ZM16.8106 543.877L29.1068 546.85L31.3727 525.668L17.5365 525.542L16.8072 543.877H16.8106Z" fill="black"/>
<path d="M31.8645 583.574C26.3592 584.351 17.377 584.68 6.73955 583.564C1.97033 583.061 0.111484 576.427 0.949321 573.013C3.28305 563.502 7.33655 548.163 14.236 539.802L16.7698 544.909L19.1612 539.931C19.4869 539.347 20.0669 538.95 20.7284 538.865L25.8877 538.916C26.9697 538.777 27.9772 539.496 28.201 540.569L29.0253 544.502L33.4282 539.422L36.8643 576.943C37.285 580.157 35.0598 583.122 31.8611 583.574H31.8645Z" fill="white"/>
<path d="M20.1181 585.043C16.3394 585.043 11.8246 584.856 6.65849 584.313C4.82339 584.12 3.21556 583.112 2.00799 581.392C0.111833 578.697 -0.329133 575.046 0.213595 572.833C3.01204 561.421 7.06893 547.301 13.6529 539.323C13.8157 539.126 14.0701 539.025 14.3211 539.055C14.5755 539.086 14.796 539.242 14.9113 539.469L16.76 543.192L18.4832 539.605C18.9411 538.773 19.7382 538.234 20.6371 538.119C20.671 538.115 20.6982 538.112 20.7389 538.112L25.8507 538.159C27.2991 538.003 28.6424 538.984 28.9443 540.413L29.4564 542.859L32.8655 538.93C33.0622 538.702 33.3777 538.614 33.666 538.706C33.9543 538.797 34.1578 539.055 34.185 539.354L37.6211 576.875C38.0926 580.462 35.5621 583.815 31.9734 584.32C30.0094 584.599 25.9457 585.043 20.1215 585.043H20.1181ZM14.0871 541.207C7.32672 550.165 3.39194 566.209 1.67896 573.197C1.22782 575.032 1.62469 578.226 3.24269 580.526C4.20604 581.897 5.41021 582.668 6.81791 582.817C15.8068 583.76 25.1282 583.767 31.7596 582.831C34.531 582.44 36.4882 579.844 36.1218 577.045L32.8451 541.257L29.6023 545C29.4157 545.218 29.1206 545.309 28.8425 545.238C28.5643 545.167 28.354 544.943 28.293 544.665L27.4687 540.731C27.3262 540.049 26.6784 539.585 25.9864 539.673C25.9525 539.676 25.9185 539.68 25.8846 539.68L20.783 539.632C20.3793 539.696 20.0232 539.948 19.823 540.307L17.452 545.248C17.3265 545.509 17.0653 545.672 16.777 545.676C16.5226 545.662 16.2241 545.516 16.0986 545.258L14.0939 541.22L14.0871 541.207Z" fill="black"/>
<path d="M16.5662 578.884C13.0452 578.884 9.23596 578.572 5.43687 577.703C5.02982 577.611 4.77881 577.208 4.8704 576.8C4.96198 576.393 5.36903 576.142 5.77268 576.234C18.7235 579.193 32.2612 575.389 32.3969 575.351C32.7937 575.236 33.2144 575.467 33.3297 575.867C33.445 576.268 33.2144 576.685 32.8141 576.8C32.4071 576.916 25.3991 578.884 16.5696 578.884H16.5662Z" fill="black"/>
<path d="M13.4116 564.316C13.008 564.316 12.6722 563.994 12.6586 563.586C12.645 563.169 12.9707 562.823 13.3879 562.809L25.7655 562.399C26.1759 562.395 26.5287 562.711 26.5423 563.128C26.5558 563.546 26.2302 563.892 25.813 563.905L13.4354 564.316C13.4354 564.316 13.4184 564.316 13.4116 564.316Z" fill="black"/>
<path d="M161.838 289.02C167.048 319.523 176.519 394.488 156.071 450.561C138.474 498.819 125.913 522.851 121.086 531.579C119.766 533.965 117.134 535.295 114.434 534.949L101.89 533.334C98.1726 532.855 95.5845 529.391 96.1781 525.678C100.754 496.966 118.932 357.207 114.088 344.289L36.1897 527.484C35.3485 529.428 33.4286 530.677 31.3153 530.653L18.1576 530.507C15.2268 530.473 12.8897 528.033 12.9677 525.095C16.855 376.818 60.2461 352.959 72.9595 282.066C72.99 281.9 77.1215 286.882 77.2776 286.973C90.0079 294.351 96.3782 293.777 115.906 294.846C137.032 296 156.652 288.025 161.278 288.242C161.631 288.259 161.777 288.67 161.838 289.023V289.02Z" fill="black"/>
<path d="M138.564 146.984L142.163 128.513C142.421 127.271 143.446 126.334 144.701 126.189L151.939 125.364C153.483 125.187 154.721 124.003 154.965 122.463L156.603 112.16C156.603 112.16 156.617 112.13 156.631 112.123L160.07 110.26C160.755 109.89 161.016 109.038 160.664 108.342L157.041 101.25C156.335 99.869 155.365 92.0743 153.822 92.1523C153.822 92.1523 127.771 83.0749 120.108 93.8966C118.08 96.764 117.853 100.544 119.226 103.778L120.98 107.905C122.802 112.194 123.209 117.016 121.815 121.461C121.319 123.046 120.621 124.58 119.732 126.015L109.942 141.289C117.056 144.863 124.878 146.78 132.832 146.895L138.564 146.98V146.984Z" fill="white"/>
<path d="M138.568 147.737H138.558L132.825 147.652C124.806 147.533 116.777 145.565 109.61 141.965C109.42 141.87 109.278 141.697 109.22 141.49C109.162 141.283 109.196 141.062 109.312 140.882L119.101 125.608C119.942 124.247 120.617 122.775 121.099 121.234C122.391 117.101 122.106 112.472 120.288 108.197L118.535 104.07C117.018 100.5 117.385 96.4348 119.494 93.4554C127.215 82.5557 151.834 90.6694 153.961 91.399C155.389 91.5177 156.061 94.0289 156.97 98.0807C157.241 99.2853 157.519 100.531 157.713 100.907L161.335 108C161.871 109.052 161.464 110.362 160.43 110.921L157.295 112.622L155.711 122.581C155.416 124.448 153.9 125.9 152.028 126.114L144.789 126.939C143.853 127.044 143.096 127.739 142.903 128.666L139.304 147.129C139.236 147.482 138.924 147.74 138.565 147.74L138.568 147.737ZM111.035 140.987C117.809 144.252 125.332 146.033 132.846 146.145L137.947 146.22L141.427 128.367C141.753 126.793 143.035 125.622 144.619 125.439L151.858 124.614C153.059 124.478 154.032 123.545 154.222 122.344L155.861 112.041C155.898 111.811 156.068 111.57 156.274 111.458L159.714 109.595C160.036 109.422 160.162 109.011 159.996 108.685L156.373 101.593C156.108 101.074 155.867 100.045 155.501 98.4132C155.131 96.7776 154.375 93.4045 153.764 92.9023C153.7 92.8955 153.639 92.8853 153.578 92.8615C153.323 92.7733 127.975 84.0963 120.726 94.3275C118.918 96.8794 118.609 100.388 119.925 103.48L121.679 107.606C123.636 112.211 123.941 117.209 122.541 121.685C122.022 123.345 121.292 124.933 120.38 126.413L111.038 140.984L111.035 140.987Z" fill="black"/>
<path d="M133.507 103.643C132.171 100.317 130.081 99.0716 130.472 97.1814C130.709 96.0412 131.693 95.3252 132.256 94.918C135.044 92.8955 138.707 94.1307 146.068 95.5186C155.206 97.2425 156.248 97.514 157.971 96.8319C162.353 95.0978 164.847 89.7023 165.036 85.2636C165.091 84.0182 165.199 77.4078 159.592 73.9974C155.542 71.5338 150.122 71.7204 145.743 74.4487C145.359 73.166 144.562 71.3573 142.822 70.4682C138.694 68.3575 132.537 73.0914 130.383 74.7474C128.392 76.2778 124.841 79.4744 122.297 85.0974C121.483 84.6426 118.433 83.0613 115.109 84.1234C110.167 85.7048 108.949 91.7485 108.844 92.322C107.606 99.0003 113.094 104.827 117.236 109.228C119.519 111.654 120.719 112.577 122.059 113.473C122.853 114.003 123.877 114.04 124.712 113.582C124.725 113.575 124.742 113.565 124.756 113.558C125.852 112.954 126.218 111.549 125.56 110.484L125.35 110.144C124.559 108.868 124.02 107.44 123.854 105.943C123.721 104.752 123.816 103.5 124.583 102.859C125.818 101.82 127.921 102.506 128.223 102.604C129.763 103.106 130.729 104.25 131.323 105.336C131.961 106.5 134.094 105.115 133.504 103.639L133.507 103.643Z" fill="black"/>
<path d="M62.4472 77.8116C62.1895 77.8116 61.9283 77.7947 61.6671 77.7607C58.3937 77.3433 56.0295 74.3639 56.3958 71.1232C56.5722 69.5588 57.349 68.1641 58.5837 67.1936C59.8388 66.2061 61.4161 65.7751 63.0171 65.9821C66.2904 66.3995 68.6547 69.3789 68.2884 72.6197C68.112 74.1841 67.3352 75.5788 66.1005 76.5493C65.0489 77.3739 63.7735 77.8116 62.4472 77.8116ZM57.8917 71.2928C57.617 73.7191 59.3978 75.952 61.857 76.2676C63.0544 76.4203 64.2315 76.1013 65.1677 75.365C66.0835 74.6456 66.6602 73.6106 66.7891 72.4534C67.0638 70.0271 65.283 67.7942 62.8238 67.4786C61.6264 67.3259 60.4493 67.6449 59.5131 68.3813C58.5973 69.1007 58.0206 70.1357 57.8917 71.2928Z" fill="black"/>
<path d="M39.6972 88.9116C39.5649 88.9116 39.436 88.8777 39.3139 88.8064L34.2869 85.8303C33.9273 85.62 33.8086 85.1551 34.0223 84.7987C34.2326 84.439 34.6973 84.3203 35.0535 84.5341L40.0805 87.5101C40.4401 87.7205 40.5588 88.1854 40.3451 88.5417C40.206 88.7793 39.955 88.9116 39.6972 88.9116Z" fill="black"/>
<path d="M51.4062 95.8444C51.2739 95.8444 51.145 95.8105 51.0229 95.7392L45.9959 92.7631C45.6363 92.5494 45.5176 92.0879 45.7313 91.7315C45.9416 91.3718 46.4063 91.2531 46.7625 91.4669L51.7895 94.4429C52.149 94.6533 52.2678 95.1182 52.0541 95.4745C51.915 95.712 51.664 95.8444 51.4062 95.8444Z" fill="black"/>
<path d="M38.0862 99.265C37.9573 99.265 37.825 99.231 37.7029 99.1598C37.3434 98.9494 37.2246 98.4845 37.4383 98.1282L40.4132 93.0991C40.6269 92.7394 41.0848 92.6206 41.4443 92.8344C41.8039 93.0448 41.9226 93.5097 41.7089 93.866L38.7341 98.8951C38.5916 99.1326 38.3406 99.265 38.0828 99.265H38.0862Z" fill="black"/>
<path d="M45.0159 87.544C44.887 87.544 44.7547 87.5101 44.6326 87.4388C44.273 87.2284 44.1543 86.7635 44.368 86.4072L47.3428 81.3781C47.5565 81.0184 48.0179 80.8997 48.374 81.1135C48.7336 81.3239 48.8523 81.7888 48.6386 82.1451L45.6638 87.1742C45.5247 87.4117 45.2703 87.544 45.0125 87.544H45.0159Z" fill="black"/>
<path d="M567.147 620.247H303.571C287.747 620.247 275.913 605.713 279.098 590.201L319.087 395.648C322.448 379.289 336.841 367.547 353.529 367.547H579.613L567.147 620.25V620.247Z" fill="white"/>
<path d="M567.148 621H303.572C295.804 621 288.535 617.545 283.627 611.522C278.715 605.495 276.795 597.667 278.362 590.048L318.351 395.496C321.77 378.864 336.566 366.79 353.533 366.79H579.617C579.824 366.79 580.02 366.875 580.163 367.025C580.305 367.174 580.38 367.374 580.37 367.581L567.904 620.284C567.884 620.684 567.555 621 567.151 621H567.148ZM353.53 368.297C337.275 368.297 323.1 379.862 319.827 395.798L279.838 590.35C278.362 597.524 280.17 604.891 284.793 610.565C289.413 616.236 296.259 619.487 303.568 619.487H566.425L578.816 368.294H353.527L353.53 368.297Z" fill="black"/>
<path d="M600.895 620.247H549.746C533.922 620.247 522.087 605.713 525.273 590.201L569.315 375.912C570.316 371.039 574.603 367.544 579.572 367.544H592.727C598.181 367.544 602.72 371.731 603.164 377.171L621.179 598.216C622.146 610.08 612.787 620.243 600.895 620.243V620.247Z" fill="white"/>
<path d="M600.895 621H549.747C541.979 621 534.71 617.545 529.801 611.522C524.89 605.495 522.97 597.667 524.537 590.048L568.579 375.759C569.648 370.561 574.271 366.787 579.573 366.787H592.727C598.528 366.787 603.443 371.321 603.914 377.107L621.929 598.152C622.408 604.019 620.396 609.863 616.411 614.189C612.425 618.513 606.77 620.993 600.895 620.993V621ZM579.573 368.297C574.983 368.297 570.981 371.562 570.055 376.065L526.012 590.354C524.537 597.528 526.345 604.895 530.968 610.569C535.588 616.239 542.433 619.49 549.743 619.49H600.892C606.428 619.49 611.546 617.247 615.301 613.171C619.002 609.154 620.871 603.724 620.427 598.278L602.412 377.232C602.005 372.22 597.748 368.297 592.727 368.297H579.573Z" fill="black"/>
<path d="M584.593 613.395H549.743C544.268 613.395 539.143 610.959 535.683 606.714C532.223 602.465 530.873 596.951 531.975 591.582L546.432 521.24C546.517 520.832 546.914 520.568 547.321 520.653C547.728 520.737 547.993 521.134 547.908 521.542L533.451 591.884C532.44 596.805 533.678 601.864 536.85 605.757C540.021 609.652 544.719 611.885 549.739 611.885H584.589C585.007 611.885 585.342 612.221 585.342 612.639C585.342 613.056 585.003 613.392 584.589 613.392L584.593 613.395Z" fill="black"/>
<path d="M600.895 613.395C600.477 613.395 600.142 613.059 600.142 612.642C600.142 612.225 600.477 611.889 600.895 611.889C604.287 611.889 607.421 610.514 609.717 608.017C612.017 605.519 613.13 602.282 612.855 598.898L608.751 548.523C608.717 548.109 609.025 547.742 609.439 547.708C609.846 547.671 610.219 547.983 610.25 548.397L614.354 598.773C614.666 602.58 613.411 606.225 610.823 609.035C608.235 611.844 604.707 613.392 600.891 613.392L600.895 613.395Z" fill="black"/>
<path d="M598.073 409.029C597.683 409.029 597.354 408.73 597.323 408.336L596.468 397.837C596.434 397.423 596.743 397.057 597.157 397.023C597.574 396.985 597.937 397.297 597.968 397.711L598.822 408.211C598.856 408.625 598.548 408.991 598.134 409.025C598.113 409.025 598.093 409.025 598.073 409.025V409.029Z" fill="black"/>
<path d="M564.681 436.963C564.63 436.963 564.579 436.957 564.528 436.946C564.121 436.862 563.857 436.465 563.942 436.057L576.021 377.293C576.367 375.613 577.859 374.395 579.572 374.395H592.727C594.602 374.395 596.186 375.861 596.339 377.727L596.899 384.603C596.933 385.017 596.624 385.383 596.21 385.417C595.8 385.454 595.433 385.142 595.399 384.728L594.84 377.853C594.752 376.76 593.822 375.905 592.73 375.905H579.576C578.575 375.905 577.703 376.618 577.5 377.599L565.421 436.363C565.346 436.719 565.034 436.967 564.684 436.967L564.681 436.963Z" fill="black"/>
<path d="M531.236 470.426H324.863C324.446 470.426 324.11 470.09 324.11 469.673C324.11 469.255 324.446 468.919 324.863 468.919H531.236C537.029 468.919 542.009 464.98 543.345 459.336L561.537 382.475C561.632 382.071 562.039 381.82 562.442 381.915C562.846 382.01 563.097 382.417 563.002 382.821L544.811 459.683C543.315 466.008 537.731 470.426 531.236 470.426Z" fill="black"/>
<path d="M451.584 469.673L445.804 493.013C444.871 496.963 441.347 499.749 437.293 499.749H396.419C391.969 499.749 388.746 495.504 389.937 491.211L395.924 469.673H451.584Z" fill="white"/>
<path d="M437.293 500.502H396.419C394.062 500.502 391.891 499.427 390.463 497.547C389.035 495.667 388.577 493.284 389.211 491.007L395.198 469.469C395.29 469.143 395.585 468.916 395.924 468.916H451.584C451.815 468.916 452.035 469.021 452.178 469.205C452.32 469.388 452.371 469.625 452.317 469.849L446.537 493.189C445.519 497.489 441.717 500.499 437.293 500.499V500.502ZM396.497 470.426L390.666 491.411C390.161 493.227 390.527 495.13 391.667 496.634C392.807 498.134 394.54 498.996 396.422 498.996H437.297C441.018 498.996 444.216 496.464 445.075 492.84L450.624 470.43H396.501L396.497 470.426Z" fill="black"/>
<path d="M512.403 601.454H293.165C292.748 601.454 292.412 601.118 292.412 600.7C292.412 600.283 292.748 599.947 293.165 599.947H512.403C512.821 599.947 513.156 600.286 513.156 600.7C513.156 601.114 512.817 601.454 512.403 601.454Z" fill="black"/>
<path d="M405.608 358.714H388.495C383.871 358.714 380.123 362.467 380.123 367.092H413.979C413.979 362.464 410.231 358.714 405.608 358.714Z" fill="white"/>
<path d="M413.979 367.846H380.123C379.706 367.846 379.37 367.506 379.37 367.092C379.37 362.057 383.464 357.961 388.495 357.961H405.608C410.638 357.961 414.732 362.057 414.732 367.092C414.732 367.51 414.396 367.846 413.979 367.846ZM380.913 366.339H413.189C412.809 362.488 409.556 359.467 405.608 359.467H388.495C384.55 359.467 381.293 362.488 380.913 366.339Z" fill="black"/>
<path d="M542.762 358.714H525.649C521.026 358.714 517.277 362.467 517.277 367.092H551.133C551.133 362.464 547.385 358.714 542.762 358.714Z" fill="black"/>
<path d="M551.136 367.846H517.28C516.863 367.846 516.527 367.506 516.527 367.092C516.527 362.057 520.622 357.961 525.652 357.961H542.765C547.795 357.961 551.889 362.057 551.889 367.092C551.889 367.51 551.55 367.846 551.136 367.846ZM518.067 366.339H550.343C549.963 362.488 546.71 359.467 542.761 359.467H525.649C521.704 359.467 518.447 362.488 518.067 366.339Z" fill="black"/>
<path d="M538.294 358.263L541.052 341.869C543.009 330.243 535.177 320.816 523.559 320.816H420.94C409.322 320.816 398.321 330.243 396.364 341.869L393.606 358.263H401.459L403.606 345.503C405.129 336.453 413.691 329.12 422.734 329.12H518.973C528.013 329.12 534.112 336.456 532.589 345.503L530.442 358.263H538.294Z" fill="white"/>
<path d="M538.297 359.016H530.445C530.224 359.016 530.014 358.918 529.868 358.748C529.726 358.578 529.665 358.354 529.702 358.137L531.849 345.378C532.555 341.18 531.581 337.251 529.102 334.322C526.676 331.455 523.081 329.873 518.98 329.873H422.741C414.064 329.873 405.818 336.942 404.356 345.629L402.208 358.388C402.147 358.751 401.832 359.016 401.466 359.016H393.613C393.393 359.016 393.182 358.918 393.036 358.748C392.894 358.578 392.833 358.354 392.87 358.137L395.628 341.743C397.639 329.788 408.996 320.063 420.946 320.063H523.566C529.353 320.063 534.437 322.309 537.887 326.388C541.405 330.548 542.795 336.09 541.801 341.995L539.044 358.388C538.983 358.751 538.667 359.016 538.301 359.016H538.297ZM531.334 357.509H537.66L540.312 341.743C541.232 336.287 539.96 331.176 536.734 327.362C533.576 323.626 528.898 321.569 523.562 321.569H420.943C409.695 321.569 399.006 330.732 397.11 341.995L394.502 357.509H400.828L402.867 345.378C404.444 335.995 413.358 328.363 422.737 328.363H518.976C523.532 328.363 527.534 330.131 530.251 333.345C533.019 336.623 534.115 340.983 533.335 345.626L531.337 357.506L531.334 357.509Z" fill="black"/>
<path d="M518.465 314.029H428.321C424.688 314.029 421.248 316.978 420.634 320.612L419.308 328.492C418.698 332.126 421.147 335.075 424.78 335.075H514.923C518.556 335.075 521.996 332.126 522.61 328.492L523.936 320.612C524.546 316.978 522.097 314.029 518.465 314.029Z" fill="white"/>
<path d="M514.923 335.829H424.779C422.815 335.829 421.085 335.062 419.905 333.667C418.704 332.249 418.229 330.365 418.565 328.366L419.891 320.487C420.56 316.51 424.342 313.276 428.321 313.276H518.464C520.428 313.276 522.158 314.043 523.339 315.437C524.539 316.856 525.014 318.739 524.679 320.738L523.352 328.618C522.684 332.595 518.902 335.829 514.923 335.829ZM428.321 314.783C425.044 314.783 421.93 317.453 421.38 320.738L420.054 328.618C419.793 330.172 420.149 331.621 421.058 332.693C421.947 333.742 423.266 334.322 424.783 334.322H514.926C518.203 334.322 521.317 331.651 521.867 328.366L523.193 320.487C523.454 318.933 523.098 317.484 522.189 316.411C521.3 315.363 519.981 314.783 518.464 314.783H428.321Z" fill="black"/>
<path d="M463.238 335.829H424.779C422.815 335.829 421.085 335.062 419.905 333.667C418.704 332.249 418.229 330.365 418.565 328.366L419.891 320.487C420.56 316.51 424.342 313.276 428.321 313.276H458.388C458.805 313.276 459.141 313.615 459.141 314.029C459.141 314.443 458.805 314.783 458.388 314.783H428.321C425.044 314.783 421.93 317.453 421.38 320.738L420.054 328.618C419.793 330.172 420.149 331.621 421.058 332.693C421.947 333.742 423.266 334.322 424.783 334.322H463.242C463.659 334.322 463.995 334.661 463.995 335.075C463.995 335.489 463.656 335.829 463.242 335.829H463.238Z" fill="black"/>
<path d="M549.261 601.454C549 601.454 548.746 601.318 548.606 601.074C548.4 600.711 548.525 600.252 548.888 600.045L583.84 580.112V382.645C583.84 382.227 584.179 381.891 584.593 381.891C585.007 381.891 585.346 382.227 585.346 382.645V580.55C585.346 580.822 585.2 581.073 584.966 581.205L549.634 601.355C549.516 601.423 549.39 601.454 549.261 601.454Z" fill="black"/>
<path d="M547.884 362.606C547.884 362.606 563.609 368.47 569.776 363.533C575.943 358.595 560.217 350.261 556.517 350.879C552.816 351.496 547.884 362.606 547.884 362.606Z" fill="black"/>
<path d="M468.853 488.439L483.652 514.364L491.671 503.254L478.72 477.946L468.853 488.439Z" fill="white"/>
<path d="M483.652 515.118C483.652 515.118 483.625 515.118 483.611 515.118C483.357 515.104 483.123 514.962 482.997 514.738L468.195 488.812C468.032 488.523 468.072 488.164 468.3 487.919L478.167 477.427C478.333 477.247 478.578 477.162 478.822 477.196C479.066 477.23 479.276 477.379 479.388 477.6L492.339 502.908C492.468 503.159 492.444 503.465 492.278 503.692L484.259 514.802C484.117 514.999 483.89 515.114 483.649 515.114L483.652 515.118ZM469.782 488.551L483.727 512.973L490.789 503.186L478.533 479.242L469.782 488.551Z" fill="black"/>
<path d="M478.527 510.411C482.431 518.464 492.309 537.996 501.83 547.359C504.15 549.643 508.075 548.581 508.909 545.431C511.888 534.155 513.872 510.662 502.773 492.144C502.773 492.144 497.495 491.527 487.628 493.379L489.822 502.637L488.611 501.771C486.786 500.468 484.31 500.577 482.607 502.036L479.765 504.476C478.052 505.945 477.547 508.382 478.53 510.411H478.527Z" fill="black"/>
<path d="M503.387 544.746C503.299 544.746 503.208 544.729 503.119 544.698C502.729 544.553 502.533 544.115 502.682 543.728C511.111 521.436 499.731 495.181 499.612 494.92C499.442 494.54 499.615 494.095 499.999 493.926C500.379 493.756 500.823 493.929 500.993 494.313C501.111 494.581 512.736 521.402 504.093 544.264C503.978 544.566 503.693 544.753 503.387 544.753V544.746Z" fill="white"/>
<path d="M484.269 522.393C484.022 522.393 483.781 522.271 483.635 522.051C483.408 521.701 483.506 521.233 483.855 521.009L491.257 516.204C491.606 515.976 492.074 516.075 492.298 516.424C492.526 516.774 492.427 517.242 492.078 517.466L484.676 522.271C484.551 522.353 484.408 522.393 484.266 522.393H484.269Z" fill="white"/>
<path d="M487.971 528.97C487.743 528.97 487.52 528.868 487.374 528.675C487.119 528.345 487.184 527.87 487.513 527.616L494.297 522.403C494.626 522.149 495.101 522.21 495.355 522.543C495.61 522.872 495.545 523.347 495.216 523.601L488.432 528.814C488.296 528.919 488.133 528.97 487.974 528.97H487.971Z" fill="white"/>
<path d="M421.981 489.056C421.981 489.674 408.413 519.302 408.413 519.302L423.83 520.537L434.315 495.229L421.981 489.056Z" fill="white"/>
<path d="M423.83 521.29C423.809 521.29 423.789 521.29 423.769 521.29L408.352 520.055C408.108 520.035 407.887 519.896 407.762 519.685C407.636 519.472 407.623 519.214 407.728 518.99C412.965 507.55 420.852 490.183 421.238 488.927C421.276 488.717 421.401 488.53 421.584 488.415C421.808 488.276 422.083 488.265 422.317 488.381L434.65 494.554C435.003 494.73 435.159 495.151 435.01 495.517L424.525 520.826C424.406 521.107 424.132 521.29 423.83 521.29ZM409.546 518.637L423.345 519.743L433.351 495.592L422.378 490.101C421.543 492.158 418.772 498.486 409.549 518.64L409.546 518.637Z" fill="black"/>
<path d="M422.599 513.129C422.599 513.129 419.515 505.721 411.497 509.427C411.497 509.427 396.779 530.704 391.311 548.272C389.764 553.24 394.862 557.719 399.601 555.578C410.693 550.566 428.074 540.046 438.019 520.54C438.019 520.54 434.936 512.515 430 508.813L422.599 513.133V513.129Z" fill="black"/>
<path d="M395.832 550.973C395.198 550.973 394.825 550.925 394.733 550.912C394.323 550.851 394.038 550.467 394.099 550.057C394.16 549.646 394.54 549.361 394.954 549.422C395.127 549.446 411.507 551.339 433.708 520.714C433.952 520.378 434.424 520.3 434.76 520.547C435.095 520.792 435.173 521.263 434.926 521.599C415.13 548.906 399.967 550.976 395.832 550.976V550.973Z" fill="white"/>
<path d="M408.41 534.253C408.281 534.253 408.148 534.219 408.03 534.152L400.628 529.832C400.269 529.621 400.147 529.16 400.357 528.8C400.567 528.44 401.029 528.318 401.388 528.529L408.79 532.849C409.149 533.059 409.271 533.52 409.061 533.88C408.922 534.121 408.667 534.253 408.41 534.253Z" fill="white"/>
<path d="M412.11 528.698C411.988 528.698 411.866 528.668 411.754 528.607L403.735 524.287C403.369 524.09 403.233 523.632 403.43 523.265C403.627 522.899 404.085 522.763 404.451 522.96L412.47 527.28C412.836 527.477 412.972 527.935 412.775 528.301C412.639 528.552 412.378 528.698 412.11 528.698Z" fill="white"/>
<path d="M500.921 339.68C500.921 339.68 460.725 346.864 431.757 377.266C424.447 384.939 421.862 395.984 425 406.114C431.435 426.892 445.444 464.841 468.852 493.379L486.739 477.949C486.739 477.949 482.421 442.149 470.705 419.928C458.985 397.708 527.443 349.562 527.443 349.562L500.924 339.687L500.921 339.68Z" fill="white"/>
<path d="M468.852 494.133C468.832 494.133 468.808 494.133 468.788 494.133C468.584 494.116 468.398 494.017 468.269 493.861C444.664 465.081 430.576 426.671 424.277 406.341C421.062 395.954 423.718 384.616 431.211 376.75C460.016 346.521 500.385 339.015 500.788 338.944C500.921 338.92 501.056 338.934 501.185 338.978L527.704 348.853C527.966 348.951 528.152 349.185 528.189 349.463C528.227 349.742 528.105 350.017 527.874 350.176C527.196 350.655 460.091 398.19 471.369 419.575C483.018 441.663 487.441 477.498 487.485 477.858C487.515 478.109 487.42 478.357 487.23 478.519L469.344 493.949C469.205 494.068 469.032 494.133 468.852 494.133ZM500.856 340.461C497.763 341.065 459.721 349.012 432.303 377.785C425.186 385.254 422.663 396.021 425.719 405.89C431.94 425.975 445.797 463.789 468.947 492.304L485.938 477.644C485.419 473.667 480.894 440.873 470.036 420.281C458.859 399.086 516.538 356.461 525.846 349.772L500.856 340.467V340.461Z" fill="black"/>
<path d="M417.046 494.611L438.016 500.784C438.016 500.784 476.254 419.922 487.353 408.194C498.455 396.466 520.039 377.33 542.857 370.54C565.675 363.75 565.675 346.467 565.675 346.467L526.823 335.357C526.823 335.357 472.55 358.812 454.667 385.356C436.781 411.899 417.046 494.611 417.046 494.611Z" fill="white"/>
<path d="M438.016 501.537C437.944 501.537 437.873 501.527 437.802 501.507L416.832 495.334C416.449 495.222 416.218 494.825 416.313 494.435C416.51 493.607 436.286 411.285 454.043 384.935C471.845 358.514 525.982 334.902 526.528 334.668C526.687 334.6 526.867 334.587 527.033 334.634L565.886 345.744C566.208 345.836 566.432 346.131 566.432 346.47C566.432 346.65 566.164 364.395 543.074 371.266C517.593 378.847 494.402 401.848 487.903 408.716C477.011 420.224 439.081 500.302 438.698 501.11C438.572 501.378 438.301 501.541 438.016 501.541V501.537ZM417.948 494.092L437.612 499.881C441.353 491.991 476.125 418.968 486.807 407.678C493.374 400.742 516.806 377.51 542.643 369.821C562.372 363.95 564.634 349.996 564.892 347.03L526.877 336.161C522.892 337.919 472.238 360.631 455.291 385.78C438.552 410.62 419.909 486.026 417.948 494.092Z" fill="black"/>
<path d="M597.13 282.891C586.645 261.902 569.376 258.818 569.376 258.818L539.774 256.347C530.517 255.72 520.677 261.444 517.02 269.979L489.819 333.504C489.819 333.504 495.369 348.32 520.039 350.787C544.709 353.257 561.67 351.713 569.685 361.588C574.97 368.1 574.804 324.674 571.764 290.329L597.13 282.888V282.891Z" fill="white"/>
<path d="M570.682 363.003C570.234 363.003 569.685 362.786 569.101 362.067C563.091 354.662 551.49 353.872 535.432 352.772C530.785 352.453 525.517 352.093 519.964 351.54C495.114 349.053 489.348 334.393 489.114 333.772C489.046 333.589 489.049 333.389 489.127 333.209L516.328 269.684C520.046 261 530.144 254.943 539.825 255.597L569.441 258.068C569.688 258.109 587.273 261.475 597.805 282.555C597.903 282.755 597.91 282.989 597.822 283.193C597.734 283.397 597.557 283.553 597.344 283.614L572.572 290.882C574.695 315.312 576.449 360.777 571.235 362.895C571.076 362.959 570.892 363.003 570.686 363.003H570.682ZM490.64 333.508C491.542 335.479 498.062 347.835 520.113 350.04C525.642 350.594 530.897 350.953 535.534 351.269C551.972 352.392 563.847 353.203 570.272 361.117C570.546 361.456 570.696 361.493 570.696 361.493C570.76 361.459 573.04 360.302 573.131 337.441C573.185 323.602 572.395 306.017 571.011 290.401C570.981 290.041 571.205 289.712 571.55 289.61L596.045 282.426C585.811 262.734 569.41 259.592 569.244 259.564L539.709 257.104C530.653 256.49 521.189 262.157 517.712 270.281L490.637 333.511L490.64 333.508Z" fill="black"/>
<path d="M517.96 337.597L531.528 331.424L542.013 335.744C542.013 335.744 598.837 330.043 573.688 289.769C573.579 289.596 592.873 284.143 592.873 284.143C592.873 284.143 615.797 338.832 543.248 340.067C543.248 340.067 539.547 341.302 534.615 338.832C529.679 336.361 521.047 341.302 517.963 337.597H517.96Z" fill="white"/>
<path d="M540.778 341.133C539.14 341.133 536.867 340.803 534.276 339.507C532.183 338.459 529.204 338.903 526.328 339.331C522.712 339.87 519.296 340.379 517.383 338.078C517.234 337.899 517.176 337.658 517.227 337.427C517.278 337.196 517.437 337.006 517.651 336.908L531.219 330.735C531.409 330.65 531.626 330.647 531.82 330.725L542.125 334.973C544.564 334.688 570.299 331.349 577.483 316.696C581.025 309.472 579.536 300.547 573.053 290.166C572.928 289.966 572.904 289.715 572.989 289.491C573.169 289.023 573.213 288.914 592.67 283.414C593.039 283.312 593.423 283.495 593.569 283.848C593.657 284.062 602.422 305.454 591.706 321.875C583.783 334.017 567.518 340.389 543.366 340.817C543.044 340.909 542.125 341.129 540.778 341.129V341.133ZM530.955 337.349C532.386 337.349 533.746 337.553 534.951 338.157C539.513 340.44 542.976 339.361 543.013 339.348C543.085 339.324 543.163 339.31 543.237 339.31C566.917 338.906 582.799 332.764 590.445 321.05C599.725 306.832 593.742 288.622 592.419 285.053C586.143 286.827 577.47 289.318 574.817 290.16C581.181 300.679 582.531 309.828 578.833 317.365C570.954 333.426 543.264 336.378 542.091 336.497C541.965 336.507 541.843 336.49 541.728 336.443L531.545 332.245L519.374 337.783C520.938 338.608 523.462 338.235 526.104 337.841C527.729 337.6 529.384 337.352 530.955 337.352V337.349Z" fill="black"/>
<path d="M466.244 342.497H519.737L480.08 281.456C478.842 279.548 476.682 278.391 474.361 278.391H430.95C428.192 278.391 426.517 281.344 427.989 283.61L466.244 342.497Z" fill="black"/>
<path d="M455.579 299.794C457.316 302.468 461.054 304.64 463.927 304.64C466.8 304.64 467.719 302.471 465.983 299.794C464.246 297.12 460.508 294.948 457.635 294.948C454.762 294.948 453.842 297.116 455.579 299.794Z" fill="white"/>
<path d="M463.93 305.393C460.783 305.393 456.838 303.116 454.948 300.204C453.904 298.596 453.666 297.001 454.301 295.834C454.874 294.778 456.058 294.195 457.635 294.195C460.779 294.195 464.728 296.472 466.617 299.383C467.662 300.992 467.899 302.586 467.265 303.754C466.692 304.809 465.508 305.393 463.93 305.393ZM457.635 295.705C456.638 295.705 455.922 296.007 455.623 296.553C455.26 297.221 455.474 298.253 456.21 299.383C457.794 301.823 461.329 303.883 463.927 303.883C464.924 303.883 465.64 303.581 465.935 303.034C466.298 302.366 466.084 301.334 465.348 300.204C463.764 297.764 460.23 295.705 457.631 295.705H457.635Z" fill="black"/>
<path d="M552.301 347.085H470.01C467.828 347.085 466.058 345.313 466.058 343.131V342.1H556.249V343.131C556.249 345.313 554.478 347.085 552.297 347.085H552.301Z" fill="black"/>
<path d="M574.929 114.379C597.575 107.223 626.862 139.742 620.963 166.489C619.335 173.866 621.136 185.024 613.056 189.1C598.724 196.328 589.712 187.576 586.028 193.389C582.836 198.428 594.176 205.69 592.812 216.227C590.784 231.884 562.697 239.441 559.509 240.3C557.128 240.941 523.608 249.51 507.702 231.657C503.873 227.357 498.849 219.04 501.535 213.756C504.096 208.717 511.963 209.8 513.869 204.499C515.521 199.904 510.253 197.335 510.786 192.154C511.813 182.163 532.437 181.648 534.839 171.165C536.758 162.787 524.774 157.86 526.82 149.563C528.472 142.871 537.094 142.691 550.873 134.133C567.368 123.884 566.347 117.091 574.926 114.379H574.929Z" fill="black"/>
<path d="M549.645 254.498C549.095 254.223 541.673 245.461 537.332 240.3C537.661 238.868 537.613 238.41 537.494 236.238C537.494 236.238 539.743 233.981 538.841 231.053C537.793 227.649 534.564 230.381 534.564 230.381C534.564 230.381 533.068 227.764 527.444 232.274C521.82 236.788 515.877 231.297 515.877 231.297C515.877 231.297 515.877 234.677 518.852 238.783C520.49 241.05 520.768 244.043 520.846 246.839L523.998 246.384C525.734 248.441 527.023 249.449 529.404 250.436C529.404 250.436 531.287 250.09 533.244 248.471L536.697 256.344L533.176 258.197C533.176 258.197 532.379 263.134 541.633 264.37C550.883 265.605 558.284 258.197 558.284 258.197C558.284 258.197 553.349 256.344 549.652 254.495L549.645 254.498Z" fill="white"/>
<path d="M543.749 265.269C543.02 265.269 542.281 265.221 541.524 265.123C537.586 264.597 534.859 263.352 533.424 261.421C532.172 259.737 532.413 258.149 532.423 258.085C532.461 257.851 532.607 257.647 532.817 257.539L535.717 256.015L532.929 249.659C531.151 250.881 529.608 251.176 529.533 251.189C529.391 251.217 529.242 251.2 529.109 251.145C526.789 250.185 525.422 249.201 523.689 247.202L520.948 247.596C520.734 247.626 520.521 247.565 520.355 247.426C520.192 247.287 520.093 247.087 520.087 246.87C520.009 244.128 519.734 241.304 518.235 239.234C515.158 234.979 515.117 231.453 515.117 231.307C515.117 231.009 515.294 230.737 515.568 230.618C515.843 230.496 516.162 230.55 516.382 230.754C516.606 230.961 521.925 235.742 526.966 231.697C529.642 229.553 531.847 228.623 533.519 228.942C534.001 229.034 534.364 229.217 534.628 229.407C535.317 228.959 536.524 228.362 537.681 228.698C538.566 228.956 539.197 229.678 539.557 230.839C540.405 233.588 538.875 235.776 538.261 236.516V236.55C538.359 238.277 538.393 238.909 538.146 240.106C548.04 251.861 549.74 253.612 550.028 253.857C553.644 255.662 558.491 257.484 558.539 257.505C558.78 257.596 558.956 257.8 559.01 258.051C559.065 258.302 558.987 258.563 558.807 258.743C558.518 259.032 552.172 265.279 543.746 265.279L543.749 265.269ZM533.913 258.665C533.94 259.072 534.082 259.788 534.669 260.562C535.846 262.11 538.288 263.168 541.724 263.626C548.695 264.556 554.665 260.284 556.853 258.458C555.157 257.79 551.914 256.476 549.306 255.17C549.055 255.044 548.532 254.783 536.755 240.782C536.602 240.602 536.545 240.358 536.596 240.127C536.884 238.878 536.86 238.488 536.758 236.618L536.738 236.275C536.728 236.061 536.806 235.854 536.959 235.702C537.037 235.624 538.872 233.717 538.119 231.273C537.919 230.625 537.63 230.242 537.26 230.133C536.562 229.929 535.469 230.598 535.049 230.954C534.879 231.1 534.652 231.158 534.432 231.121C534.211 231.083 534.018 230.948 533.909 230.751C533.909 230.751 533.709 230.479 533.176 230.398C532.488 230.293 530.883 230.476 527.915 232.858C523.635 236.292 519.171 234.399 516.898 232.97C517.217 234.27 517.919 236.204 519.462 238.335C521.036 240.51 521.443 243.252 521.569 245.97L523.889 245.638C524.147 245.6 524.405 245.699 524.571 245.899C526.226 247.857 527.396 248.763 529.466 249.645C529.971 249.51 531.348 249.058 532.759 247.891C532.942 247.738 533.187 247.684 533.414 247.738C533.645 247.793 533.835 247.952 533.93 248.169L537.383 256.042C537.542 256.405 537.393 256.829 537.043 257.013L533.913 258.658V258.665Z" fill="black"/>
<path d="M533.238 249.231C533.031 249.231 532.828 249.147 532.678 248.984C532.4 248.675 532.424 248.196 532.733 247.918L533.75 247.002C534.059 246.724 534.537 246.747 534.815 247.056C535.093 247.365 535.07 247.843 534.761 248.122L533.743 249.038C533.601 249.167 533.418 249.231 533.238 249.231Z" fill="black"/>
<path d="M235.564 147.513L202.465 224.195L231.731 214.53L247.881 240.853L267.738 158.939L235.564 147.513Z" fill="white"/>
<path d="M247.877 241.606C247.62 241.606 247.375 241.474 247.236 241.247L231.399 215.436L202.699 224.911C202.417 225.002 202.108 224.924 201.905 224.704C201.705 224.483 201.651 224.167 201.769 223.896L234.872 147.214C235.028 146.851 235.442 146.671 235.815 146.804L267.989 158.226C268.352 158.355 268.562 158.738 268.471 159.115L248.61 241.029C248.539 241.325 248.295 241.549 247.996 241.596C247.955 241.603 247.918 241.606 247.877 241.606ZM231.731 213.777C231.989 213.777 232.233 213.909 232.372 214.136L247.572 238.912L266.846 159.421L235.978 148.46L203.821 222.949L231.494 213.811C231.572 213.784 231.65 213.773 231.731 213.773V213.777Z" fill="black"/>
<path d="M264.719 161.782L287.367 242.18L303.985 216.203L333.102 226.427L296.882 150.333L264.719 161.782Z" fill="white"/>
<path d="M287.367 242.933C287.33 242.933 287.293 242.933 287.255 242.926C286.964 242.882 286.723 242.672 286.641 242.383L263.993 161.986C263.884 161.603 264.091 161.205 264.464 161.07L296.628 149.62C296.991 149.491 297.394 149.658 297.56 150.007L333.781 226.105C333.913 226.38 333.865 226.706 333.662 226.933C333.458 227.16 333.14 227.242 332.851 227.14L304.294 217.112L287.998 242.587C287.859 242.804 287.618 242.933 287.364 242.933H287.367ZM265.634 162.257L287.635 240.358L303.347 215.796C303.537 215.501 303.904 215.375 304.233 215.49L331.644 225.118L296.492 151.269L265.634 162.254V162.257Z" fill="black"/>
<path d="M330.535 127.906L321.499 138.877L325.668 152.474L313.11 159.132L311.753 173.286L297.609 174.647L290.957 187.213L277.375 183.039L266.412 192.086L255.449 183.039L241.864 187.213L235.212 174.644L221.067 173.286L219.71 159.129L207.153 152.474L211.322 138.877L202.285 127.906L211.322 116.931L207.153 103.337L219.71 96.6792L221.067 82.5217L235.212 81.1644L241.864 68.595L255.449 72.769L266.412 63.7255L277.375 72.769L290.957 68.595L297.612 81.1644L311.753 82.5217L313.11 96.6792L325.668 103.337L321.499 116.931L330.535 127.906Z" fill="black"/>
<path d="M266.021 173.737C291.098 173.737 311.427 153.391 311.427 128.292C311.427 103.194 291.098 82.8475 266.021 82.8475C240.944 82.8475 220.615 103.194 220.615 128.292C220.615 153.391 240.944 173.737 266.021 173.737Z" fill="white"/>
<path d="M266.021 174.494C240.567 174.494 219.862 153.77 219.862 128.296C219.862 102.821 240.571 82.0975 266.021 82.0975C291.472 82.0975 312.18 102.821 312.18 128.296C312.18 153.77 291.472 174.494 266.021 174.494ZM266.021 83.6042C241.398 83.6042 221.368 103.653 221.368 128.296C221.368 152.939 241.398 172.988 266.021 172.988C290.644 172.988 310.674 152.939 310.674 128.296C310.674 103.653 290.644 83.6042 266.021 83.6042Z" fill="black"/>
<path d="M263.79 151.283C263.179 151.283 262.589 151.035 262.162 150.591L244.723 132.463C243.858 131.564 243.885 130.132 244.784 129.263C245.683 128.398 247.115 128.425 247.983 129.324L263.498 145.453L285.808 112.988C286.517 111.96 287.924 111.699 288.952 112.404C289.98 113.114 290.241 114.522 289.535 115.55L265.655 150.299C265.269 150.859 264.655 151.215 263.976 151.273C263.915 151.276 263.854 151.28 263.79 151.28V151.283Z" fill="black"/>
<path d="M445.611 122.48L437.327 123.759L431.964 117.936C430.811 116.684 428.589 117.345 428.206 119.056L426.415 127.01L418.705 130.498C417.046 131.248 416.88 133.461 418.423 134.245L425.601 137.882L426.198 145.86C426.327 147.574 428.447 148.28 429.783 147.055L436.011 141.347L444.091 142.789C445.828 143.098 447.303 141.323 446.587 139.783L443.256 132.619L447.653 125.53C448.599 124.007 447.391 122.201 445.607 122.48H445.611Z" fill="black"/>
<path d="M478.124 104.728L469.98 106.344L464.498 100.663C463.321 99.4414 461.147 100.198 460.818 101.942L459.298 110.053L451.788 113.877C450.173 114.698 450.078 116.945 451.629 117.674L458.837 121.075L459.678 129.117C459.858 130.848 461.974 131.479 463.26 130.186L469.233 124.176L477.262 125.323C478.989 125.571 480.39 123.715 479.633 122.188L476.119 115.072L480.24 107.735C481.126 106.157 479.878 104.382 478.124 104.728Z" fill="black"/>
<path d="M513.428 89.9093L505.365 91.1547L500.236 85.1109C499.134 83.8112 496.966 84.473 496.569 86.2308L494.721 94.409L487.187 97.9348C485.566 98.6915 485.376 100.972 486.865 101.79L493.785 105.601L494.256 113.823C494.358 115.591 496.407 116.337 497.723 115.085L503.845 109.262L511.671 110.82C513.353 111.156 514.812 109.337 514.137 107.745L511.003 100.337L515.368 93.0787C516.308 91.5178 515.158 89.648 513.424 89.9161L513.428 89.9093Z" fill="black"/>
<path d="M547.484 75.4464L539.482 77.0278L534.106 71.2046C532.949 69.9524 530.812 70.7058 530.49 72.4771L528.987 80.7232L521.606 84.5612C520.019 85.3858 519.924 87.6696 521.443 88.4263L528.516 91.9419L529.333 100.137C529.509 101.898 531.585 102.557 532.847 101.25L538.722 95.1759L546.605 96.4043C548.301 96.669 549.679 94.7924 548.939 93.2281L545.496 85.9593L549.553 78.5209C550.425 76.9226 549.2 75.1037 547.481 75.443L547.484 75.4464Z" fill="black"/>
</g>
<defs>
<clipPath id="clip0_46_741">
<rect width="622" height="621" fill="white"/>
</clipPath>
</defs>
</svg>
