<svg width="458" height="422" viewBox="0 0 458 422" fill="none" xmlns="http://www.w3.org/2000/svg">
<g clip-path="url(#clip0_52_25)">
<path d="M303.345 194.096H285.545V406.91H303.345V194.096Z" fill="white"/>
<path d="M303.345 408.215H285.545C284.821 408.215 284.236 407.63 284.236 406.905V194.09C284.236 193.366 284.821 192.781 285.545 192.781H303.345C304.069 192.781 304.654 193.366 304.654 194.09V406.905C304.654 407.63 304.069 408.215 303.345 408.215ZM286.854 405.6H302.036V195.406H286.854V405.6Z" fill="black"/>
<path d="M211.03 413.814L289.798 406.712H297.016L377.435 413.814V419.45H211.03V413.814Z" fill="white"/>
<path d="M377.435 420.755H211.03C210.306 420.755 209.722 420.169 209.722 419.445V413.808C209.722 413.132 210.237 412.568 210.912 412.504L289.68 405.402H297.022L377.553 412.504C378.229 412.563 378.744 413.126 378.744 413.808V419.445C378.744 420.169 378.159 420.755 377.435 420.755ZM212.334 418.14H376.127V415.011L296.904 408.011H289.798L212.339 415.005V418.135L212.334 418.14Z" fill="black"/>
<path d="M280.691 57.8793V103.804C280.691 148.719 247.472 185.131 206.493 185.131C165.514 185.131 132.295 221.543 132.295 266.458C132.295 270.463 135.33 273.705 139.079 273.705H335.485C396.919 273.705 446.715 219.122 446.715 151.789V53.7941C446.715 27.0125 426.909 5.30372 402.475 5.30372H328.658C302.165 5.30372 280.691 28.843 280.691 57.8793Z" fill="white"/>
<path d="M335.486 275.01H139.08C134.618 275.01 130.992 271.171 130.992 266.453C130.992 220.888 164.86 183.821 206.493 183.821C248.127 183.821 279.383 147.924 279.383 103.804V57.8793C279.383 28.1666 301.489 3.99389 328.659 3.99389H402.476C427.591 3.99389 448.024 26.3361 448.024 53.7941V151.789C448.024 219.734 397.542 275.015 335.486 275.015V275.01ZM328.659 6.61355C302.927 6.61355 281.995 29.6106 281.995 57.8846V103.809C281.995 149.374 248.121 186.441 206.488 186.441C164.855 186.441 133.599 222.338 133.599 266.458C133.599 269.733 136.055 272.395 139.074 272.395H335.48C396.094 272.395 445.407 218.29 445.407 151.789V53.7941C445.407 27.7747 426.148 6.61355 402.476 6.61355H328.659Z" fill="black"/>
<path d="M240.8 377.761C238.972 375.909 228.422 343.051 228.422 343.051L207.565 357.947L230.428 388.707L240.8 377.767V377.761Z" fill="white"/>
<path d="M230.429 390.011C230.429 390.011 230.375 390.011 230.348 390.011C229.962 389.99 229.608 389.797 229.377 389.485L206.515 358.726C206.306 358.447 206.22 358.087 206.273 357.743C206.327 357.394 206.52 357.083 206.804 356.879L227.661 341.983C227.999 341.741 228.434 341.671 228.83 341.805C229.227 341.94 229.538 342.251 229.662 342.648C234.628 358.108 240.554 375.356 241.755 376.87C242.254 377.375 242.233 378.148 241.745 378.658L231.373 389.598C231.126 389.861 230.783 390.006 230.423 390.006L230.429 390.011ZM209.411 358.232L230.552 386.672L239.186 377.563C236.671 372.543 230.418 353.481 227.726 345.15L209.411 358.232Z" fill="black"/>
<path d="M203.217 419.311L217.086 419.23C226.262 419.176 234.795 414.511 239.798 406.808L253.512 385.078C257.303 379.071 255.18 371.115 248.916 367.782C243.193 364.738 237.192 361.769 235.787 361.904C232.934 362.177 231.781 375.689 231.781 375.689L219.424 376.167C219.424 376.167 213.321 401.574 207.947 404.462C204.032 406.567 201.302 409.653 199.463 412.477C197.538 415.429 199.683 419.337 203.206 419.316L203.217 419.311Z" fill="black"/>
<path d="M204.612 415.199C203.979 415.199 203.421 414.731 203.319 414.087C203.212 413.373 203.705 412.708 204.419 412.6L223.388 409.739C227.271 409.154 230.655 406.883 232.671 403.512L249.436 375.48C249.806 374.862 250.611 374.658 251.228 375.029C251.844 375.399 252.048 376.204 251.678 376.822L234.913 404.854C232.494 408.902 228.435 411.623 223.774 412.327L204.8 415.188C204.735 415.199 204.665 415.204 204.606 415.204L204.612 415.199Z" fill="white"/>
<path d="M228.032 394.118C227.919 394.118 227.801 394.102 227.689 394.07L217.118 391.187C216.421 390.999 216.008 390.28 216.201 389.582C216.389 388.884 217.107 388.471 217.804 388.664L228.375 391.547C229.072 391.734 229.485 392.454 229.292 393.152C229.131 393.731 228.606 394.118 228.032 394.118Z" fill="white"/>
<path d="M222.524 399.55C222.422 399.55 222.315 399.54 222.213 399.513L215.129 397.779C214.426 397.607 213.997 396.899 214.169 396.195C214.34 395.492 215.059 395.063 215.751 395.234L222.835 396.968C223.538 397.14 223.967 397.849 223.795 398.552C223.651 399.148 223.114 399.55 222.524 399.55Z" fill="white"/>
<path d="M169.639 371.491L145.43 395.841L132.591 391.122L154.912 359.971L169.639 371.491Z" fill="white"/>
<path d="M145.43 397.151C145.28 397.151 145.124 397.124 144.979 397.07L132.146 392.352C131.765 392.212 131.464 391.901 131.347 391.509C131.229 391.117 131.293 390.693 131.534 390.36L153.855 359.209C154.064 358.919 154.381 358.726 154.729 358.677C155.089 358.624 155.443 358.726 155.722 358.941L170.449 370.461C170.744 370.691 170.926 371.035 170.947 371.411C170.969 371.786 170.835 372.151 170.572 372.415L146.358 396.764C146.106 397.017 145.773 397.151 145.43 397.151ZM134.656 390.489L145.092 394.327L167.676 371.615L155.18 361.839L134.656 390.489Z" fill="black"/>
<path d="M153.077 392.03C153.077 392.03 154.247 402.39 152.262 411.543C151.206 416.423 146.813 419.853 141.826 419.853H82.403C78.1555 419.853 76.2301 414.544 79.4855 411.817C90.0507 402.954 109.486 389.426 133.384 385.454L140.051 394.794L153.077 392.03Z" fill="black"/>
<path d="M146.814 412.987H85.2295C84.5055 412.987 83.9209 412.402 83.9209 411.677C83.9209 410.952 84.5055 410.367 85.2295 410.367H146.814C147.538 410.367 148.122 410.952 148.122 411.677C148.122 412.402 147.538 412.987 146.814 412.987Z" fill="white"/>
<path d="M119.59 402.036C119.075 402.036 118.587 401.73 118.383 401.225L115.123 393.307C114.849 392.642 115.166 391.874 115.836 391.6C116.501 391.332 117.268 391.643 117.541 392.314L120.802 400.232C121.076 400.898 120.759 401.665 120.089 401.939C119.928 402.004 119.756 402.036 119.59 402.036Z" fill="white"/>
<path d="M108.87 404.113C108.323 404.113 107.813 403.764 107.631 403.217L105.271 396.077C105.046 395.39 105.416 394.649 106.102 394.424C106.789 394.188 107.529 394.569 107.754 395.256L110.114 402.396C110.339 403.083 109.969 403.823 109.283 404.049C109.149 404.097 109.009 404.113 108.875 404.113H108.87Z" fill="white"/>
<path d="M297.805 201.09C297.805 201.09 187.144 188.196 154.241 216.706C121.333 245.217 206.188 367.825 206.188 367.825L233.019 347.909L207.566 261.251L309.861 232.172L297.81 201.09H297.805Z" fill="black"/>
<path d="M358.708 257.52C342.635 262.625 313.873 269.228 273.671 268.681C262.248 268.525 251.704 274.843 246.518 285.027C234.612 308.399 208.837 350.486 166.861 377.761L146.813 366.95L197.988 251.648C202.659 241.121 211.395 232.94 222.202 228.973L323.617 191.75C323.617 191.75 355.066 182.951 370.48 211.054C373.231 216.073 378.348 207.103 379.565 211.15C383.737 225.032 372.513 253.14 358.708 257.526V257.52Z" fill="black"/>
<path d="M174.857 305.061C174.68 305.061 174.498 305.023 174.326 304.948C173.666 304.653 173.371 303.88 173.661 303.219L196.787 251.116C201.576 240.326 210.671 231.812 221.746 227.743L270.314 209.916C270.995 209.669 271.741 210.018 271.993 210.694C272.239 211.37 271.896 212.127 271.215 212.374L222.647 230.202C212.232 234.024 203.678 242.033 199.178 252.179L176.053 304.282C175.838 304.771 175.361 305.061 174.857 305.061Z" fill="white"/>
<path d="M201.86 349.852C201.533 349.852 201.206 349.729 200.954 349.487C200.434 348.988 200.418 348.161 200.916 347.635C205.523 342.841 210.06 337.688 214.399 332.314C214.85 331.756 215.675 331.665 216.239 332.121C216.802 332.578 216.888 333.399 216.432 333.963C212.045 339.39 207.459 344.602 202.799 349.45C202.541 349.718 202.198 349.852 201.855 349.852H201.86Z" fill="white"/>
<path d="M215.418 334.446C215.128 334.446 214.838 334.349 214.597 334.156C214.034 333.699 213.948 332.878 214.404 332.315C216.539 329.673 218.662 326.936 220.716 324.171C221.145 323.591 221.966 323.473 222.545 323.903C223.124 324.332 223.242 325.153 222.813 325.733C220.738 328.525 218.593 331.289 216.437 333.957C216.179 334.274 215.804 334.44 215.418 334.44V334.446Z" fill="white"/>
<path d="M365.685 55.4045C353.007 52.4199 347.719 52.3823 301.629 54.0518C290.366 54.4598 276.964 68.6102 275.639 79.8135C279.222 90.5605 295.745 143.625 266.897 185.077C262.805 190.961 257.239 197.413 249.602 203.597C253.892 207.071 260.564 211.59 269.52 214.253C284.392 218.671 291.868 213.893 303.849 214.253C335.545 215.198 347.172 250.536 367.643 246.097C373.107 244.911 380.353 240.643 387.148 226.326C390.999 214.452 400.298 198.75 402.207 182.994C407.377 140.286 408.23 97.5391 400.668 75.2237C398.421 68.1807 380.632 58.9153 365.685 55.3992V55.4045Z" fill="white"/>
<path d="M364.033 247.804C355.452 247.804 348.394 241.496 340.387 234.341C330.793 225.768 319.917 216.046 303.806 215.568C299.591 215.439 295.874 215.976 292.27 216.497C285.706 217.442 278.927 218.424 269.145 215.515C261.899 213.362 255.05 209.696 248.776 204.617C248.47 204.37 248.293 203.995 248.293 203.603C248.293 203.211 248.47 202.835 248.776 202.588C255.383 197.236 261.116 191.1 265.819 184.342C292.222 146.394 280.611 98.8972 274.395 80.2376C274.336 80.055 274.315 79.8618 274.336 79.6685C275.682 68.2988 289.133 53.2036 301.575 52.7527C348.486 51.051 353.302 51.153 365.975 54.1377C380.975 57.6645 399.419 67.0373 401.907 74.8372C408.793 95.1556 409.372 134.644 403.495 183.161C402.207 193.774 397.649 204.322 393.621 213.63C391.583 218.338 389.663 222.783 388.381 226.739C388.365 226.793 388.344 226.847 388.317 226.895C382.681 238.775 375.816 245.667 367.905 247.385C366.575 247.675 365.283 247.809 364.022 247.809L364.033 247.804ZM302.551 212.933C302.991 212.933 303.436 212.938 303.886 212.954C320.946 213.464 332.198 223.518 342.13 232.392C350.781 240.122 358.257 246.8 367.364 244.825C374.421 243.295 380.664 236.912 385.931 225.848C387.25 221.79 389.186 217.318 391.229 212.589C395.182 203.447 399.665 193.081 400.904 182.844C406.734 134.703 406.198 95.6334 399.424 75.6532C397.477 69.5496 380.938 60.3379 365.379 56.6822C353.017 53.7726 348.255 53.676 301.672 55.3616C291.514 55.732 278.476 68.6209 276.969 79.69C283.335 98.9187 294.909 147.108 267.965 185.834C263.422 192.362 257.952 198.326 251.682 203.581C257.34 207.929 263.454 211.097 269.89 213.008C279.125 215.756 285.33 214.86 291.9 213.91C295.236 213.432 298.674 212.933 302.551 212.933Z" fill="black"/>
<path d="M264.076 121.535C264.076 121.535 271.531 61.7175 293.01 56.6124C285.453 79.8618 282.938 105.156 284.037 131.922C284.086 133.033 282.868 133.736 281.935 133.13L264.082 121.529L264.076 121.535Z" fill="white"/>
<path d="M282.67 134.665C282.166 134.665 281.662 134.52 281.217 134.236L263.363 122.635C262.939 122.361 262.714 121.873 262.778 121.374C263.089 118.894 270.598 60.5955 292.704 55.3401C293.166 55.2274 293.648 55.3777 293.97 55.7266C294.292 56.0756 294.399 56.5694 294.254 57.0204C287.095 79.0458 284.177 103.53 285.341 131.874C285.384 132.883 284.864 133.817 283.989 134.316C283.576 134.552 283.126 134.665 282.67 134.665ZM265.476 120.89L282.638 132.04C281.587 104.383 284.29 80.3717 290.977 58.6952C273.623 66.6347 266.425 114.084 265.476 120.89Z" fill="black"/>
<path d="M243.119 103.814C236.2 105.414 227.904 107.943 217.982 105.758C203.807 102.633 191.505 91.0275 191.21 78.7667C191.172 77.2797 191.092 66.2536 199.941 61.8839C204.59 59.5863 207.25 61.331 211.755 59.3984C221.387 55.265 215.89 44.4535 223.726 36.5033C233.256 26.83 256.698 27.3077 269.532 29.3744C289.563 32.6061 292.84 41.2005 304.563 39.7135C318.824 37.8991 319.548 24.4787 336.27 11.8421C352.021 -0.0590494 397.827 -5.52918 420.25 7.64423C453.806 27.356 453.458 61.5242 448.937 83.0182C444.443 104.383 423.071 113.273 398.604 122.447C387.937 126.446 377.876 109.37 341.595 107.669C276.724 104.63 269.06 97.8128 243.124 103.814H243.119Z" fill="black"/>
<path d="M267.166 107.186C271.039 108.485 274.975 109.58 279.056 109.848C280.703 109.956 282.58 110.036 284.639 110.041C292.534 110.074 297.371 105.554 302.311 106.778C307.25 108.002 338.914 117.208 338.914 117.208C338.914 117.208 336.194 120.966 327.254 118.765C318.314 116.558 308.821 115.866 306.054 118.222C303.287 120.579 290.549 121.057 286.881 119.457C283.207 117.857 205.711 125.706 181.824 119.414C157.937 113.123 181.433 93.2821 208.832 94.2538C230.065 95.0053 254.252 102.848 267.166 107.186Z" fill="white"/>
<path d="M213.696 123.209C200.482 123.209 188.678 122.571 181.491 120.681C171.178 117.965 170.309 113.015 170.706 110.304C171.95 101.877 189.241 92.2407 208.88 92.9493C228.702 93.6525 250.664 100.266 267.584 105.951C270.942 107.078 274.937 108.27 279.142 108.549C280.949 108.667 282.799 108.732 284.644 108.742C288.28 108.807 291.354 107.706 294.03 106.778C296.969 105.763 299.747 104.802 302.621 105.516C307.529 106.735 337.98 115.581 339.272 115.957C339.68 116.075 340.007 116.387 340.147 116.789C340.286 117.192 340.216 117.637 339.97 117.981C339.836 118.163 336.623 122.431 326.943 120.042C317.659 117.755 309.046 117.401 306.901 119.226C303.522 122.104 290.174 122.324 286.361 120.665C285.063 120.284 274.862 120.831 264.056 121.411C249.323 122.2 230.386 123.22 213.702 123.22L213.696 123.209ZM206.778 95.526C188.528 95.526 174.224 104.351 173.291 110.686C172.658 114.98 178.574 117.208 182.156 118.153C198.02 122.329 237.669 120.198 263.911 118.792C280.531 117.895 286.028 117.659 287.401 118.26C290.887 119.779 303.034 119.076 305.206 117.229C308.735 114.229 319.456 115.495 327.565 117.498C331.566 118.48 334.161 118.185 335.754 117.659C327.908 115.383 305.989 109.043 301.999 108.055C299.875 107.524 297.671 108.286 294.888 109.252C292.029 110.24 288.795 111.362 284.725 111.362H284.634C282.735 111.357 280.831 111.287 278.97 111.163C274.471 110.868 270.266 109.617 266.753 108.436C249.999 102.811 228.273 96.2614 208.789 95.5689C208.113 95.5475 207.443 95.5314 206.783 95.5314L206.778 95.526Z" fill="black"/>
<path d="M281.008 70.0971C281.008 70.0971 283.523 82.8787 291.209 83.4853C298.894 84.0972 305.973 62.3563 334.081 72.9047C364.468 84.3066 402.894 91.0168 408.247 106.048C418.168 133.908 300.267 117.251 300.149 116.51L263.621 106.751L281.003 70.1025L281.008 70.0971Z" fill="white"/>
<path d="M365.89 123.435C336.178 123.435 302.01 118.48 299.87 117.804C299.817 117.788 299.758 117.766 299.699 117.739L263.294 108.012C262.919 107.91 262.608 107.653 262.447 107.298C262.286 106.944 262.286 106.541 262.447 106.187L279.829 69.5335C280.07 69.0235 280.617 68.7283 281.169 68.798C281.727 68.8678 282.178 69.2865 282.29 69.8395C282.312 69.9576 284.709 81.6547 291.311 82.1808C293.177 82.358 295.333 80.4952 298.058 78.1708C304.606 72.5933 314.511 64.16 334.537 71.6807C342.984 74.8479 352.085 77.6662 360.886 80.3879C384.768 87.7744 405.394 94.1518 409.475 105.613C410.8 109.327 410.178 112.554 407.63 115.2C401.597 121.465 384.623 123.44 365.879 123.44L365.89 123.435ZM300.734 115.334C305.131 116.51 391.67 128.009 405.759 113.386C407.587 111.485 408 109.231 407.024 106.488C403.383 96.2668 382.37 89.766 360.124 82.884C351.286 80.1517 342.142 77.3226 333.631 74.1286C315.037 67.1554 306.209 74.6708 299.763 80.1624C296.572 82.8787 294.062 85.0259 291.112 84.7897C285.224 84.3227 282.108 77.9453 280.697 73.8173L265.488 105.892L300.498 115.249C300.578 115.27 300.659 115.302 300.734 115.34V115.334Z" fill="black"/>
<path d="M232.885 86.3572C232.885 86.3572 249.843 111.002 268.04 111.035C291.176 111.072 278.423 82.5512 278.423 82.5512C278.423 82.5512 287.845 80.2375 286.574 71.6271C285.33 63.2044 279.173 66.071 276.867 69.6892C276.867 69.6892 268.726 84.7092 261.271 56.9398C259.555 50.541 265.546 69.6892 253.104 74.2252C241.975 78.2836 233.244 71.6217 232.885 86.3519V86.3572Z" fill="white"/>
<path d="M268.088 112.344H268.035C249.371 112.312 232.515 88.1287 231.807 87.1034C231.652 86.8779 231.571 86.6042 231.576 86.3304C231.845 75.2022 237.063 74.9231 243.102 74.5956C245.96 74.44 249.199 74.2682 252.653 73.0067C260.998 69.9629 260.124 59.2374 259.663 56.0219C259.464 54.653 260.553 54.3953 260.676 54.3685C261.046 54.2987 261.931 54.2665 262.264 55.5817C262.317 55.7857 262.403 56.1239 262.532 56.607C266.098 69.8985 269.509 72.2229 271.226 72.4269C273.634 72.6685 275.693 69.1094 275.714 69.0718C277.345 66.5112 280.455 64.3157 283.341 64.9384C285.019 65.298 287.165 66.7152 287.862 71.4392C288.87 78.246 283.877 81.9607 280.171 83.3725C281.742 87.3986 285.722 99.3481 280.992 106.649C278.541 110.428 274.197 112.35 268.088 112.35V112.344ZM234.204 85.96C236.323 88.9017 251.892 109.703 268.04 109.73H268.083C273.253 109.73 276.857 108.216 278.793 105.226C283.662 97.7162 277.286 83.2383 277.221 83.0934C277.061 82.7391 277.071 82.3311 277.243 81.9822C277.415 81.6333 277.731 81.381 278.106 81.2843C278.439 81.2038 286.355 79.1317 285.277 71.8257C285.062 70.3602 284.451 67.8533 282.794 67.499C281.153 67.1447 279.029 68.7336 277.967 70.4031C277.897 70.5373 275.167 75.5136 270.92 75.0305C267.622 74.6386 264.742 71.0956 262.189 64.2405C261.422 68.6907 259.196 73.4146 253.549 75.4706C249.73 76.861 246.132 77.0596 243.246 77.2153C237.46 77.5266 234.505 77.6877 234.204 85.9707V85.96Z" fill="black"/>
<path d="M308.682 110.278C304.809 111.577 300.868 112.672 296.792 112.94C295.145 113.048 293.268 113.128 291.209 113.133C283.314 113.166 278.477 108.646 273.537 109.87C268.598 111.094 236.935 120.3 236.935 120.3C236.935 120.3 239.654 124.058 248.594 121.857C257.534 119.65 267.027 118.958 269.794 121.315C272.561 123.671 285.299 124.149 288.967 122.549C292.641 120.95 370.137 128.798 394.024 122.506C417.911 116.215 394.415 96.3742 367.016 97.3458C345.783 98.0973 321.596 105.94 308.682 110.278Z" fill="white"/>
<path d="M362.146 126.302C345.462 126.302 326.53 125.287 311.792 124.492C300.986 123.913 290.78 123.365 289.444 123.762C285.674 125.405 272.325 125.185 268.947 122.308C266.802 120.482 258.188 120.831 248.905 123.124C239.225 125.507 236.007 121.25 235.878 121.068C235.626 120.724 235.562 120.278 235.701 119.876C235.841 119.473 236.162 119.162 236.575 119.044C237.868 118.668 268.319 109.816 273.226 108.597C276.112 107.878 278.879 108.844 281.818 109.859C284.478 110.782 287.492 111.824 291.128 111.824H291.209C293.048 111.818 294.899 111.754 296.711 111.636C300.911 111.357 304.911 110.17 308.269 109.038C325.184 103.353 347.14 96.7392 366.973 96.036C386.634 95.3489 403.903 104.958 405.147 113.391C405.544 116.102 404.675 121.051 394.362 123.768C387.175 125.663 375.366 126.302 362.151 126.302H362.146ZM292.056 121.019C295.451 121.019 301.501 121.32 311.932 121.884C338.173 123.29 377.828 125.421 393.686 121.245C397.269 120.3 403.184 118.078 402.551 113.778C401.586 107.212 386.258 98.0115 367.059 98.6556C347.564 99.3481 325.838 105.897 309.095 111.523C305.576 112.704 301.377 113.949 296.878 114.25C295.017 114.374 293.107 114.438 291.214 114.443H291.123C287.052 114.443 283.819 113.327 280.965 112.334C278.182 111.373 275.988 110.605 273.854 111.137C269.858 112.124 247.94 118.469 240.093 120.74C241.676 121.272 244.282 121.567 248.283 120.579C256.392 118.577 267.113 117.31 270.641 120.311C272.814 122.157 284.961 122.861 288.447 121.341C288.956 121.121 290.04 121.014 292.056 121.014V121.019Z" fill="black"/>
<path d="M306.327 109.639C305.667 108.474 305.957 106.992 307.024 106.182C308.51 105.044 310.735 103.911 312.865 105.022C315.659 106.488 320.244 117.364 322.228 122.351C322.722 123.596 321.81 124.616 320.561 125.104C319.311 125.593 317.166 126.081 317.166 126.081C316.372 126.162 315.133 125.18 314.736 124.487L306.322 109.639H306.327Z" fill="black"/>
<path d="M428.836 420.69L368.839 171.491L308.837 420.69H294.459L360.382 144.865L377.291 144.838L443.22 420.69H428.836Z" fill="white"/>
<path d="M443.22 422H428.841C428.235 422 427.71 421.587 427.57 420.996L368.839 177.073L310.114 420.996C309.974 421.581 309.449 422 308.843 422H294.459C294.062 422 293.681 421.817 293.435 421.501C293.188 421.184 293.097 420.776 293.188 420.39L359.111 144.564C359.25 143.979 359.776 143.56 360.382 143.56L377.291 143.533C377.897 143.533 378.423 143.947 378.562 144.537L444.491 420.384C444.582 420.776 444.491 421.184 444.244 421.495C443.997 421.812 443.616 421.995 443.22 421.995V422ZM429.866 419.38H441.562L376.262 146.148L361.411 146.169L296.111 419.38H307.808L367.563 171.179C367.702 170.594 368.228 170.175 368.834 170.175C369.44 170.175 369.965 170.589 370.105 171.179L429.866 419.38Z" fill="black"/>
<path d="M130.918 419.015L73.1848 169.783L15.4461 419.015H1.60938L65.0437 143.157L81.3152 143.136L144.755 419.015H130.918Z" fill="white"/>
<path d="M144.754 420.325H130.918C130.312 420.325 129.781 419.906 129.647 419.311L73.1844 175.576L16.7221 419.311C16.5827 419.901 16.0571 420.325 15.4511 420.325H1.60901C1.21214 420.325 0.836727 420.143 0.584663 419.831C0.337962 419.52 0.241427 419.112 0.332599 418.72L63.7669 142.868C63.901 142.277 64.4319 141.853 65.0379 141.853L81.3094 141.826C81.9208 141.826 82.4464 142.245 82.5805 142.841L146.02 418.72C146.111 419.107 146.02 419.515 145.768 419.831C145.516 420.148 145.146 420.325 144.744 420.325H144.754ZM131.958 417.705H143.119L80.2797 144.44L66.0891 144.462L3.2501 417.705H14.4106L71.908 169.488C72.0474 168.898 72.573 168.474 73.179 168.474C73.7851 168.474 74.316 168.892 74.4501 169.488L131.947 417.705H131.958Z" fill="black"/>
<path d="M1.30325 146.668L456.691 146.668V124.133L1.30325 124.133V146.668Z" fill="white"/>
<path d="M456.691 147.973H1.30859C0.584574 147.973 0 147.388 0 146.663V124.127C0 123.403 0.584574 122.818 1.30859 122.818H456.697C457.421 122.818 458.005 123.403 458.005 124.127V146.663C458.005 147.388 457.421 147.973 456.697 147.973H456.691ZM2.61181 145.358H455.383V125.437H2.61181V145.358Z" fill="black"/>
<path d="M16.8404 15.9273H100.579C104.108 15.9273 107.385 17.688 109.273 20.5868L140.69 113.15H214.807V114.54C214.807 118.91 211.267 122.458 206.897 122.458H49.598C45.2325 122.458 41.6875 118.915 41.6875 114.54V113.321L13.2901 26.7655C12.8557 25.4503 12.3247 24.1674 11.8313 22.8736C10.5925 19.6152 13.038 15.9273 16.8351 15.9273H16.8404Z" fill="white"/>
<path d="M206.896 123.762H49.5979C44.5137 123.762 40.3842 119.624 40.3842 114.54V113.531L12.0511 27.1735C11.7508 26.2556 11.3968 25.3591 11.0482 24.4626L10.6138 23.3407C9.87909 21.4028 10.1526 19.2126 11.3486 17.4733C12.5982 15.6589 14.5986 14.6174 16.8403 14.6174H100.579C104.569 14.6174 108.232 16.5822 110.367 19.8728C110.426 19.9641 110.474 20.0607 110.506 20.1627L141.623 111.84H214.807C215.531 111.84 216.116 112.425 216.116 113.15V114.535C216.116 119.624 211.981 123.757 206.902 123.757L206.896 123.762ZM16.8403 17.2317C15.4728 17.2317 14.25 17.8598 13.4992 18.9549C12.7912 19.9856 12.625 21.2739 13.054 22.4066L13.4777 23.5071C13.8477 24.4519 14.2124 25.3913 14.5289 26.3576L42.9209 112.908C42.9638 113.037 42.9853 113.176 42.9853 113.311V114.529C42.9853 118.174 45.951 121.137 49.5872 121.137H206.886C210.527 121.137 213.488 118.174 213.488 114.529V114.449H140.673C140.116 114.449 139.617 114.094 139.435 113.563L108.071 21.1612C106.409 18.6972 103.615 17.2264 100.563 17.2264H16.8403V17.2317Z" fill="black"/>
<path d="M78.4462 63.3709C79.6261 67.2896 77.8241 71.305 74.4185 72.3303C71.013 73.361 67.2964 71.0151 66.1165 67.0964C64.9366 63.1776 66.7386 59.1622 70.1442 58.1369C73.5497 57.1063 77.2663 59.4521 78.4462 63.3709Z" fill="black"/>
<path d="M123.506 114.626H68.9316C68.2076 114.626 67.623 114.041 67.623 113.316C67.623 112.591 68.2076 112.006 68.9316 112.006H123.506C124.23 112.006 124.815 112.591 124.815 113.316C124.815 114.041 124.23 114.626 123.506 114.626Z" fill="black"/>
<path d="M50.8151 114.626H41.1455C40.4215 114.626 39.8369 114.041 39.8369 113.316C39.8369 112.591 40.4215 112.006 41.1455 112.006H50.8151C51.5391 112.006 52.1237 112.591 52.1237 113.316C52.1237 114.041 51.5391 114.626 50.8151 114.626Z" fill="black"/>
</g>
<defs>
<clipPath id="clip0_52_25">
<rect width="458" height="422" fill="white"/>
</clipPath>
</defs>
</svg>
